<?xml version="1.0" encoding="utf-8"?>
<!-- Generator: Adobe Illustrator 17.1.0, SVG Export Plug-In . SVG Version: 6.00 Build 0)  -->
<!DOCTYPE svg PUBLIC "-//W3C//DTD SVG 1.1//EN" "http://www.w3.org/Graphics/SVG/1.1/DTD/svg11.dtd">
<svg version="1.1" id="Layer_1" xmlns="http://www.w3.org/2000/svg" xmlns:xlink="http://www.w3.org/1999/xlink" x="0px" y="0px"
	 viewBox="0 0 100 100" enable-background="new 0 0 100 100" xml:space="preserve">
<path fill-rule="evenodd" clip-rule="evenodd" fill="#FFFFFF" d="M10,0h80c5.5228,0,10,4.4771,10,10v80c0,5.5228-4.4772,10-10,10H10
	c-5.5229,0-10-4.4772-10-10V10C0,4.4771,4.4771,0,10,0z"/>
<path fill-rule="evenodd" clip-rule="evenodd" fill="#D5EAF6" d="M50,15c19.33,0,35,15.67,35,35S69.33,85,50,85S15,69.33,15,50
	S30.67,15,50,15z"/>
<g>
	<g>
		<path fill-rule="evenodd" clip-rule="evenodd" fill="#93C1DD" d="M90,0H10C4.47711,0,0,4.47711,0,10v80
			c0,5.52277,4.47711,10,10,10h80c5.52283,0,10-4.47723,10-10V10C100,4.47711,95.52283,0,90,0z M96,88c0,4.41827-3.58173,8-8,8H12
			c-4.41827,0-8-3.58173-8-8V12c0-4.41833,3.58173-8,8-8h76c4.41827,0,8,3.58167,8,8V88z"/>
	</g>
</g>
<g>
	<g>
		<path fill-rule="evenodd" clip-rule="evenodd" fill="#FFFFFF" d="M67.30127,42.9903H56.95575l0.03864-10.32611
			c0-0.93323-0.7016-1.68909-1.56677-1.68909h-8.8313c-0.86871,0-1.57312,0.75586-1.57312,1.68909l0.03882,10.32611h-10.4043
			c-0.92664,0-1.67749,0.73688-1.67749,1.64581l0.05225,8.74695c0,0.88074,0.74976,1.59595,1.67395,1.59595h10.40063
			l0.03882,10.3385c0,0.9245,0.69293,1.67529,1.54761,1.67529h8.63721c0.8512,0,1.5415-0.75079,1.5415-1.67529l0.0387-10.3385
			h10.36774c0.92468,0,1.67389-0.71521,1.67389-1.59595l0.02637-8.74695C68.97888,43.72717,68.22772,42.9903,67.30127,42.9903z"/>
	</g>
</g>
<g>
	<g>
		<path fill-rule="evenodd" clip-rule="evenodd" fill="#93C1DD" d="M50,15c-19.33002,0-35,15.66998-35,35
			c0,19.32996,15.66998,35,35,35s35-15.67004,35-35C85,30.66998,69.33002,15,50,15z M50,82.99951
			c-18.2254,0-33.00012-14.77472-33.00012-32.99994c0-18.22516,14.77472-33,33.00012-33c18.22528,0,33,14.77484,33,33
			C83,68.22479,68.22528,82.99951,50,82.99951z M67.30127,42.9903H56.95575l0.03864-10.32611
			c0-0.93323-0.7016-1.68909-1.56677-1.68909h-8.8313c-0.86871,0-1.57312,0.75586-1.57312,1.68909l0.03882,10.32611h-10.4043
			c-0.92664,0-1.67749,0.73688-1.67749,1.64581l0.05225,8.74695c0,0.88074,0.74976,1.59595,1.67395,1.59595h10.40063
			l0.03882,10.3385c0,0.9245,0.69293,1.67529,1.54761,1.67529h8.63721c0.8512,0,1.5415-0.75079,1.5415-1.67529l0.0387-10.3385
			h10.36774c0.92468,0,1.67389-0.71521,1.67389-1.59595l0.02637-8.74695C68.97888,43.72717,68.22772,42.9903,67.30127,42.9903z
			 M67,53H55v12h-8V53H35v-8h12V33h8v12h12V53z"/>
	</g>
</g>
</svg>
