<?xml version="1.0" encoding="utf-8"?>
<!-- Generator: Adobe Illustrator 17.1.0, SVG Export Plug-In . SVG Version: 6.00 Build 0)  -->
<!DOCTYPE svg PUBLIC "-//W3C//DTD SVG 1.1//EN" "http://www.w3.org/Graphics/SVG/1.1/DTD/svg11.dtd">
<svg version="1.1" id="Layer_1" xmlns="http://www.w3.org/2000/svg" xmlns:xlink="http://www.w3.org/1999/xlink" x="0px" y="0px"
	 viewBox="0 0 128 112" enable-background="new 0 0 128 112" xml:space="preserve">
<path fill-rule="evenodd" clip-rule="evenodd" fill="#FFFFFF" d="M5,0h118c2.7614,0,5,2.2386,5,5v86c0,2.7614-2.2386,5-5,5H5
	c-2.7614,0-5-2.2386-5-5V5C0,2.2386,2.2386,0,5,0z"/>
<g>
	<g>
		<path fill-rule="evenodd" clip-rule="evenodd" fill="#93C1DD" d="M73.25,88c1.5188,0,2.75-1.3432,2.75-3
			c0-1.65692-1.2312-3-2.75-3s-2.75,1.34308-2.75,3C70.5,86.6568,71.7312,88,73.25,88z M56.75,88c1.5188,0,2.75-1.3432,2.75-3
			c0-1.65692-1.2312-3-2.75-3S54,83.34308,54,85C54,86.6568,55.2312,88,56.75,88z M123,0H5C2.23859,0,0,2.23859,0,5v86
			c0,2.76141,2.23859,5,5,5h47v8h-8v8h42v-8h-8v-8h45c2.76141,0,5-2.23859,5-5V5C128,2.23859,125.76141,0,123,0z M70,104H60v-8h10
			V104z M124,89c0,1.6568-1.34308,3-3,3H7c-1.65692,0-3-1.3432-3-3V77.99951h120V89z M124,75.99927H4V7c0-1.65692,1.34308-3,3-3h114
			c1.65692,0,3,1.34308,3,3V75.99927z M65,88c1.48431,0,2.6875-1.3432,2.6875-3c0-1.65692-1.20319-3-2.6875-3
			s-2.6875,1.34308-2.6875,3C62.3125,86.6568,63.51569,88,65,88z"/>
	</g>
</g>
<g>
	<g>
		<path fill-rule="evenodd" clip-rule="evenodd" fill="#D5EAF6" d="M9.5,71.96875h18.13611V9.5H9.5V71.96875z M33.68146,9.5
			v10.07556h84.63507V9.5H33.68146z M78.0141,67.93848h40.30243V65.9234H78.0141V67.93848z M78.0141,71.96875h40.30243v-2.01514
			H78.0141V71.96875z M33.68146,71.96875h38.28729V23.60583H33.68146V71.96875z M78.0141,23.60583v38.28729h18.13611V23.60583
			H78.0141z M100.18042,61.89313h18.13611V23.60583h-18.13611V61.89313z"/>
	</g>
</g>
</svg>
