<?xml version="1.0" encoding="utf-8"?>
<!-- Generator: Adobe Illustrator 17.1.0, SVG Export Plug-In . SVG Version: 6.00 Build 0)  -->
<!DOCTYPE svg PUBLIC "-//W3C//DTD SVG 1.1//EN" "http://www.w3.org/Graphics/SVG/1.1/DTD/svg11.dtd">
<svg version="1.1" id="Layer_1" xmlns="http://www.w3.org/2000/svg" xmlns:xlink="http://www.w3.org/1999/xlink" x="0px" y="0px"
	 viewBox="0 0 54.02313 109.98657" enable-background="new 0 0 54.02313 109.98657" xml:space="preserve">
<g>
	<g>
		<path fill-rule="evenodd" clip-rule="evenodd" fill="#FFFFFF" d="M47.8786,0H6.14441C2.77344,0,0,2.78876,0,6.1554v97.77679
			c0,3.36078,2.77344,6.05438,6.14441,6.05438H47.8786c3.37109,0,6.14453-2.6936,6.14453-6.05438V6.1554
			C54.02313,2.78876,51.24969,0,47.8786,0z"/>
	</g>
</g>
<g>
	<g>
		<path fill-rule="evenodd" clip-rule="evenodd" fill="#93C1DD" d="M25.99731,8.00049h10v-2h-10V8.00049z M26.99731,98.00049
			c-1.65692,0-3,1.34308-3,3c0,1.65686,1.34308,3,3,3s3-1.34314,3-3C29.99731,99.34357,28.65424,98.00049,26.99731,98.00049z
			 M26.99731,102.00024c-0.55231,0-1-0.44775-1-0.99988c0-0.55237,0.44769-1.00012,1-1.00012c0.55219,0,1,0.44775,1,1.00012
			C27.99731,101.55249,27.5495,102.00024,26.99731,102.00024z M47.8786,0H6.14441C2.77344,0,0,2.78876,0,6.1554v97.77679
			c0,3.36078,2.77344,6.05438,6.14441,6.05438H47.8786c3.37109,0,6.14453-2.6936,6.14453-6.05438V6.1554
			C54.02313,2.78876,51.24969,0,47.8786,0z M3.99731,6.00049c0-1.10461,0.89539-2,2-2h42c1.10461,0,2,0.89539,2,2v88h-46V6.00049z
			 M47.99731,106.00049h-42c-1.10461,0-2-0.89539-2-2v-8h46v8C50.41083,105.50592,49.27289,106.1662,47.99731,106.00049z
			 M19.99731,8.00049h2v-2h-2V8.00049z"/>
	</g>
</g>
<g>
	<g>
		<path fill-rule="evenodd" clip-rule="evenodd" fill="#D5EAF6" d="M37.99731,82.00049h12v-14h-12V82.00049z M15.99731,68.00049h-12
			v14h12V68.00049z M3.99731,10.00049v54h46v-54H3.99731z M3.99731,94.00049h46v-8h-46V94.00049z M19.99731,68.00049v14h14v-14
			H19.99731z"/>
	</g>
</g>
</svg>
