<svg xmlns="http://www.w3.org/2000/svg" width="156" height="156" viewBox="0 0 156 156"><path fill="#fff" d="M138.76 0H17.23C7.73 0 0 7.73 0 17.23v78.94a3.72 3.72 0 0 0 7.44 0V38.65h141.12v100.11a9.8 9.8 0 0 1-9.8 9.8H17.24a9.8 9.8 0 0 1-9.8-9.8v-20.82a3.72 3.72 0 1 0-7.43 0v20.82C0 148.27 7.73 156 17.23 156h121.54c9.5 0 17.23-7.73 17.23-17.24V17.23C156 7.73 148.27 0 138.76 0zM7.44 31.21V17.23a9.8 9.8 0 0 1 9.79-9.79h121.54a9.8 9.8 0 0 1 9.79 9.79v13.98zm13.8-15.61a3.72 3.72 0 1 0 .02 7.44 3.72 3.72 0 0 0-.02-7.44zm15.7 0a3.72 3.72 0 0 0-3.71 3.72c0 .98.4 1.94 1.09 2.64a3.74 3.74 0 0 0 5.25 0 3.7 3.7 0 0 0 0-5.26 3.71 3.71 0 0 0-2.62-1.1zm15.71 0a3.72 3.72 0 0 0-3.72 3.72 3.74 3.74 0 0 0 6.35 2.64 3.68 3.68 0 0 0 0-5.26c-.69-.7-1.65-1.1-2.63-1.1zM24.26 137.64h52.91a8.69 8.69 0 0 0 8.68-8.68V55.94c0-4.79-3.9-8.68-8.68-8.68h-52.9a8.69 8.69 0 0 0-8.68 8.68v73.02a8.7 8.7 0 0 0 8.67 8.68zm-1.24-81.7c0-.68.56-1.24 1.24-1.24h52.91c.69 0 1.24.56 1.24 1.24v73.02c0 .69-.55 1.24-1.24 1.24h-52.9c-.69 0-1.25-.55-1.25-1.24zm76.2 21.63H132c4.63 0 8.4-3.89 8.4-8.68V55.94c0-4.79-3.77-8.68-8.4-8.68H99.2c-4.63 0-8.4 3.89-8.4 8.68v12.95c0 4.79 3.77 8.68 8.4 8.68zm0-22.87H132c.52 0 .96.57.96 1.24v12.95c0 .67-.44 1.24-.96 1.24H99.2c-.52 0-.96-.57-.96-1.24V55.94c0-.67.44-1.24.96-1.24zm-8.4 74.5a8.43 8.43 0 0 0 8.4 8.44H132c4.63 0 8.4-3.79 8.4-8.44V90.69a8.43 8.43 0 0 0-8.4-8.44H99.2a8.43 8.43 0 0 0-8.4 8.44zm8.4-39.51H132c.53 0 .96.45.96 1v38.51c0 .56-.43 1-.96 1H99.2a.98.98 0 0 1-.96-1V90.69c0-.55.43-1 .96-1z"/></svg>