<?xml version="1.0" encoding="utf-8"?>
<!-- Generator: Adobe Illustrator 17.1.0, SVG Export Plug-In . SVG Version: 6.00 Build 0)  -->
<!DOCTYPE svg PUBLIC "-//W3C//DTD SVG 1.1//EN" "http://www.w3.org/Graphics/SVG/1.1/DTD/svg11.dtd">
<svg version="1.1" id="Layer_1" xmlns="http://www.w3.org/2000/svg" xmlns:xlink="http://www.w3.org/1999/xlink" x="0px" y="0px"
	 viewBox="487.375 155.3324 146.14397 175.0014" enable-background="new 487.375 155.3324 146.14397 175.0014" xml:space="preserve"
	>
<path d="M559.651,261.16"/>
<path d="M563.38977,246.60335c0.26642,0.42844,0.37286,0.91057,0.37286,1.39247v71.94864c0,1.33902,0.53259,2.54388,1.41156,3.42746
	c0.87891,0.88361,2.07727,1.41898,3.38232,1.41898c1.3316,0,2.53015-0.53537,3.40887-1.41898l0,0
	c0.85248-0.88358,1.38501-2.08844,1.38501-3.42746V208.15222c0-1.12466,0.66583-2.08847,1.62476-2.54364l42.81348-21.25958l0,0
	c1.14514-0.66951,1.91736-1.74071,2.237-2.91884c0.29291-1.1514,0.2132-2.383-0.37286-3.50766
	c-0.07996-0.10718-0.15973-0.24107-0.21295-0.34824c-0.66577-1.04424-1.67792-1.7672-2.79657-2.06174
	c-1.14508-0.29454-2.37018-0.2141-3.4621,0.37497c-0.13318,0.0802-0.23962,0.1339-0.34637,0.18736l-38.73859,18.90334
	c-0.05347,0.05347-0.10669,0.0802-0.15997,0.10693c-3.22241,1.82089-7.61694,3.2401-12.17114,3.42746
	c-3.88824,0.1339-7.93658-0.58907-11.55865-2.70427l-43.90536-21.90236l-0.10648-0.08043
	c-1.11862-0.58907-2.37045-0.696-3.5423-0.40147c-1.17163,0.32127-2.23703,1.09793-2.90305,2.2491l-0.02649,0.02673
	c-0.63928,1.12466-0.77249,2.43671-0.45285,3.6418c0.31964,1.20486,1.09189,2.27606,2.23724,2.91861l45.55658,22.94659
	c0.93219,0.45515,1.57147,1.41896,1.57147,2.51689v112.22067l0,0v0.0802l0,0c0.02649,1.31229,0.55933,2.49042,1.41156,3.34726
	c0.87872,0.88361,2.07727,1.41898,3.38232,1.41898s2.53015-0.53537,3.38239-1.41898l0,0
	c0.87897-0.88358,1.41156-2.08844,1.41156-3.42746v-71.89517c-0.02673-0.96381,0.47931-1.95457,1.38477-2.49017
	C560.93958,244.80942,562.64404,245.26459,563.38977,246.60335z M572.21417,171.57777c0-2.99588-1.20746-5.70789-3.15979-7.67076
	c-1.95239-1.96288-4.67535-3.20262-7.65533-3.20262c-2.97992,0-5.67737,1.23975-7.62952,3.20262
	c-1.95251,1.96288-3.18555,4.67488-3.18555,7.67076c0,3.0219,1.20746,5.73367,3.15979,7.69678h0.02576
	c1.92657,1.96265,4.6496,3.17661,7.62952,3.17661c3.00555,0,5.70294-1.21396,7.65533-3.17661l0,0
	C571.00671,177.31145,572.21417,174.59967,572.21417,171.57777z M578.91656,209.75879v110.18567
	c0,2.86514-1.17188,5.46246-3.03601,7.36359l0,0c-1.86432,1.87436-4.44775,3.02576-7.32404,3.02576
	c-2.84979,0-5.43317-1.1514-7.2973-3.02576l-0.26642-0.26782l-0.23962,0.26782l0,0c-1.86438,1.87436-4.4743,3.02576-7.3241,3.02576
	s-5.45966-1.1514-7.32404-3.02576c-1.86438-1.87439-3.00946-4.47171-3.00946-7.36359l0,0V209.33035l-44.35825-22.25037
	c-2.47693-1.41896-4.12811-3.72176-4.82065-6.29236c-0.66577-2.49017-0.39935-5.19467,0.9057-7.63136
	c0.07974-0.18738,0.18619-0.34824,0.29291-0.5356c1.43826-2.32954,3.67526-3.90938,6.12546-4.57864
	c2.45016-0.64276,5.16675-0.40169,7.56372,0.91034c0.1597,0.05347,0.29291,0.1339,0.42609,0.24083l43.7457,21.7952
	c2.6366,1.5531,5.64612,2.06174,8.57587,1.9548c3.64856-0.1339,7.1109-1.25858,9.64105-2.7045l0.13318-0.05347l38.89856-19.0105l0,0
	l0,0c2.47668-1.44594,5.29974-1.74046,7.8299-1.04424c2.53015,0.66949,4.82062,2.32953,6.25867,4.79297l0.02673,0.0537
	c1.43823,2.49017,1.73114,5.32834,1.03864,7.87221c-0.6925,2.57059-2.34369,4.8734-4.82062,6.31932l0,0l0,0L578.91656,209.75879z
	 M572.83057,160.08464c2.92859,2.94431,4.72662,6.99921,4.72662,11.49313c0,4.46815-1.79803,8.52304-4.72662,11.46736v0.026
	h-0.02557c-2.92865,2.94431-6.96179,4.75224-11.40594,4.75224s-8.47729-1.80794-11.40588-4.75224l0,0l-0.02557-0.026
	c-2.90308-2.94432-4.72693-6.99921-4.72693-11.46736c0-4.49393,1.82385-8.54883,4.72693-11.49313
	c2.92841-2.91852,6.96155-4.75224,11.43146-4.75224C565.86902,155.3324,569.90216,157.14034,572.83057,160.08464z"/>
<path fill="none" stroke="#2D95FF" stroke-width="6" stroke-linecap="round" stroke-miterlimit="10" d="M616.95416,199.02611
	c8.5274,11.60263,13.56482,25.92934,13.56482,41.43259c0,29.78542-18.59387,55.22798-44.80743,65.35347"/>
<path fill="none" stroke="#2D95FF" stroke-width="6" stroke-linecap="round" stroke-miterlimit="10" d="M583.75861,174.15079
	c1.39386,0.41133,2.45319,0.7881,3.86639,1.39433"/>
<path fill="none" stroke="#2D95FF" stroke-width="6" stroke-linecap="round" stroke-miterlimit="10" d="M538.36322,174.2065
	c-1.06812,0.3152-2.10986,0.69177-3.12128,1.12563"/>
<path fill="none" stroke="#2D95FF" stroke-width="6" stroke-linecap="round" stroke-miterlimit="10" d="M535.6925,305.9787
	c-26.44278-10.01086-45.2428-35.56995-45.2428-65.52c0-16.08405,5.42191-30.90175,14.53775-42.72505"/>
</svg>
