<?xml version="1.0" encoding="UTF-8"?>
<svg viewBox="0 0 18 35" xmlns="http://www.w3.org/2000/svg">
    <metadata>
        <x:xmpmeta x:xmptk="Adobe XMP Core 5.6-c138 79.159824, 2016/09/14-01:09:01        " xmlns:x="adobe:ns:meta/">
            <rdf:RDF xmlns:rdf="http://www.w3.org/1999/02/22-rdf-syntax-ns#">
                <rdf:Description rdf:about=""/>
            </rdf:RDF>
        </x:xmpmeta>
    </metadata>
    <defs>
        <style>.cls-1 {
            fill: silver;
            fill-rule: evenodd;
            }</style>
    </defs>
    <path class="cls-1" transform="translate(-1856 -933)" d="M1873.32,933L1869,933c-4.85,0-7.98,3.38-7.98,8.613v3.971h-4.34a0.7,0.7,0,0,0-.68.715v5.754a0.694,0.694,0,0,0,.68.714h4.34v14.519a0.694,0.694,0,0,0,.68.714h5.66a0.7,0.7,0,0,0,.68-0.714V952.765h5.08a0.693,0.693,0,0,0,.67-0.714l0.01-5.754a0.769,0.769,0,0,0-.2-0.5,0.667,0.667,0,0,0-.48-0.21h-5.08v-3.366c0-1.619.37-2.44,2.37-2.44h2.91a0.7,0.7,0,0,0,.68-0.714v-5.343A0.7,0.7,0,0,0,1873.32,933Z" data-name="Shape 12 copy 4"/>
</svg>
