<?xml version="1.0" encoding="UTF-8"?>
<svg viewBox="0 0 70.03 12.79" xmlns="http://www.w3.org/2000/svg">
    <metadata>
        <x:xmpmeta x:xmptk="Adobe XMP Core 5.6-c138 79.159824, 2016/09/14-01:09:01        " xmlns:x="adobe:ns:meta/">
            <rdf:RDF xmlns:rdf="http://www.w3.org/1999/02/22-rdf-syntax-ns#">
                <rdf:Description rdf:about=""/>
            </rdf:RDF>
        </x:xmpmeta>
    </metadata>
    <defs>
        <style>.cls-1 {
            fill: #fff;
            fill-rule: evenodd;
            opacity: 0.6;
            }</style>
    </defs>
    <path class="cls-1" transform="translate(-1372.9 -1582.8)" d="M1379.54,1592.72a2.788,2.788,0,0,1-2.09.99,2.269,2.269,0,0,1-2.34-2.32,2.241,2.241,0,0,1,2.25-2.31,2.752,2.752,0,0,1,2.02.79l0.97-1.64a4.565,4.565,0,0,0-3.26-1.09,4.247,4.247,0,1,0,.2,8.49,3.952,3.952,0,0,0,3.22-1.4Zm2.62,0.48c0,1.66.67,2.42,1.91,2.42a3.355,3.355,0,0,0,2.15-.69l-0.44-1.58a1.431,1.431,0,0,1-.84.32c-0.49,0-.71-0.39-0.71-1.31v-9.53h-2.07v10.37Zm12.71-5.87h-2.07v5.39a2.335,2.335,0,0,1-1.82.99c-1.13,0-1.54-.78-1.54-1.86v-4.52h-2.07v4.96c0,2.32,1.26,3.34,2.84,3.34a3.257,3.257,0,0,0,2.59-1.18v0.99h2.07v-8.11Zm2.13,5.03c0,2.07.68,3.26,2.52,3.26a3.877,3.877,0,0,0,2.39-.8l-0.63-1.6a1.983,1.983,0,0,1-1.24.47c-0.69,0-.97-0.58-0.97-1.46v-2.95h2.61v-1.95h-2.61v-2.25H1397v7.28Zm12.47,0.36a2.788,2.788,0,0,1-2.09.99,2.275,2.275,0,0,1-2.34-2.32,2.241,2.241,0,0,1,2.25-2.31,2.737,2.737,0,0,1,2.02.79l0.97-1.64a4.533,4.533,0,0,0-3.26-1.09,4.122,4.122,0,0,0-4.19,4.25,4.077,4.077,0,0,0,4.39,4.24,3.938,3.938,0,0,0,3.22-1.4Zm2.63,2.72h2.07v-5.57a2.521,2.521,0,0,1,1.78-.74,1.675,1.675,0,0,1,1.8,1.88v4.43h2.07v-4.7c0-2.54-1.35-3.55-3.33-3.55a3.432,3.432,0,0,0-2.32.88v-5.24h-2.07v12.61Zm9.48-1.35a1.414,1.414,0,0,0,1.44,1.44,1.391,1.391,0,0,0,1.32-1.44,1.368,1.368,0,0,0-1.32-1.34A1.4,1.4,0,0,0,1421.58,1594.09Zm10.86-1.37a2.788,2.788,0,0,1-2.09.99,2.275,2.275,0,0,1-2.34-2.32,2.241,2.241,0,0,1,2.25-2.31,2.752,2.752,0,0,1,2.02.79l0.97-1.64a4.565,4.565,0,0,0-3.26-1.09,4.246,4.246,0,1,0,.2,8.49,3.952,3.952,0,0,0,3.22-1.4Zm1.69-1.33a4.413,4.413,0,1,0,4.41-4.25A4.131,4.131,0,0,0,1434.13,1591.39Zm2.21,0a2.213,2.213,0,1,1,2.2,2.32A2.173,2.173,0,0,1,1436.34,1591.39Z"/>
</svg>
