<svg xmlns="http://www.w3.org/2000/svg" width="61" height="26" viewBox="0 0 61 26"><path fill="rgba(59,60,59,0.4)" d="M0 4.91h2.46l1.58 6.3h.15l1.51-6.3h2.48l-2.84 9.23v6.54H2.9v-6.25zm8.94 4.64c.58-.53 1.37-.8 2.35-.8.9 0 1.63.28 2.2.85.58.56.86 1.29.86 2.17v6.01c0 1-.28 1.78-.84 2.34a3.1 3.1 0 0 1-2.32.85c-.94 0-1.7-.29-2.27-.87a3.24 3.24 0 0 1-.85-2.36v-6.03c0-.9.29-1.62.87-2.16zm1.59 9.15c.15.17.37.26.66.26.29 0 .52-.09.7-.27.17-.18.26-.42.26-.74v-6.33a.8.8 0 0 0-.27-.62 1.04 1.04 0 0 0-.69-.23.94.94 0 0 0-.65.23.85.85 0 0 0-.25.62v6.33c0 .33.08.57.24.75zm11.84-9.65v11.63h-2.16V19.4c-.4.47-.82.83-1.25 1.08a2.6 2.6 0 0 1-1.26.37c-.5 0-.87-.17-1.13-.52a2.68 2.68 0 0 1-.38-1.56V9.05h2.17v8.91c0 .28.04.48.13.6.09.13.24.19.44.19.16 0 .36-.08.61-.25.24-.16.46-.37.67-.62V9.05zm32.23 2.04c.15.21.22.56.22 1.04v1.01h-1.91v-1.01c0-.48.07-.83.22-1.04.15-.22.4-.32.74-.32.34 0 .58.1.73.32zm-8.01-.06c.15.21.23.5.23.9v5.83c0 .38-.06.64-.19.81-.12.16-.32.24-.58.24a1.2 1.2 0 0 1-.53-.12 2.18 2.18 0 0 1-.51-.41V11.2c.15-.16.3-.28.45-.36.15-.07.3-.11.45-.11.3 0 .52.1.68.3zM60 13c.01 2.23-.07 4.45-.24 6.68a5.12 5.12 0 0 1-5.15 5.08c-4.06.17-8.22.25-12.45.24-4.24.01-8.4-.07-12.46-.24a5.12 5.12 0 0 1-5.15-5.08 82.83 82.83 0 0 1-.24-6.68c-.01-2.22.07-4.45.24-6.67a5.12 5.12 0 0 1 5.15-5.09c4.06-.17 8.22-.25 12.46-.24 4.23-.01 8.39.07 12.45.24a5.12 5.12 0 0 1 5.15 5.09c.17 2.22.25 4.45.24 6.67zM32.04 7.18h2.52V4.72h-7.48v2.46h2.52v13.48h2.44zm8.67 1.68h-2.16v8.83c-.21.25-.43.46-.67.62-.25.17-.45.25-.61.25-.2 0-.35-.06-.44-.19-.09-.12-.13-.32-.13-.59V8.86h-2.17v9.89c0 .69.13 1.21.38 1.56.26.34.63.52 1.13.52.41 0 .83-.13 1.26-.37a4.9 4.9 0 0 0 1.25-1.08v1.28h2.16zm8.34 2.77c0-.95-.18-1.68-.55-2.17-.36-.5-.88-.75-1.57-.75-.33 0-.66.09-.99.28-.33.18-.64.45-.93.81V4.72h-2.19v15.94h2.19v-.9a2.49 2.49 0 0 0 2.06 1.05c.64 0 1.13-.22 1.47-.66.34-.44.51-1.07.51-1.9zm8 .36c0-1.11-.27-1.95-.8-2.54-.53-.59-1.29-.89-2.28-.89-.97 0-1.76.32-2.37.96a3.42 3.42 0 0 0-.92 2.47v5.39c0 1.12.28 1.99.84 2.63.55.64 1.32.96 2.28.96 1.08 0 1.89-.3 2.44-.9.54-.6.81-1.5.81-2.7v-1.04h-2.23v.81c0 .69-.07 1.13-.21 1.33-.15.2-.4.3-.76.3-.34 0-.59-.12-.73-.36a2.68 2.68 0 0 1-.21-1.27v-2.02h4.14z"/></svg>