<svg xmlns="http://www.w3.org/2000/svg" width="35" height="35" viewBox="0 0 35 35"><path fill="rgba(255,255,255,.4)" d="M31.5 0h-28A3.5 3.5 0 0 0 0 3.5v28C0 33.42 1.57 35 3.5 35h28c1.93 0 3.5-1.58 3.5-3.5v-28A3.5 3.5 0 0 0 31.5 0zm-14 10.5c3.85 0 7 3.15 7 7s-3.15 7-7 7-7-3.15-7-7 3.15-7 7-7zm-13.13 21c-.52 0-.87-.35-.87-.88V15.75h3.68C7 16.27 7 16.97 7 17.5 7 23.27 11.73 28 17.5 28S28 23.27 28 17.5c0-.53 0-1.23-.18-1.75h3.68v14.87c0 .53-.35.88-.88.88zM31.5 7.87c0 .53-.35.88-.88.88h-3.5c-.52 0-.87-.35-.87-.88v-3.5c0-.52.35-.87.88-.87h3.5c.52 0 .87.35.87.87z"/></svg>