<?xml version="1.0" encoding="UTF-8"?>
<svg viewBox="0 0 45.875 13.03" xmlns="http://www.w3.org/2000/svg">
    <metadata>
        <x:xmpmeta x:xmptk="Adobe XMP Core 5.6-c138 79.159824, 2016/09/14-01:09:01        " xmlns:x="adobe:ns:meta/">
            <rdf:RDF xmlns:rdf="http://www.w3.org/1999/02/22-rdf-syntax-ns#">
                <rdf:Description rdf:about=""/>
            </rdf:RDF>
        </x:xmpmeta>
    </metadata>
    <defs>
        <style>.cls-1 {
            fill: #fff;
            fill-rule: evenodd;
            opacity: 0.6;
            }</style>
    </defs>
    <path class="cls-1" transform="translate(-932 -1620.2)" d="M932,1633.04c0.738,0.07,2.413.1,3.619,0.1,2.737,0,4.79-1.24,4.79-3.88a2.89,2.89,0,0,0-1.8-2.89v-0.03a3.1,3.1,0,0,0,1.441-2.81c0-1.75-1.225-3.13-4.232-3.13-1.368,0-3.115.07-3.817,0.1v12.54Zm4-5.06c0.937,0,1.531.34,1.531,1.13,0,0.85-.558,1.33-1.675,1.33a3.526,3.526,0,0,1-.972-0.1v-2.36h1.116Zm-0.216-4.88a1.233,1.233,0,0,1,1.387,1.13,1.152,1.152,0,0,1-1.333,1.23h-0.954v-2.29A6.369,6.369,0,0,1,935.777,1623.1Zm7.325,9.97h8.012v-2.7h-5.131v-9.9H943.1v12.6Zm8.478-6.3c0,4.02,2.863,6.52,6.7,6.52a6.4,6.4,0,0,0,6.7-6.52c0-4.01-2.863-6.52-6.7-6.52A6.39,6.39,0,0,0,951.58,1626.77Zm3.061,0a3.641,3.641,0,1,1,7.274,0,3.5,3.5,0,0,1-3.637,3.82A3.7,3.7,0,0,1,954.641,1626.77Zm17.857,1.82h2.682v1.37a3.62,3.62,0,0,1-1.98.63,3.544,3.544,0,0,1-3.727-3.82,3.457,3.457,0,0,1,3.673-3.82,3.857,3.857,0,0,1,2.574.94l1.207-2.32a6.564,6.564,0,0,0-10.515,5.2c0,3.93,2.43,6.52,6.752,6.52a7.3,7.3,0,0,0,4.717-1.78v-5.62H972.5v2.7Z"/>
</svg>
