<?xml version="1.0" encoding="iso-8859-1"?>
<!-- Generator: Adobe Illustrator 19.0.0, SVG Export Plug-In . SVG Version: 6.00 Build 0)  -->
<svg version="1.1" id="Capa_1" xmlns="http://www.w3.org/2000/svg" xmlns:xlink="http://www.w3.org/1999/xlink" x="0px" y="0px"
	 viewBox="0 0 480 480" style="enable-background:new 0 0 480 480;" xml:space="preserve">
<g>
	<g>
		<path d="M100.224,44.022c-0.742-0.003-1.484,0.024-2.224,0.08C87.029,27.558,64.723,23.04,48.179,34.012
			c-1.793,1.189-3.475,2.536-5.027,4.026C26.587,31.879,8.165,40.314,2.006,56.879C0.68,60.445,0.001,64.218,0,68.022
			c0,17.673,14.327,32,32,32h68c15.464,0.062,28.05-12.424,28.112-27.888S115.688,44.084,100.224,44.022z M104.229,83.347
			c-1.358,0.477-2.79,0.705-4.229,0.675H32c-8.837,0-16-7.163-16-16s7.163-16,16-16c3.106,0.006,6.143,0.921,8.736,2.632
			c3.612,2.364,8.447,1.436,10.928-2.096c6.353-9.036,18.828-11.21,27.864-4.857c3.047,2.143,5.436,5.094,6.896,8.521
			c1.622,3.827,5.906,5.774,9.856,4.48c6.253-2.195,13.102,1.095,15.297,7.348S110.482,81.152,104.229,83.347z"/>
	</g>
</g>
<g>
	<g>
		<path d="M438.627,131.922c-4.418-12.497-18.131-19.046-30.627-14.627s-19.046,18.131-14.627,30.627
			c2.416,6.835,7.793,12.211,14.627,14.627v105.472h-24v-48c0-4.418-3.582-8-8-8H248V194.55
			c12.497-4.418,19.046-18.131,14.627-30.627S244.497,144.876,232,149.295s-19.046,18.131-14.627,30.627
			c2.416,6.835,7.793,12.211,14.627,14.627v17.472H104c-4.418,0-8,3.582-8,8v48H72V154.55c12.497-4.418,19.046-18.131,14.627-30.627
			S68.497,104.876,56,109.295c-12.497,4.418-19.046,18.131-14.627,30.627c2.416,6.835,7.793,12.211,14.627,14.627v121.472
			c0,4.418,3.582,8,8,8h32v87.008l-23.76,95.048c-1.074,4.286,1.53,8.631,5.816,9.704c0.636,0.159,1.289,0.24,1.944,0.24h320
			c4.418,0,8-3.582,8-8c0-0.655-0.081-1.308-0.24-1.944L384,371.03v-87.008h32c4.418,0,8-3.582,8-8V162.55
			C436.497,158.131,443.046,144.419,438.627,131.922z M64,140.022c-4.418,0-8-3.582-8-8s3.582-8,8-8s8,3.582,8,8
			S68.418,140.022,64,140.022z M240,164.022c4.418,0,8,3.582,8,8s-3.582,8-8,8s-8-3.582-8-8S235.582,164.022,240,164.022z
			 M112,228.022h256v136H112V228.022z M389.752,460.022H90.248l20-80h259.504L389.752,460.022z M416,148.022c-4.418,0-8-3.582-8-8
			s3.582-8,8-8s8,3.582,8,8S420.418,148.022,416,148.022z"/>
	</g>
</g>
<g>
	<g>
		<path d="M344,244.022h-24v16h16v24h16v-32C352,247.603,348.418,244.022,344,244.022z"/>
	</g>
</g>
<g>
	<g>
		<path d="M144,332.022v-24h-16v32c0,4.418,3.582,8,8,8h48v-16H144z"/>
	</g>
</g>
<g>
	<g>
		<rect x="128" y="396.022" width="24" height="16"/>
	</g>
</g>
<g>
	<g>
		<rect x="168" y="396.022" width="24" height="16"/>
	</g>
</g>
<g>
	<g>
		<rect x="208" y="396.022" width="24" height="16"/>
	</g>
</g>
<g>
	<g>
		<rect x="248" y="396.022" width="24" height="16"/>
	</g>
</g>
<g>
	<g>
		<rect x="288" y="396.022" width="24" height="16"/>
	</g>
</g>
<g>
	<g>
		<rect x="328" y="396.022" width="24" height="16"/>
	</g>
</g>
<g>
	<g>
		<rect x="128" y="428.022" width="24" height="16"/>
	</g>
</g>
<g>
	<g>
		<rect x="168" y="428.022" width="24" height="16"/>
	</g>
</g>
<g>
	<g>
		<rect x="208" y="428.022" width="24" height="16"/>
	</g>
</g>
<g>
	<g>
		<rect x="248" y="428.022" width="24" height="16"/>
	</g>
</g>
<g>
	<g>
		<rect x="288" y="428.022" width="24" height="16"/>
	</g>
</g>
<g>
	<g>
		<rect x="328" y="428.022" width="24" height="16"/>
	</g>
</g>
<g>
	<g>
		<path d="M292.4,19.958l0.04-0.056c-31.737-21.231-73.143-21.231-104.88,0v0.056c-2.231,1.457-3.583,3.935-3.6,6.6v32
			c0,2.674,1.335,5.172,3.56,6.656C203.052,75.6,221.316,81.143,240,81.142c18.671-0.007,36.92-5.55,52.44-15.928
			c2.225-1.484,3.56-3.982,3.56-6.656v-32C295.983,23.893,294.631,21.415,292.4,19.958z M271.04,26.558
			c-19.803,8.584-42.277,8.584-62.08,0C228.763,17.974,251.237,17.974,271.04,26.558z M280,54.142
			c-24.655,14.648-55.345,14.648-80,0v-13.92c25.342,11.888,54.658,11.888,80,0V54.142z"/>
	</g>
</g>
<g>
	<g>
		<path d="M291.776,78.422c-2.603-1.393-5.761-1.239-8.216,0.4c-26.361,17.639-60.759,17.639-87.12,0
			c-3.675-2.452-8.643-1.461-11.095,2.215c-0.879,1.317-1.347,2.866-1.345,4.449v32c0,2.674,1.335,5.172,3.56,6.656
			c31.735,21.237,73.145,21.237,104.88,0c2.225-1.484,3.56-3.982,3.56-6.656v-32C296.004,82.532,294.38,79.816,291.776,78.422z
			 M280,113.07c-24.653,14.655-55.347,14.655-80,0V99.158c25.342,11.888,54.658,11.888,80,0V113.07z"/>
	</g>
</g>
<g>
	<g>
		<path d="M472,28.022H344c-4.418,0-8,3.582-8,8v64c0,4.418,3.582,8,8,8h128c4.418,0,8-3.582,8-8v-64
			C480,31.603,476.418,28.022,472,28.022z M464,92.022H352v-48h112V92.022z"/>
	</g>
</g>
<g>
	<g>
		<rect x="432" y="60.022" width="16" height="16"/>
	</g>
</g>
<g>
	<g>
		<rect x="368" y="60.022" width="48" height="16"/>
	</g>
</g>
<g>
</g>
<g>
</g>
<g>
</g>
<g>
</g>
<g>
</g>
<g>
</g>
<g>
</g>
<g>
</g>
<g>
</g>
<g>
</g>
<g>
</g>
<g>
</g>
<g>
</g>
<g>
</g>
<g>
</g>
</svg>
