<svg width="512" height="507" viewBox="0 0 512 507" fill="none" xmlns="http://www.w3.org/2000/svg">
<path d="M279.315 294.519C273.606 291.364 267.578 288.876 261.561 286.392C260.793 286.074 260.025 285.757 259.257 285.439C255.327 283.812 251.566 281.915 248.246 279.272C241.707 274.055 242.961 265.585 250.618 262.23C252.786 261.282 255.056 260.977 257.36 260.841C266.237 260.367 274.673 261.993 282.703 265.856C286.701 267.787 288.022 267.177 289.377 263.01C290.286 260.197 291.098 257.357 291.91 254.516C292.37 252.907 292.83 251.299 293.307 249.695C294.188 246.713 293.104 244.748 290.292 243.494C285.142 241.224 279.857 239.598 274.3 238.717C267.05 237.599 267.05 237.565 267.016 230.281V230.281C266.999 225.154 266.991 222.587 265.703 221.303C264.413 220.015 261.838 220.015 256.682 220.015C256.185 220.015 255.688 220.011 255.192 220.008C254.198 220 253.204 219.992 252.21 220.015C247.399 220.151 246.586 220.998 246.45 225.843C246.412 227.081 246.417 228.319 246.423 229.564C246.427 230.498 246.431 231.437 246.416 232.382C246.383 238.707 246.35 238.719 240.499 240.839C240.395 240.876 240.29 240.914 240.182 240.953C225.275 246.374 216.059 256.538 215.077 272.801C214.196 287.201 221.717 296.924 233.542 304.005C238.51 306.986 243.841 309.132 249.179 311.281C251.668 312.282 254.158 313.285 256.615 314.373C259.63 315.694 262.51 317.219 265.017 319.319C272.437 325.452 271.082 335.65 262.273 339.512C257.563 341.579 252.583 342.087 247.467 341.444C239.573 340.461 232.017 338.394 224.902 334.701C220.735 332.533 219.515 333.109 218.092 337.615C216.872 341.511 215.788 345.442 214.704 349.372C213.247 354.657 213.789 355.911 218.837 358.384C225.275 361.501 232.153 363.093 239.166 364.211C244.655 365.092 244.824 365.33 244.892 371.021C244.909 372.309 244.917 373.605 244.926 374.901C244.934 376.197 244.943 377.493 244.96 378.78C244.993 382.033 246.552 383.93 249.906 383.998C253.701 384.066 257.529 384.066 261.324 383.964C264.441 383.896 266.033 382.202 266.033 379.051C266.033 377.794 266.055 376.533 266.077 375.27C266.115 372.993 266.154 370.713 266.067 368.447C265.898 364.855 267.456 363.026 270.912 362.077C278.874 359.909 285.65 355.64 290.868 349.27C305.369 331.652 299.846 305.869 279.315 294.519Z" fill="black"/>
<path d="M279.315 294.519C273.606 291.364 267.578 288.876 261.561 286.392C260.793 286.074 260.025 285.757 259.257 285.439C255.327 283.812 251.566 281.915 248.246 279.272C241.707 274.055 242.961 265.585 250.618 262.23C252.786 261.282 255.056 260.977 257.36 260.841C266.237 260.367 274.673 261.993 282.703 265.856C286.701 267.787 288.022 267.177 289.377 263.01C290.286 260.197 291.098 257.357 291.91 254.516C292.37 252.907 292.83 251.299 293.307 249.695C294.188 246.713 293.104 244.748 290.292 243.494C285.142 241.224 279.857 239.598 274.3 238.717C267.05 237.599 267.05 237.565 267.016 230.281V230.281C266.999 225.154 266.991 222.587 265.703 221.303C264.413 220.015 261.838 220.015 256.682 220.015C256.185 220.015 255.688 220.011 255.192 220.008C254.198 220 253.204 219.992 252.21 220.015C247.399 220.151 246.586 220.998 246.45 225.843C246.412 227.081 246.417 228.319 246.423 229.564C246.427 230.498 246.431 231.437 246.416 232.382C246.383 238.707 246.35 238.719 240.499 240.839C240.395 240.876 240.29 240.914 240.182 240.953C225.275 246.374 216.059 256.538 215.077 272.801C214.196 287.201 221.717 296.924 233.542 304.005C238.51 306.986 243.841 309.132 249.179 311.281C251.668 312.282 254.158 313.285 256.615 314.373C259.63 315.694 262.51 317.219 265.017 319.319C272.437 325.452 271.082 335.65 262.273 339.512C257.563 341.579 252.583 342.087 247.467 341.444C239.573 340.461 232.017 338.394 224.902 334.701C220.735 332.533 219.515 333.109 218.092 337.615C216.872 341.511 215.788 345.442 214.704 349.372C213.247 354.657 213.789 355.911 218.837 358.384C225.275 361.501 232.153 363.093 239.166 364.211C244.655 365.092 244.824 365.33 244.892 371.021C244.909 372.309 244.917 373.605 244.926 374.901C244.934 376.197 244.943 377.493 244.96 378.78C244.993 382.033 246.552 383.93 249.906 383.998C253.701 384.066 257.529 384.066 261.324 383.964C264.441 383.896 266.033 382.202 266.033 379.051C266.033 377.794 266.055 376.533 266.077 375.27C266.115 372.993 266.154 370.713 266.067 368.447C265.898 364.855 267.456 363.026 270.912 362.077C278.874 359.909 285.65 355.64 290.868 349.27C305.369 331.652 299.846 305.869 279.315 294.519Z" stroke="black"/>
<path d="M511.996 499.136V508.935H367.462V499.136C367.124 468.697 391.526 443.747 421.965 443.408C422.171 443.406 422.376 443.404 422.581 443.404H456.877C487.319 443.402 511.998 468.079 511.999 498.519C512 498.726 511.999 498.931 511.996 499.136Z" fill="#000202"/>
<path d="M439.729 339.903C460.023 339.903 476.475 356.355 476.475 376.649C476.475 396.943 460.023 413.395 439.729 413.395C419.436 413.395 402.983 396.943 402.983 376.649C402.983 356.355 419.436 339.903 439.729 339.903Z" fill="#000202"/>
<path d="M328.268 162.298V172.097H183.734V162.298C183.395 131.859 207.797 106.909 238.237 106.57C238.442 106.568 238.647 106.567 238.852 106.567H273.148C303.59 106.564 328.269 131.241 328.27 161.683C328.271 161.888 328.27 162.093 328.268 162.298Z" fill="#000202"/>
<path d="M256.001 3.0654C276.294 3.0654 292.747 19.5177 292.747 39.8114C292.747 60.1051 276.294 76.5574 256.001 76.5574C235.707 76.5574 219.255 60.1063 219.255 39.8114C219.255 19.5165 235.706 3.0654 256.001 3.0654Z" fill="#000202"/>
<path d="M144.538 499.136V508.935H0.00351563V499.136C-0.33526 468.697 24.0671 443.747 54.5065 443.408C54.7117 443.406 54.9168 443.404 55.1219 443.404H89.418C119.86 443.402 144.539 468.079 144.54 498.519C144.541 498.726 144.54 498.931 144.538 499.136Z" fill="#000202"/>
<path d="M72.2705 339.903C92.5643 339.903 109.017 356.355 109.017 376.649C109.017 396.943 92.5654 413.395 72.2705 413.395C51.9757 413.395 35.5245 396.943 35.5245 376.649C35.5245 356.355 51.9768 339.903 72.2705 339.903Z" fill="#000202"/>
<path d="M56.96 301.932C50.195 301.932 44.7113 296.448 44.7113 289.684C44.6246 225.613 73.6995 164.984 123.715 124.939C129.355 121.203 136.956 122.748 140.69 128.388C143.94 133.295 143.241 139.818 139.026 143.924C94.8513 179.407 69.17 233.022 69.2087 289.684C69.2087 296.448 63.725 301.932 56.96 301.932Z" fill="#37C6F9"/>
<path d="M256.001 500.973C233.294 500.995 210.739 497.271 189.245 489.949C183.116 488.017 179.713 481.482 181.645 475.354C181.721 475.112 181.804 474.874 181.895 474.639C183.946 468.23 190.782 464.675 197.206 466.677C235.769 479.519 277.455 479.519 316.018 466.677C322.267 464.616 329.027 467.862 331.328 474.025C333.37 480.609 329.86 487.633 323.367 489.949C301.677 497.327 278.912 501.052 256.001 500.973Z" fill="#37C6F9"/>
<path d="M455.041 301.932C448.276 301.932 442.792 296.449 442.792 289.684C442.877 229.016 413.396 172.112 363.789 137.188C358.208 133.298 356.837 125.62 360.727 120.039C364.616 114.458 372.294 113.088 377.875 116.977C433.819 156.731 467.121 221.054 467.291 289.684C467.29 296.449 461.805 301.932 455.041 301.932Z" fill="#37C6F9"/>
</svg>
