<?xml version="1.0" encoding="utf-8"?>
<!-- Generator: Adobe Illustrator 17.1.0, SVG Export Plug-In . SVG Version: 6.00 Build 0)  -->
<!DOCTYPE svg PUBLIC "-//W3C//DTD SVG 1.1//EN" "http://www.w3.org/Graphics/SVG/1.1/DTD/svg11.dtd">
<svg version="1.1"
	 id="Layer_1" xmlns:dc="http://purl.org/dc/elements/1.1/" xmlns:svg="http://www.w3.org/2000/svg" xmlns:cc="http://creativecommons.org/ns#" xmlns:rdf="http://www.w3.org/1999/02/22-rdf-syntax-ns#"
	 xmlns="http://www.w3.org/2000/svg" xmlns:xlink="http://www.w3.org/1999/xlink" x="0px" y="0px" viewBox="0 0 695 185"
	 enable-background="new 0 0 695 185" xml:space="preserve">
<polygon id="polygon30" points="188.7,55.4 232,112.4 232,55.4 240.7,55.4 240.7,126.2 231.6,126.2 188.2,68.7 188.2,126.2 
	179.6,126.2 179.6,55.4 "/>
<path id="path32" d="M311,123.4c-5.7,2.2-11.9,3.3-18.5,3.3c-25.6,0-38.5-12.3-38.5-36.9c0-23.3,12.4-34.9,37.1-34.9
	c7.1,0,13.7,1,19.8,3v7.9c-6.1-2.3-12.4-3.5-18.8-3.5c-19.3,0-29,9.2-29,27.5c0,19.6,9.5,29.5,28.5,29.5c3,0,6.4-0.4,10.1-1.2V94
	h9.2L311,123.4C311,123.4,311,123.4,311,123.4z"/>
<path id="path34" d="M325.6,98.9V55.4h9.2v43.5c0,13.6,6.8,20.4,20.3,20.4c13.5,0,20.3-6.8,20.3-20.4V55.4h9.2v43.5
	c0,18.6-9.8,27.8-29.5,27.8C335.4,126.7,325.6,117.4,325.6,98.9L325.6,98.9z"/>
<polygon id="polygon36" points="447.1,118.8 447.1,126.2 400.9,126.2 400.9,55.4 410,55.4 410,118.8 "/>
<polygon id="polygon38" points="486,46.1 521.2,126.2 511,126.2 501.9,103.9 478.5,103.9 481,96.5 498.8,96.5 485.6,64.4 
	460.3,126.2 450.8,126.2 "/>
<path id="path40" d="M530.8,126.2V55.4H561c13.5,0,20.2,5.7,20.2,17c0,9.2-6.6,16-19.7,20.4l24.3,33.4h-12.1l-22.5-31.8v-6
	c13.5-2.2,20.3-7.3,20.3-15.6c0-6.5-3.8-9.8-11.3-9.8H540v63.2H530.8z"/>
<path id="path42" fill="#A6120D" d="M620.1,55.4v50.4c0,13.6-8,20.4-24,20.4v-7.4c9.9,0,14.9-4.3,14.9-13V55.4H620.1z"/>
<path id="path44" fill="#A6120D" d="M636.5,123.7v-8.4c7.4,2.6,15.4,4,24.1,4c12.2,0,18.3-4.5,18.3-13.4c0-7.6-4.5-11.4-13.5-11.4
	h-9.1c-14.8,0-22.2-6.4-22.2-19.3c0-13.5,9.5-20.3,28.5-20.3c8.2,0,15.9,1,23,3v8.4c-7.1-2.6-14.8-4-23-4
	c-12.9,0-19.3,4.3-19.3,12.9c0,7.6,4.4,11.4,13.1,11.4h9.1c15.1,0,22.6,6.4,22.6,19.3c0,13.9-9.1,20.8-27.4,20.8
	C651.9,126.7,643.9,125.7,636.5,123.7L636.5,123.7z"/>
<g id="g48">
	<polygon id="polygon50" fill="#B3B3B3" points="13.6,138.3 83.3,176.6 153.4,137.8 166.5,29.5 83.2,0.9 0.6,30 	"/>
	<polygon id="polygon52" fill="#A6120D" points="83.1,167.5 146,132.6 158.2,35.7 83.1,10.1 	"/>
	<polygon id="polygon54" fill="#DD1B16" points="83,167.5 83,10.1 9.8,36.2 21,133.1 	"/>
	<path id="path56" fill="#F2F2F2" d="M103.7,93.9L83,103.5H61.2L51,129.2l-19.1,0.4L83.1,15.8L103.7,93.9z M101.7,89L83.2,52.3
		L68,88.4H83L101.7,89z"/>
	<polygon id="polygon58" fill="#B3B3B3" points="100.5,88.4 83.1,88.4 83,103.5 107.1,103.5 118.3,129.5 136.5,129.9 83,15.8 
		83.2,52.3 	"/>
</g>
</svg>
