<?xml version="1.0" encoding="utf-8"?>
<!-- Generator: Adobe Illustrator 16.2.0, SVG Export Plug-In . SVG Version: 6.00 Build 0)  -->
<!DOCTYPE svg PUBLIC "-//W3C//DTD SVG 1.1//EN" "http://www.w3.org/Graphics/SVG/1.1/DTD/svg11.dtd">
<svg version="1.1" xmlns="http://www.w3.org/2000/svg" xmlns:xlink="http://www.w3.org/1999/xlink" x="0px" y="0px" width="660px"
	 height="520px" viewBox="0 0 660 520" enable-background="new 0 0 660 520" xml:space="preserve">
<g id="Слой_2">
	<path fill-rule="evenodd" clip-rule="evenodd" fill="#1F1823" d="M649,507.06934c0,1.06641-0.87012,1.93066-1.94238,1.93066
		H12.81787C11.74512,509,11,508.13574,11,507.06934V12.93018C11,11.86426,11.74512,11,12.81787,11h634.23975
		C648.12988,11,649,11.86426,649,12.93018V507.06934z"/>
	<path fill-rule="evenodd" clip-rule="evenodd" d="M364,468.76758C364,469.8623,363.10449,471,362,471H174
		c-1.10449,0-2-1.1377-2-2.23242V329.98242C172,328.8877,172.89551,328,174,328h188c1.10449,0,2,0.8877,2,1.98242V468.76758z"/>
	<path fill-rule="evenodd" clip-rule="evenodd" d="M467,179c0,1.10449-0.91113,2-2.03418,2h-54.93164
		C408.91113,181,408,180.10449,408,179V96c0-1.10449,0.91113-2,2.03418-2h54.93164C466.08887,94,467,94.89551,467,96V179z"/>
	<path fill-rule="evenodd" clip-rule="evenodd" d="M600,440c0,1.10449-0.89551,2-2,2H409c-1.10449,0-2-0.89551-2-2V201
		c0-1.10449,0.89551-2,2-2h189c1.10449,0,2,0.89551,2,2V440z"/>
	<path fill-rule="evenodd" clip-rule="evenodd" d="M364,291c0,1.10449-0.89551,2-2,2H174c-1.10449,0-2-0.89551-2-2V60
		c0-1.10449,0.89551-2,2-2h188c1.10449,0,2,0.89551,2,2V291z"/>
	<g>
		<path fill="#FFFFFF" d="M469,98c0-3.31348-2.68652-6-6-6h-51c-3.31348,0-6,2.68652-6,6v79c0,3.31348,2.68652,6,6,6h51
			c3.31348,0,6-2.68652,6-6V98z M467,177c0,2.20898-1.79102,4-4,4h-51c-2.20898,0-4-1.79102-4-4V98c0-2.20898,1.79102-4,4-4h51
			c2.20898,0,4,1.79102,4,4V177z"/>
		<path fill="#FFFFFF" d="M416.83105,173h40.21289c0.49316,0,0.95605-0.32617,0.95605-0.72852v-6.5459
			c0-0.40088-0.46289-0.72559-0.95605-0.72559h-40.21289C416.33789,165,416,165.32471,416,165.72559v6.5459
			C416,172.67383,416.33789,173,416.83105,173z"/>
		<path fill="#FFFFFF" d="M458,123c0-1.10449-0.89551-2-2-2h-38c-1.10449,0-2,0.89551-2,2v33c0,1.10449,0.89551,2,2,2h38
			c1.10449,0,2-0.89551,2-2V123z M456,155c0,0.55225-0.44727,1-1,1h-36c-0.55273,0-1-0.44775-1-1v-31c0-0.55225,0.44727-1,1-1h36
			c0.55273,0,1,0.44775,1,1V155z"/>
		<path fill="#FFFFFF" d="M416.72461,115h35.42578c0.43457,0,0.84961-0.16357,0.84961-0.36475v-3.27295
			c0-0.2002-0.41504-0.3623-0.84961-0.3623h-35.42578C416.29004,111,416,111.16211,416,111.3623v3.27295
			C416,114.83643,416.29004,115,416.72461,115z"/>
		<path fill="#FFFFFF" d="M431.64844,145.26953c-0.51465-0.42725-0.96875-0.9248-1.35352-1.47461l-10.00195,8.43945l1.28906,1.52881
			L431.64844,145.26953z"/>
		<path fill="#FFFFFF" d="M431.64844,133.72803l-10.06641-8.49365l-1.28906,1.52881l10.00195,8.43994
			C430.67969,134.65381,431.13379,134.15625,431.64844,133.72803z"/>
		<path fill="#FFFFFF" d="M453.58203,152.23438l-10.6543-8.98926c-0.33594,0.58203-0.74512,1.11719-1.2207,1.5874l10.58594,8.93066
			L453.58203,152.23438z"/>
		<path fill="#FFFFFF" d="M416.55469,107h27.76563c0.34082,0,0.67969-0.16309,0.67969-0.36426v-3.27295
			c0-0.20117-0.33887-0.36279-0.67969-0.36279h-27.76563C416.21387,103,416,103.16162,416,103.36279v3.27295
			C416,106.83691,416.21387,107,416.55469,107z"/>
		<path fill="#FFFFFF" d="M453.58203,126.76318l-1.28906-1.52881l-10.58594,8.93115c0.47559,0.46973,0.88477,1.00488,1.2207,1.5874
			L453.58203,126.76318z"/>
		<path fill="#FFFFFF" d="M604.03027,63h-84.18652c-0.5,0-0.84375,0.22314-0.84375,0.49951v1
			C519,64.77588,519.34375,65,519.84375,65h84.18652C604.53125,65,605,64.77588,605,64.49951v-1
			C605,63.22314,604.53125,63,604.03027,63z"/>
		<path fill="#FFFFFF" d="M581,52c0-0.55225-0.44727-1-1-1h-60c-0.55273,0-1,0.44775-1,1v3c0,0.55225,0.44727,1,1,1h60
			c0.55273,0,1-0.44775,1-1V52z"/>
		<path fill="#FFFFFF" d="M501.33691,174.91406l-5.75293-5.93115l0.10059-0.10107l1.30859,1.26123
			c12.2002,0.01563,24.38867-4.73242,33.52637-14.21143c15.75781-16.34717,17.14648-41.24268,4.47949-59.11133l-1.87012,0.81641
			c12.37891,17.12256,11.13086,41.15967-4.04883,56.90723c-8.88379,9.21436-20.7793,13.74609-32.63965,13.5835l4.98535-4.97998
			l-1.08789-1.12305l-6.94824,6.94141l6.84277,7.05371L501.33691,174.91406z"/>
		<path fill="#FFFFFF" d="M519.84375,77h77.18652C597.53125,77,598,76.77588,598,76.49951v-1
			C598,75.22314,597.53125,75,597.03027,75h-77.18652c-0.5,0-0.84375,0.22314-0.84375,0.49951v1
			C519,76.77588,519.34375,77,519.84375,77z"/>
		<path fill="#FFFFFF" d="M520,83h40.87012C561.45703,83,562,82.77539,562,82.49951v-1C562,81.22314,561.45703,81,560.87012,81H520
			c-0.58691,0-1,0.22314-1,0.49951v1C519,82.77539,519.41309,83,520,83z"/>
		<path fill="#FFFFFF" d="M520,71h74.87012C595.45703,71,596,70.77588,596,70.49951v-1C596,69.22314,595.45703,69,594.87012,69H520
			c-0.58691,0-1,0.22314-1,0.49951v1C519,70.77588,519.41309,71,520,71z"/>
		<path fill="#FFFFFF" d="M601,203c0-3.31348-2.68652-6-6-6H411c-3.31348,0-6,2.68652-6,6v235c0,3.31348,2.68652,6,6,6h184
			c3.31348,0,6-2.68652,6-6V203z M599,438c0,2.20898-1.85352,4-4.0625,4c0,0-44.45703,0-89.66699,0
			c-46.76465,0-94.33301,0-94.33301,0c-2.20898,0-3.9375-1.79102-3.9375-4V265h192V438z M599,263h-28.0625l-26.5-51.00244
			l-18.35742,35.33008l-9.64258-15.32959L496.93652,263H407v-60.00049c0-2.20898,1.72852-3.99951,3.9375-3.99951h184
			c2.20898,0,4.0625,1.79053,4.0625,3.99951V263z"/>
		<path fill="#FFFFFF" d="M440.70703,405.83301l10.58594,8.93066l1.28906-1.52832l-10.6543-8.98926
			C441.5918,404.82813,441.18359,405.36328,440.70703,405.83301z"/>
		<path fill="#FFFFFF" d="M440.70703,395.16602c0.47559,0.46973,0.88477,1.00586,1.2207,1.58789l10.6543-8.99023l-1.28906-1.5293
			L440.70703,395.16602z"/>
		<path fill="#FFFFFF" d="M429.29492,404.79492l-10.00195,8.44043l1.28906,1.52832l10.06641-8.49316
			C430.13379,405.84277,429.67969,405.34473,429.29492,404.79492z"/>
		<path fill="#FFFFFF" d="M434.62012,429h-19.36523c-0.1748,0-0.25488,0.37305-0.25488,0.83301v3.33301
			c0,0.45996,0.08008,0.83398,0.25488,0.83398h19.36523c0.1748,0,0.37988-0.37402,0.37988-0.83398v-3.33301
			C435,429.37305,434.79492,429,434.62012,429z"/>
		<path fill="#FFFFFF" d="M419.29297,387.76367l10.00195,8.43945c0.38477-0.54883,0.83887-1.04688,1.35352-1.47461
			l-10.06641-8.49414L419.29297,387.76367z"/>
		<path fill="#FFFFFF" d="M477.77441,278h34.3252C512.5625,278,513,277.55176,513,277v-2c0-0.55273-0.4375-1-0.90039-1h-34.3252
			C477.3125,274,477,274.44727,477,275v2C477,277.55176,477.3125,278,477.77441,278z"/>
		<path fill="#FFFFFF" d="M454.9375,382h-38c-1.10449,0-1.9375,0.89453-1.9375,2v33c0,1.10352,0.83301,2,1.9375,2h38
			c1.10449,0,2.0625-0.89648,2.0625-2v-33C457,382.89453,456.04199,382,454.9375,382z M455,416c0,0.55273-0.44727,1-1,1h-36
			c-0.55273,0-1-0.44727-1-1v-31c0-0.55273,0.44727-1,1-1h36c0.55273,0,1,0.44727,1,1V416z"/>
		<path fill="#FFFFFF" d="M447.73535,331.63379l12.66602,14.77734c0.3623-0.57715,0.91504-1.01563,1.57227-1.23926
			l-12.70703-14.82422C448.79492,330.81836,448.27734,331.24219,447.73535,331.63379z"/>
		<path fill="#FFFFFF" d="M414.84375,278h37.18652c0.50098,0,0.96973-0.44824,0.96973-1v-2c0-0.55273-0.46875-1-0.96973-1h-37.18652
			c-0.5,0-0.84375,0.44727-0.84375,1v2C414,277.55176,414.34375,278,414.84375,278z"/>
		<path fill="#FFFFFF" d="M415,285h31.875c0.58691,0,1.125-0.44824,1.125-1v-2c0-0.55273-0.53809-1-1.125-1H415
			c-0.58691,0-1,0.44727-1,1v2C414,284.55176,414.41309,285,415,285z"/>
		<path fill="#FFFFFF" d="M557.06836,329.75586l-12.46387,14.45801c0.65137,0.23145,1.20898,0.64551,1.61816,1.18652
			l12.2793-14.24414C557.98438,330.73145,557.51172,330.25781,557.06836,329.75586z"/>
		<path fill="#FFFFFF" d="M431.06836,329.75586l-12.46387,14.45801c0.65137,0.23145,1.20898,0.64551,1.61816,1.18652
			l12.2793-14.24414C431.98438,330.73145,431.51172,330.25781,431.06836,329.75586z"/>
		<path fill="#FFFFFF" d="M496.05273,311.43066l-13.58008-15.84277c-0.3623,0.57813-0.91504,1.01563-1.57227,1.23926
			l13.63281,15.90527C495.00195,312.25586,495.51367,311.82617,496.05273,311.43066z"/>
		<path fill="#FFFFFF" d="M478.9375,351h48c1.10449,0,2.0625-0.89648,2.0625-2v-56c0-1.10547-0.95801-2-2.0625-2h-48
			c-1.10449,0-1.9375,0.89453-1.9375,2v56C477,350.10352,477.83301,351,478.9375,351z M527,348c0,0.55273-0.44727,1-1,1h-46
			c-0.55273,0-1-0.44727-1-1v-54c0-0.55273,0.44727-1,1-1h46c0.55273,0,1,0.44727,1,1V348z"/>
		<path fill="#FFFFFF" d="M478.4375,285h45c0.82813,0,1.5625-0.44824,1.5625-1v-2c0-0.55273-0.73438-1-1.5625-1h-45
			c-0.82813,0-1.4375,0.44727-1.4375,1v2C477,284.55176,477.60938,285,478.4375,285z"/>
		<path fill="#FFFFFF" d="M541.9375,351h48c1.10449,0,2.0625-0.89648,2.0625-2v-56c0-1.10547-0.95801-2-2.0625-2h-48
			c-1.10449,0-1.9375,0.89453-1.9375,2v56C540,350.10352,540.83301,351,541.9375,351z M590,348c0,0.55273-0.44727,1-1,1h-46
			c-0.55273,0-1-0.44727-1-1v-54c0-0.55273,0.44727-1,1-1h46c0.55273,0,1,0.44727,1,1V348z"/>
		<path fill="#FFFFFF" d="M559.05273,311.43066l-13.58008-15.84277c-0.3623,0.57813-0.91504,1.01563-1.57227,1.23926
			l13.63281,15.90527C558.00195,312.25586,558.51367,311.82617,559.05273,311.43066z"/>
		<path fill="#FFFFFF" d="M510.73535,331.63379l12.66602,14.77734c0.3623-0.57715,0.91504-1.01465,1.57227-1.23926
			l-12.70703-14.82422C511.79492,330.81836,511.27734,331.24219,510.73535,331.63379z"/>
		<path fill="#FFFFFF" d="M525.07031,296.85742c-0.66699-0.20313-1.24023-0.61719-1.62109-1.18359l-13.22266,15.33887
			c0.5625,0.36523,1.08887,0.77637,1.58398,1.22559L525.07031,296.85742z"/>
		<path fill="#FFFFFF" d="M494.06836,329.75586l-12.46387,14.45801c0.65137,0.23145,1.20898,0.64551,1.61816,1.18652
			l12.2793-14.24414C494.98438,330.73145,494.51172,330.25781,494.06836,329.75586z"/>
		<path fill="#FFFFFF" d="M573.73535,331.63379l12.66602,14.77734c0.3623-0.57715,0.91504-1.01563,1.57227-1.23926
			l-12.70703-14.82422C574.79492,330.81836,574.27734,331.24219,573.73535,331.63379z"/>
		<path fill="#FFFFFF" d="M433.05273,311.43066l-13.58008-15.84277c-0.3623,0.57813-0.91504,1.01563-1.57227,1.23926
			l13.63281,15.90527C432.00195,312.25586,432.51367,311.82617,433.05273,311.43066z"/>
		<path fill="#FFFFFF" d="M545.03027,397h-77.18652c-0.5,0-0.84375,0.22363-0.84375,0.5v1c0,0.27539,0.34375,0.5,0.84375,0.5
			h77.18652c0.50098,0,0.96973-0.22461,0.96973-0.5v-1C546,397.22363,545.53125,397,545.03027,397z"/>
		<path fill="#FFFFFF" d="M484.89355,222h-68.91211C415.4043,222,415,222.44727,415,222.99951v5
			c0,0.55225,0.4043,1.00049,0.98145,1.00049h68.91211c0.57617,0,1.10645-0.44824,1.10645-1.00049v-5
			C486,222.44727,485.46973,222,484.89355,222z"/>
		<path fill="#FFFFFF" d="M552.03027,385h-84.18652c-0.5,0-0.84375,0.22266-0.84375,0.5v1c0,0.27539,0.34375,0.5,0.84375,0.5
			h84.18652c0.50098,0,0.96973-0.22461,0.96973-0.5v-1C553,385.22266,552.53125,385,552.03027,385z"/>
		<path fill="#FFFFFF" d="M468,393h74.87012c0.58691,0,1.12988-0.22461,1.12988-0.5v-1c0-0.27734-0.54297-0.5-1.12988-0.5H468
			c-0.58691,0-1,0.22266-1,0.5v1C467,392.77539,467.41309,393,468,393z"/>
		<path fill="#FFFFFF" d="M468,405h40.87012c0.58691,0,1.12988-0.22461,1.12988-0.5v-1c0-0.27734-0.54297-0.5-1.12988-0.5H468
			c-0.58691,0-1,0.22266-1,0.5v1C467,404.77539,467.41309,405,468,405z"/>
		<path fill="#FFFFFF" d="M538.17773,413h-70.48047C467.27734,413,467,413.22266,467,413.5v1c0,0.27539,0.27734,0.5,0.69727,0.5
			h70.48047c0.41992,0,0.82227-0.22461,0.82227-0.5v-1C539,413.22266,538.59766,413,538.17773,413z"/>
		<path fill="#FFFFFF" d="M473.98438,237h-58.09473C415.36328,237,415,237.52197,415,238.16602v4.66699
			c0,0.64404,0.36328,1.16699,0.88965,1.16699h58.09473c0.52637,0,1.01563-0.52295,1.01563-1.16699v-4.66699
			C475,237.52197,474.51074,237,473.98438,237z"/>
		<path fill="#FFFFFF" d="M541.03027,278h44.81348c0.60449,0,1.15625-0.44824,1.15625-1v-2c0-0.55273-0.55176-1-1.15625-1h-44.81348
			C540.42676,274,540,274.44727,540,275v2C540,277.55176,540.42676,278,541.03027,278z"/>
		<path fill="#FFFFFF" d="M462.07031,296.85742c-0.66699-0.20313-1.24023-0.61719-1.62109-1.18359l-13.22266,15.33887
			c0.5625,0.36523,1.08887,0.77637,1.58398,1.22559L462.07031,296.85742z"/>
		<path fill="#FFFFFF" d="M588.07031,296.85742c-0.66699-0.20313-1.24023-0.61719-1.62109-1.18359l-13.22266,15.33887
			c0.5625,0.36523,1.08887,0.77637,1.58398,1.22559L588.07031,296.85742z"/>
		<path fill="#FFFFFF" d="M415.9375,351h48c1.10449,0,2.0625-0.89648,2.0625-2v-56c0-1.10547-0.95801-2-2.0625-2h-48
			c-1.10449,0-1.9375,0.89453-1.9375,2v56C414,350.10352,414.83301,351,415.9375,351z M464,348c0,0.55273-0.44727,1-1,1h-46
			c-0.55273,0-1-0.44727-1-1v-54c0-0.55273,0.44727-1,1-1h46c0.55273,0,1,0.44727,1,1V348z"/>
		<path fill="#FFFFFF" d="M540.75,285h24.375c0.44922,0,0.875-0.44824,0.875-1v-2c0-0.55273-0.42578-1-0.875-1H540.75
			c-0.44922,0-0.75,0.44727-0.75,1v2C540,284.55176,540.30078,285,540.75,285z"/>
		<path fill="#FFFFFF" d="M414.82227,373h83.27148c0.46582,0,0.90625-0.44922,0.90625-1v-4c0-0.55273-0.44043-1-0.90625-1h-83.27148
			C414.33398,367,414,367.38281,414,367.85645v4.28613C414,372.61523,414.33398,373,414.82227,373z"/>
		<path fill="#FFFFFF" d="M360,326H176c-3.31348,0-6,2.68652-6,6v135c0,3.31348,2.68652,6,6,6h184c3.31348,0,6-2.68652,6-6V332
			C366,328.68652,363.31348,326,360,326z M364,467c0,2.20898-1.79102,4-4,4H176c-2.20898,0-4-1.79102-4-4V332
			c0-2.20898,1.79102-4,4-4h184c2.20898,0,4,1.79102,4,4V467z"/>
		<path fill="#FFFFFF" d="M180.49609,356C180.1875,356,180,356.25488,180,356.57031v2.85742
			c0,0.31543,0.1875,0.57227,0.49609,0.57227h36.87598c0.30859,0,0.62793-0.25684,0.62793-0.57227v-2.85742
			c0-0.31543-0.31934-0.57031-0.62793-0.57031H180.49609z"/>
		<path fill="#FFFFFF" d="M284.14795,408h46.57275c0.66992,0,1.2793-0.22461,1.2793-0.5v-1c0-0.27734-0.60938-0.5-1.2793-0.5
			h-46.57275C283.47949,406,283,406.22266,283,406.5v1C283,407.77539,283.47949,408,284.14795,408z"/>
		<path fill="#FFFFFF" d="M181.04004,346h72.79395c0.60938,0,1.16602-0.44922,1.16602-1v-5c0-0.55273-0.55664-1-1.16602-1h-72.79395
			C180.43115,339,180,339.44727,180,340v5C180,345.55078,180.43115,346,181.04004,346z"/>
		<path fill="#FFFFFF" d="M283.5459,402h51.7832c0.33594,0,0.6709-0.22461,0.6709-0.5v-1c0-0.27637-0.33496-0.5-0.6709-0.5h-51.7832
			c-0.33594,0-0.5459,0.22363-0.5459,0.5v1C283,401.77539,283.20996,402,283.5459,402z"/>
		<path fill="#FFFFFF" d="M180.68701,420h49.4917c0.41406,0,0.82129-0.25684,0.82129-0.57227v-2.85742
			c0-0.31543-0.40723-0.57031-0.82129-0.57031h-49.4917C180.27295,416,180,416.25488,180,416.57031v2.85742
			C180,419.74316,180.27295,420,180.68701,420z"/>
		<path fill="#FFFFFF" d="M284.9375,377h38c1.10449,0,2.0625-0.89648,2.0625-2v-33c0-1.10547-0.95801-2-2.0625-2h-38
			c-1.10449,0-1.9375,0.89453-1.9375,2v33C283,376.10352,283.83301,377,284.9375,377z M323,374c0,0.55273-0.44727,1-1,1h-36
			c-0.55225,0-1-0.44727-1-1v-31c0-0.55273,0.44775-1,1-1h36c0.55273,0,1,0.44727,1,1V374z"/>
		<path fill="#FFFFFF" d="M283.58057,390h59.71338c0.35547,0,0.70605-0.22461,0.70605-0.5v-1c0-0.27734-0.35059-0.5-0.70605-0.5
			h-59.71338C283.22559,388,283,388.22266,283,388.5v1C283,389.77539,283.22559,390,283.58057,390z"/>
		<path fill="#FFFFFF" d="M298.64844,364.27051c-0.51465-0.42773-0.96826-0.92578-1.35352-1.47559l-10.00244,8.44043
			l1.28955,1.52832L298.64844,364.27051z"/>
		<path fill="#FFFFFF" d="M298.64893,352.72852l-10.06689-8.49414l-1.28955,1.5293l10.00244,8.43945
			C297.68018,353.6543,298.13379,353.15625,298.64893,352.72852z"/>
		<path fill="#FFFFFF" d="M240,451c0-0.55273-0.44775-1-1-1h-58c-0.55225,0-1,0.44727-1,1v11c0,0.55273,0.44775,1,1,1h58
			c0.55225,0,1-0.44727,1-1V451z"/>
		<path fill="#FFFFFF" d="M180.87842,390h62.10693c0.51953,0,1.01465-0.25684,1.01465-0.57227v-2.85742
			c0-0.31543-0.49512-0.57031-1.01465-0.57031h-62.10693C180.3584,386,180,386.25488,180,386.57031v2.85742
			C180,389.74316,180.3584,390,180.87842,390z"/>
		<path fill="#FFFFFF" d="M320.58203,371.23535l-10.65381-8.98926c-0.33691,0.58203-0.74512,1.11719-1.2207,1.58691
			l10.58496,8.93066L320.58203,371.23535z"/>
		<path fill="#FFFFFF" d="M320.58203,345.76367l-1.28955-1.5293l-10.58496,8.93164c0.4751,0.46973,0.88379,1.00586,1.2207,1.58789
			L320.58203,345.76367z"/>
		<path fill="#FFFFFF" d="M343.29395,416h-59.71338C283.22559,416,283,416.22266,283,416.5v1c0,0.27539,0.22559,0.5,0.58057,0.5
			h59.71338c0.35547,0,0.70605-0.22461,0.70605-0.5v-1C344,416.22266,343.64941,416,343.29395,416z"/>
		<path fill="#FFFFFF" d="M266,426.99902c0-1.10449-0.89551-1.99902-2-1.99902h-82c-1.10449,0-2,0.89453-2,1.99902v7.00195
			c0,1.10449,0.89551,1.99902,2,1.99902h82c1.10449,0,2-0.89453,2-1.99902V426.99902z M264,433c0,0.55078-0.51025,1-1.0625,1h-80
			c-0.55273,0-0.9375-0.44922-0.9375-1v-5.00098c0-0.55176,0.38477-0.99902,0.9375-0.99902h80
			c0.55225,0,1.0625,0.44727,1.0625,0.99902V433z"/>
		<path fill="#FFFFFF" d="M348.02344,394h-64.17578C283.34473,394,283,394.22266,283,394.5v1c0,0.27539,0.34473,0.5,0.84766,0.5
			h64.17578c0.50195,0,0.97656-0.22461,0.97656-0.5v-1C349,394.22266,348.52539,394,348.02344,394z"/>
		<path fill="#FFFFFF" d="M338.52344,422h-54.17822C283.56787,422,283,422.22266,283,422.5v1c0,0.27539,0.56787,0.5,1.34521,0.5
			h54.17822c0.77734,0,1.47656-0.22461,1.47656-0.5v-1C340,422.22266,339.30078,422,338.52344,422z"/>
		<path fill="#FFFFFF" d="M266,396.99902c0-1.10449-0.89551-1.99902-2-1.99902h-82c-1.10449,0-2,0.89453-2,1.99902v7.00195
			c0,1.10449,0.89551,1.99902,2,1.99902h82c1.10449,0,2-0.89453,2-1.99902V396.99902z M264,403c0,0.55078-0.51025,1-1.0625,1h-80
			c-0.55273,0-0.9375-0.44922-0.9375-1v-5.00098c0-0.55176,0.38477-0.99902,0.9375-0.99902h80
			c0.55225,0,1.0625,0.44727,1.0625,0.99902V403z"/>
		<path fill="#FFFFFF" d="M321.94482,428h-38.01953C283.37988,428,283,428.22266,283,428.5v1c0,0.27539,0.37988,0.5,0.92529,0.5
			h38.01953c0.54541,0,1.05518-0.22461,1.05518-0.5v-1C323,428.22266,322.49023,428,321.94482,428z"/>
		<path fill="#FFFFFF" d="M266,366.99902c0-1.10449-0.89551-1.99902-2-1.99902h-82c-1.10449,0-2,0.89453-2,1.99902v7.00195
			c0,1.10449,0.89551,1.99902,2,1.99902h82c1.10449,0,2-0.89453,2-1.99902V366.99902z M264,373c0,0.55078-0.51025,1-1.0625,1h-80
			c-0.55273,0-0.9375-0.44922-0.9375-1v-5.00098c0-0.55176,0.38477-0.99902,0.9375-0.99902h80
			c0.55225,0,1.0625,0.44727,1.0625,0.99902V373z"/>
		<path fill="#FFFFFF" d="M58.99951,385h74.87061c0.58691,0,1.12988-0.22461,1.12988-0.50098V383.5
			c0-0.27734-0.54297-0.5-1.12988-0.5H58.99951C58.4126,383,58,383.22266,58,383.5v0.99902C58,384.77539,58.4126,385,58.99951,385z"
			/>
		<path fill="#FFFFFF" d="M59.21143,360h76.45166C136.3667,360,137,359.55176,137,359v-3c0-0.55273-0.6333-1-1.33691-1H59.21143
			C58.50781,355,58,355.44727,58,356v3C58,359.55176,58.50781,360,59.21143,360z"/>
		<path fill="#FFFFFF" d="M120,365.99902c0-0.55176-0.44775-0.99902-1-0.99902H59c-0.55225,0-1,0.44727-1,0.99902v3.00195
			C58,369.55273,58.44775,370,59,370h60c0.55225,0,1-0.44727,1-0.99902V365.99902z"/>
		<path fill="#FFFFFF" d="M134.19189,452.38281l5.69971,4.14355c-11.69043,2.00684-24.14648-0.61816-34.35596-8.33887
			C94.34766,439.72754,88.32568,427.00586,87.94336,414h-2.00195c0.38232,13.61035,6.67969,26.92969,18.3877,35.7832
			c10.50195,7.94141,23.28027,10.73438,35.33008,8.82031l1.09619-1.44922l0.11523,0.08398l-4.76025,6.75391l1.26416,0.91992
			l5.66113-8.0332l-7.94385-5.77441L134.19189,452.38281z"/>
		<path fill="#FFFFFF" d="M58.84424,391h77.18604c0.50098,0,0.96973-0.22461,0.96973-0.50098V389.5
			c0-0.27734-0.46875-0.5-0.96973-0.5H58.84424C58.34326,389,58,389.22266,58,389.5v0.99902C58,390.77539,58.34326,391,58.84424,391
			z"/>
		<path fill="#FFFFFF" d="M101,396.49902v-1C101,395.22266,100.45703,395,99.87012,395H58.99951
			C58.4126,395,58,395.22266,58,395.49902v1C58,396.77539,58.4126,397,58.99951,397h40.87061
			C100.45703,397,101,396.77539,101,396.49902z"/>
		<path fill="#FFFFFF" d="M143.03027,377H58.84424C58.34326,377,58,377.22266,58,377.5v0.99902
			C58,378.77539,58.34326,379,58.84424,379h84.18604c0.50098,0,0.96973-0.22461,0.96973-0.50098V377.5
			C144,377.22266,143.53125,377,143.03027,377z"/>
		<path fill="#FFFFFF" d="M137.37451,169.91162l5.66113-8.03271l-7.94385-5.7749l-0.8999,1.27832l5.69971,4.14355
			c-11.69043,2.00684-24.14648-0.61719-34.35596-8.33789C94.34766,144.72754,88.32568,132,87.94336,119h-2.00195
			c0.38232,14,6.67969,26.92969,18.3877,35.78369c10.50195,7.94141,23.28027,10.73389,35.33008,8.81982l1.09619-1.44971
			l0.11523,0.0835l-4.76025,6.75488L137.37451,169.91162z"/>
		<path fill="#FFFFFF" d="M58.64697,65h42.58057C101.61963,65,102,64.55176,102,63.99951v-3C102,60.44678,101.61963,60,101.22754,60
			H58.64697C58.25488,60,58,60.44678,58,60.99951v3C58,64.55176,58.25488,65,58.64697,65z"/>
		<path fill="#FFFFFF" d="M59.39453,104h56.07861c0.80518,0,1.52686-0.22461,1.52686-0.50098v-1
			c0-0.27588-0.72168-0.49902-1.52686-0.49902H59.39453C58.58984,102,58,102.22314,58,102.49902v1
			C58,103.77539,58.58984,104,59.39453,104z"/>
		<path fill="#FFFFFF" d="M58.82129,98h75.23193C134.5415,98,135,97.77539,135,97.49902v-0.99951
			C135,96.22314,134.5415,96,134.05322,96H58.82129C58.33301,96,58,96.22314,58,96.49951v0.99951
			C58,97.77539,58.33301,98,58.82129,98z"/>
		<path fill="#FFFFFF" d="M58.72803,74h73.41846C132.58301,74,133,73.77539,133,73.49951v-1C133,72.22314,132.58301,72,132.14648,72
			H58.72803C58.29102,72,58,72.22314,58,72.49951v1C58,73.77539,58.29102,74,58.72803,74z"/>
		<path fill="#FFFFFF" d="M59.76514,92h70.33545C131.11035,92,132,91.77539,132,91.49902v-0.99951
			C132,90.22314,131.11035,90,130.10059,90H59.76514C58.75537,90,58,90.22314,58,90.49951v0.99951
			C58,91.77539,58.75537,92,59.76514,92z"/>
		<path fill="#FFFFFF" d="M58.84424,86h77.18604C136.53125,86,137,85.77539,137,85.49951v-1C137,84.22314,136.53125,84,136.03027,84
			H58.84424C58.34326,84,58,84.22314,58,84.49951v1C58,85.77539,58.34326,86,58.84424,86z"/>
		<path fill="#FFFFFF" d="M59.06836,80h79.73242C139.42578,80,140,79.77539,140,79.49951v-1C140,78.22314,139.42578,78,138.80078,78
			H59.06836C58.44336,78,58,78.22314,58,78.49951v1C58,79.77539,58.44336,80,59.06836,80z"/>
		<path fill="#FFFFFF" d="M197.06885,126.75488l-12.46436,14.4585c0.65088,0.23145,1.20898,0.64551,1.61768,1.18652
			l12.2793-14.24365C197.98438,127.73096,197.51123,127.25684,197.06885,126.75488z"/>
		<path fill="#FFFFFF" d="M190,155.00049c0-0.55273-0.44775-1.00049-1-1.00049h-6c-0.55225,0-1,0.44775-1,1.00049v5.99902
			c0,0.55273,0.44775,1.00049,1,1.00049h6c0.55225,0,1-0.44775,1-1.00049V155.00049z"/>
		<path fill="#FFFFFF" d="M203,155.00049c0-0.55273-0.44775-1.00049-1-1.00049h-6c-0.55225,0-1,0.44775-1,1.00049v5.99902
			c0,0.55273,0.44775,1.00049,1,1.00049h6c0.55225,0,1-0.44775,1-1.00049V155.00049z"/>
		<path fill="#FFFFFF" d="M180,177.83203v3.3335c0,0.46045,0.36377,0.83447,0.88965,0.83447h58.09521
			c0.52588,0,1.01514-0.37402,1.01514-0.83447v-3.3335c0-0.45947-0.48926-0.83203-1.01514-0.83203h-58.09521
			C180.36377,177,180,177.37256,180,177.83203z"/>
		<path fill="#FFFFFF" d="M216,155.00049c0-0.55273-0.44775-1.00049-1-1.00049h-6c-0.55225,0-1,0.44775-1,1.00049v5.99902
			c0,0.55273,0.44775,1.00049,1,1.00049h6c0.55225,0,1-0.44775,1-1.00049V155.00049z"/>
		<path fill="#FFFFFF" d="M312,89c0-0.55225-0.44775-1-1-1h-66c-0.55225,0-1,0.44775-1,1v5c0,0.55225,0.44775,1,1,1h66
			c0.55225,0,1-0.44775,1-1V89z"/>
		<path fill="#FFFFFF" d="M194.29492,270.79492l-10.00244,8.43945l1.28955,1.5293l10.06641-8.49414
			C195.13379,271.8418,194.67969,271.34473,194.29492,270.79492z"/>
		<path fill="#FFFFFF" d="M244.38184,135h27.11084c0.24561,0,0.50732-0.29883,0.50732-0.66797v-2.6665
			c0-0.36816-0.26172-0.66553-0.50732-0.66553h-27.11084C244.13623,131,244,131.29736,244,131.66553v2.6665
			C244,134.70117,244.13623,135,244.38184,135z"/>
		<path fill="#FFFFFF" d="M228.06982,93.85645c-0.6665-0.20215-1.24023-0.61719-1.62158-1.18213l-13.22217,15.33789
			c0.56299,0.36523,1.08936,0.77734,1.58447,1.2251L228.06982,93.85645z"/>
		<path fill="#FFFFFF" d="M199.05225,108.43018l-13.5791-15.84229c-0.36279,0.57764-0.91553,1.01465-1.57227,1.23877
			l13.63232,15.90479C198.00195,109.25635,198.51318,108.82568,199.05225,108.43018z"/>
		<path fill="#FFFFFF" d="M229,155.00049c0-0.55273-0.44775-1.00049-1-1.00049h-6c-0.55225,0-1,0.44775-1,1.00049v5.99902
			c0,0.55273,0.44775,1.00049,1,1.00049h6c0.55225,0,1-0.44775,1-1.00049V155.00049z"/>
		<path fill="#FFFFFF" d="M286,126.8667v11.26611c0,0.47852,0.37402,0.86719,0.91309,0.86719h38.04883
			C325.5,139,326,138.61133,326,138.13281V126.8667c0-0.47949-0.5-0.8667-1.03809-0.8667h-38.04883
			C286.37402,126,286,126.38721,286,126.8667z"/>
		<path fill="#FFFFFF" d="M232,90.00049C232,88.89551,231.10449,88,230,88h-48c-1.10449,0-2,0.89551-2,2.00049v55.99902
			c0,1.10498,0.89551,2.00049,2,2.00049h48c1.10449,0,2-0.89551,2-2.00049V90.00049z M230,145c0,0.55225-0.44775,1-1.00049,1
			h-45.99902C182.44775,146,182,145.55225,182,145V91c0-0.55225,0.44775-1,1.00049-1h45.99902C229.55225,90,230,90.44775,230,91V145
			z"/>
		<path fill="#FFFFFF" d="M180.25488,71h19.36523C199.79492,71,200,70.62646,200,70.16553v-3.33252
			C200,66.37256,199.79492,66,199.62012,66h-19.36523C180.07959,66,180,66.37256,180,66.83301v3.33252
			C180,70.62646,180.07959,71,180.25488,71z"/>
		<path fill="#FFFFFF" d="M213.73486,128.63281l12.6665,14.77783c0.3623-0.57764,0.91504-1.01514,1.57178-1.23926
			l-12.70703-14.82471C214.79395,127.81787,214.27734,128.2417,213.73486,128.63281z"/>
		<path fill="#FFFFFF" d="M366,62c0-3.31348-2.68652-6-6-6H176c-3.31348,0-6,2.68652-6,6v227c0,3.31348,2.68652,6,6,6h184
			c3.31348,0,6-2.68652,6-6V62z M172,61.99951C172,59.79053,173.72803,58,175.9375,58h184C362.14648,58,364,59.79053,364,61.99951
			V67H212v2h152v220c0,2.20898-1.85352,4-4.0625,4c0,0-44.45752,0-89.66699,0c-46.76465,0-94.33301,0-94.33301,0
			c-2.20947,0-3.9375-1.79102-3.9375-4V61.99951z"/>
		<path fill="#FFFFFF" d="M244.71484,110h47.44434c0.42969,0,0.84082-0.52295,0.84082-1.16699v-4.66699
			c0-0.64404-0.41113-1.16602-0.84082-1.16602h-47.44434c-0.4292,0-0.71484,0.52197-0.71484,1.16602v4.66699
			C244,109.47705,244.28564,110,244.71484,110z"/>
		<path fill="#FFFFFF" d="M291.26025,251h-58.4375C232.33398,251,232,251.38232,232,251.85596v4.28564
			c0,0.47314,0.33398,0.8584,0.82275,0.8584h58.4375c0.48877,0,0.73975-0.38525,0.73975-0.8584v-4.28564
			C292,251.38232,291.74902,251,291.26025,251z"/>
		<path fill="#FFFFFF" d="M222,249.99951c0-1.10449-0.89551-1.99951-2-1.99951h-38c-1.10449,0-2,0.89502-2,1.99951V283
			c0,1.10449,0.89551,2,2,2h38c1.10449,0,2-0.89551,2-2V249.99951z M220,282c0,0.55078-0.51025,1-1.0625,1h-36
			c-0.55273,0-0.9375-0.44922-0.9375-1v-31.00098c0-0.55225,0.38477-0.99902,0.9375-0.99902h36
			c0.55225,0,1.0625,0.44678,1.0625,0.99902V282z"/>
		<path fill="#FFFFFF" d="M232,263.49902v1c0,0.27637,0.28662,0.50098,0.71777,0.50098h72.43896
			c0.43115,0,0.84326-0.22461,0.84326-0.50098v-1c0-0.27637-0.41211-0.49902-0.84326-0.49902h-72.43896
			C232.28662,263,232,263.22266,232,263.49902z"/>
		<rect x="180" y="229" fill="#FFFFFF" width="107" height="2"/>
		<rect x="180" y="213" fill="#FFFFFF" width="138" height="2"/>
		<path fill="#FFFFFF" d="M205.70752,261.16602c0.4751,0.46875,0.88379,1.00391,1.2207,1.58691l10.65381-8.98975l-1.28955-1.52881
			L205.70752,261.16602z"/>
		<path fill="#FFFFFF" d="M205.70752,271.83203l10.58496,8.93164l1.28955-1.5293l-10.65381-8.98926
			C206.59131,270.82715,206.18262,271.3623,205.70752,271.83203z"/>
		<path fill="#FFFFFF" d="M184.29248,253.76318l10.00244,8.43994c0.38525-0.54883,0.83887-1.04688,1.35352-1.47461
			l-10.06641-8.49414L184.29248,253.76318z"/>
		<rect x="180" y="189" fill="#FFFFFF" width="140" height="2"/>
		<rect x="180" y="205" fill="#FFFFFF" width="140" height="2"/>
		<path fill="#FFFFFF" d="M293.37402,281h-59.88086C232.63379,281,232,281.22266,232,281.5v1c0,0.27539,0.63379,0.5,1.49316,0.5
			h59.88086C294.2334,283,295,282.77539,295,282.5v-1C295,281.22266,294.2334,281,293.37402,281z"/>
		<rect x="180" y="197" fill="#FFFFFF" width="136" height="2"/>
		<path fill="#FFFFFF" d="M310.03027,275h-77.18604C232.34326,275,232,275.22266,232,275.49902v1
			c0,0.27637,0.34326,0.50098,0.84424,0.50098h77.18604c0.50098,0,0.96973-0.22461,0.96973-0.50098v-1
			C311,275.22266,310.53125,275,310.03027,275z"/>
		<path fill="#FFFFFF" d="M316.74561,269h-83.62207C232.46826,269,232,269.22266,232,269.49902v1
			c0,0.27637,0.46826,0.50098,1.12354,0.50098h83.62207c0.65527,0,1.25439-0.22461,1.25439-0.50098v-1
			C318,269.22266,317.40088,269,316.74561,269z"/>
		<rect x="180" y="221" fill="#FFFFFF" width="141" height="2"/>
	</g>
</g>
<g id="Слой_1">
	<path fill-rule="evenodd" clip-rule="evenodd" fill="#FFFFFF" d="M647,510H13c-1.65674,0-3-1.34375-3-3V12.99951
		C10,11.34277,11.34326,10,13,10h634c1.65625,0,3,1.34277,3,2.99951V507C650,508.65625,648.65625,510,647,510z M648,12.99951
		C648,12.44727,647.55273,12,647,12H13c-0.55225,0-1,0.44727-1,0.99951V507c0,0.55273,0.44775,1,1,1h634c0.55273,0,1-0.44727,1-1
		V12.99951z"/>
	<path fill-rule="evenodd" clip-rule="evenodd" fill="#FFFFFF" d="M654,520H6c-3.31396,0-6-2.68555-6-6V6c0-3.31396,2.68604-6,6-6
		h648c3.31348,0,6,2.68604,6,6v508C660,517.31445,657.31348,520,654,520z M658,6c0-2.20947-1.79102-4.00049-4-4.00049H6
		C3.79102,1.99951,2,3.79053,2,6v508c0,2.20898,1.79102,4,4,4h648c2.20898,0,4-1.79102,4-4V6z"/>
</g>
</svg>
