<?xml version="1.0" encoding="utf-8"?>
<!-- Generator: Adobe Illustrator 19.0.0, SVG Export Plug-In . SVG Version: 6.00 Build 0)  -->
<svg version="1.1" id="Слой_1" xmlns="http://www.w3.org/2000/svg" xmlns:xlink="http://www.w3.org/1999/xlink" x="0px" y="0px"
	 viewBox="0 0 1056 505" style="enable-background:new 0 0 1056 505;" xml:space="preserve">
<style type="text/css">
	.st0{fill-rule:evenodd;clip-rule:evenodd;}
	.st1{fill-rule:evenodd;clip-rule:evenodd;fill:#44A9DF;}
</style>
<g>
	<g id="XMLID_902_">
		<path id="XMLID_903_" class="st0" d="M406.5,449.89832h-80c-2.76172,0-5,2.24225-5,5.00897v45.08069
			c0,2.76569,2.23828,5.00903,5,5.00903h80c2.76117,0,5-2.24335,5-5.00903v-45.08069
			C411.5,452.14056,409.26117,449.89832,406.5,449.89832z M409.5,499.98798c0,1.65924-1.34332,3.00543-3,3.00543h-80
			c-1.65723,0-3-1.34619-3-3.00543V469.9342h86V499.98798z M409.5,460.91797h-86v-6.01068c0-1.66022,1.34277-3.00537,3-3.00537h80
			c1.65668,0,3,1.34515,3,3.00537V460.91797z M529.5,399.80811h-21v-8.0144h-0.05084
			c0.01563-0.33459,0.05084-0.66333,0.05084-1.00183c0-12.17169-9.84961-22.03949-22-22.03949s-22,9.8678-22,22.03949
			c0,0.3385,0.03516,0.66724,0.05078,1.00183H464.5v8.0144h-20c-3.31451,0-6,2.69086-6,6.01068v93.16742
			c0,3.31848,2.68549,6.0108,6,6.0108h85c3.31348,0,6-2.69232,6-6.0108v-93.16742
			C535.5,402.49896,532.81348,399.80811,529.5,399.80811z M467.5,391.7937h0.05078
			c-0.01758-0.33362-0.05078-0.66333-0.05078-1.00183c0-10.51196,8.50677-19.03406,19-19.03406c10.49316,0,19,8.52216,19,19.03406
			c0,0.3385-0.0332,0.66821-0.05084,1.00183H505.5v8.0144h-38V391.7937z M533.5,498.98621c0,2.21295-1.79102,4.0072-4,4.0072h-85
			c-2.20898,0-4-1.79425-4-4.0072v-93.16742c0-2.21289,1.79102-4.00708,4-4.00708h20v20.53668
			c0,0.83008,0.67188,1.50269,1.5,1.50269c0.82806,0,1.5-0.67261,1.5-1.50269v-20.53668h38v20.53668
			c0,0.83008,0.67188,1.50269,1.5,1.50269c0.82806,0,1.5-0.67261,1.5-1.50269v-20.53668h21c2.20898,0,4,1.79419,4,4.00708V498.98621
			z M366.5,384.78107c-0.55273,0-1,0.44861-1,1.00183v30.05389c0,0.5528,0.44727,1.00232,1,1.00232c0.55176,0,1-0.44952,1-1.00232
			V385.7829C367.5,385.22968,367.05176,384.78107,366.5,384.78107z M404.5,397.8045c-1.65723,0-3,1.3457-3,3.00586
			c0,1.65875,1.34277,3.00482,3,3.00482c1.65668,0,3-1.34607,3-3.00482C407.5,399.15021,406.15668,397.8045,404.5,397.8045z
			 M411.5,392.97937v-8.1983c0-2.7666-2.23883-5.00885-5-5.00885h-4.85254l-6.53027-16.82172l-3.34821,1.27039l-6.10199-10.18182
			l-2.44629,1.48413l-5.6582-7.49487l-2.82959,2.21686L368.5,344.00061l-35.70752,35.77161H326.5c-2.76172,0-5,2.24225-5,5.00885
			v33.05884c0,2.7666,2.23828,5.00989,5,5.00989h80c2.76117,0,5-2.24329,5-5.00989v-9.19958c1.16211-0.41443,2-1.51544,2-2.82153
			V395.8009C413.5,394.49426,412.66211,393.39331,411.5,392.97937z M394.55176,364.25812l6.02295,15.5141h-47.92725
			L394.55176,364.25812z M385.3291,355.41602l5.48541,9.15796l-41.05231,15.19824h-4.6416L385.3291,355.41602z M377.40576,349.42578
			l4.95465,6.61841l-39.17291,23.72803h-4.59369L377.40576,349.42578z M368.5,345.4176l5.43848,5.44879l-36.97021,28.90582h-2.76129
			L368.5,345.4176z M409.5,417.8399c0,1.6601-1.34332,3.0058-3,3.0058h-80c-1.65723,0-3-1.3457-3-3.0058v-33.05884
			c0-1.65961,1.34277-3.00525,3-3.00525h80c1.65668,0,3,1.34564,3,3.00525v8.0144h-11c-1.65723,0-3,1.3457-3,3.00543v10.01788
			c0,1.65973,1.34277,3.00543,3,3.00543h11V417.8399z M411.5,405.81879c0,0.5528-0.44769,1.00183-1,1.00183h-12
			c-0.55273,0-1-0.44904-1-1.00183V395.8009c0-0.55371,0.44727-1.00183,1-1.00183h12c0.55231,0,1,0.44812,1,1.00183V405.81879z
			 M327.5,477.94849h27c0.55219,0,1-0.44897,1-1.00177v-1.00171c0-0.55371-0.44781-1.00183-1-1.00183h-27
			c-0.55273,0-1,0.44812-1,1.00183v1.00171C326.5,477.49951,326.94727,477.94849,327.5,477.94849z M360.5,477.94849h18
			c0.55219,0,1-0.44897,1-1.00177v-1.00171c0-0.55371-0.44781-1.00183-1-1.00183h-18c-0.55219,0-1,0.44812-1,1.00183v1.00171
			C359.5,477.49951,359.94781,477.94849,360.5,477.94849z M187,201c-0.82813,0-1.5,0.67188-1.5,1.5v10
			c0,0.82813,0.67188,1.5,1.5,1.5c0.82806,0,1.5-0.67188,1.5-1.5v-10C188.5,201.67188,187.82806,201,187,201z M78.5,246h204
			c2.76172,0,5-2.23828,5-5V127c0-2.76221-2.23828-5-5-5h-204c-2.76172,0-5,2.23779-5,5v114C73.5,243.76172,75.73828,246,78.5,246z
			 M146.5,225h-34.00592v-50.00049H146.5V225z M179.50488,232.26947H148.5v-61.26996h31.00488V232.26947z M285.5,241
			c0,1.65619-1.34369,3-3,3h-57.12891v-6.00983h-3.45117v-5.7207H214.5V227h71V241z M214.5,225v-50.00049h34.00592V225H214.5z
			 M285.5,225h-35.00391v-50.00049H285.5V225z M75.5,134.00049h210v39h-71V171h-2v61.26947h-31.00488v-61.26996h33.00879v-1.99902
			h-68.00781v1.99902H146.5v2.00098h-71V134.00049z M75.5,174.99951h35.00391V225H75.5V174.99951z M75.5,227h71v5.26947h-6.26898
			v5.7207h-2.30133V244H78.5c-1.65723,0-3-1.34381-3-3V227z M174,214c0.82806,0,1.5-0.67188,1.5-1.5v-10
			c0-0.82813-0.67194-1.5-1.5-1.5c-0.82861,0-1.5,0.67188-1.5,1.5v10C172.5,213.32813,173.17139,214,174,214z M158.14941,155.07758
			c-0.40771,0.33844-1.0127,0.50745-1.81641,0.50745c-0.7583,0-1.36084-0.19-1.80762-0.56995
			c-0.44629-0.37976-0.74323-0.9751-0.88867-1.7851l-2.42725,0.2348c0.16315,1.37408,0.6626,2.42053,1.5,3.13818
			c0.8374,0.71832,2.03662,1.07672,3.59814,1.07672c1.0733,0,1.9693-0.14886,2.68848-0.44781
			c0.71869-0.29877,1.27539-0.7558,1.66852-1.37061c0.39301-0.6142,0.58978-1.27338,0.58978-1.97748
			c0-0.77692-0.16461-1.4292-0.49268-1.9566c-0.3291-0.52826-0.78424-0.94476-1.36523-1.24896
			c-0.58197-0.30475-1.47949-0.59912-2.69238-0.88434c-1.21393-0.28461-1.97748-0.55859-2.29199-0.82117
			c-0.2475-0.2066-0.37109-0.45514-0.37109-0.74609c0-0.31842,0.1319-0.57233,0.396-0.76221
			c0.41016-0.29645,0.9776-0.4444,1.70221-0.4444c0.70258,0,1.22894,0.13818,1.57996,0.4151
			c0.35114,0.27631,0.58014,0.73035,0.68713,1.36176l2.49408-0.10889c-0.03912-1.12891-0.45068-2.03131-1.23438-2.70752
			c-0.78375-0.67578-1.95123-1.01367-3.5014-1.01367c-0.94971,0-1.75983,0.14209-2.43121,0.42719
			c-0.67139,0.28522-1.18549,0.69983-1.54199,1.24469c-0.35693,0.54492-0.5351,1.12994-0.5351,1.75531
			c0,0.97272,0.37891,1.79639,1.1377,2.47272c0.539,0.48047,1.47748,0.88568,2.81439,1.21527
			c1.03912,0.2569,1.70508,0.43561,1.99707,0.53625c0.4267,0.15076,0.72601,0.32806,0.8974,0.53217
			c0.17145,0.2041,0.2569,0.45123,0.2569,0.7417C158.75977,154.34473,158.55621,154.73981,158.14941,155.07758z
			 M208.86517,155.39209h-6.90131v-3.34381h6.20215v-2.07031h-6.20215v-2.72308h6.66602v-2.07861h-9.16022v12.28613h9.39551
			V155.39209z M179.08539,157.67188c1.81451,0,3.26422-0.56006,4.34821-1.68066c1.08398-1.12012,1.62701-2.67194,1.62701-4.65533
			c0-2-0.54694-3.56146-1.63971-4.685c-1.09283-1.12256-2.54883-1.68408-4.36908-1.68408
			c-1.00592,0-1.89362,0.16162-2.66315,0.48578c-0.57855,0.2403-1.1109,0.60944-1.59668,1.10651
			c-0.48633,0.49701-0.86908,1.05859-1.15039,1.68451c-0.37604,0.84918-0.56451,1.89948-0.56451,3.15088
			c0,1.95563,0.54199,3.49084,1.62653,4.60553C175.7876,157.11432,177.24799,157.67188,179.08539,157.67188z M176.59082,148.13867
			c0.62939-0.70117,1.45795-1.05176,2.48627-1.05176c1.02789,0,1.8526,0.34668,2.47369,1.03961
			c0.62012,0.69226,0.93073,1.74304,0.9306,3.15076c0,1.4248-0.31927,2.49323-0.95599,3.20563
			c-0.63818,0.71191-1.4541,1.06836-2.4483,1.06836c-0.99457,0-1.81488-0.3584-2.46088-1.07666
			c-0.646-0.71783-0.96869-1.77252-0.96869-3.16364C175.64752,149.89752,175.96191,148.83978,176.59082,148.13867z
			 M189.50977,152.3335h0.50482c0.5733,0,0.99133,0.0459,1.25592,0.13818c0.26471,0.09235,0.51471,0.2627,0.75,0.51074
			c0.23627,0.24896,0.6748,0.85107,1.31451,1.80615l1.80365,2.67383h2.98242l-1.50781-2.39703
			c-0.5957-0.95544-1.06927-1.62054-1.41986-1.99457c-0.35162-0.37402-0.79694-0.71783-1.336-1.03082
			c1.08398-0.15668,1.8985-0.5351,2.44336-1.13568c0.54492-0.60059,0.8183-1.36182,0.8183-2.28369
			c0-0.72662-0.17957-1.37158-0.53998-1.93604c-0.35944-0.56396-0.83789-0.9566-1.43652-1.1778
			c-0.59766-0.22015-1.55756-0.33051-2.87799-0.33051h-5.25v12.28613h2.49518V152.3335z M189.50977,147.25488h1.94635
			c1.01068,0,1.6181,0.01373,1.82025,0.04199c0.4043,0.06641,0.71771,0.22754,0.93945,0.48145
			c0.22168,0.25439,0.33295,0.58789,0.33295,1.00146c0,0.36859-0.08386,0.67633-0.25287,0.92194
			c-0.16888,0.24609-0.40143,0.41888-0.69922,0.51996c-0.29791,0.1001-1.0459,0.15039-2.24219,0.15039h-1.84473V147.25488z
			 M166.1333,157.4624h2.49457v-10.20752h3.65735v-2.07861h-9.81744v2.07861h3.66553V157.4624z M138.74316,185.44342
			l-1.62695-1.61774l-6.90283,6.86572l1.62689,1.61719L138.74316,185.44342z M276.80859,185.44342l-1.62793-1.61774
			l-6.90338,6.86572l1.62701,1.61719L276.80859,185.44342z M143.3457,188.87701l-1.62689-1.6192l-14.95709,14.875l1.62695,1.6192
			L143.3457,188.87701z M281.41022,188.87701l-1.62701-1.6192l-14.95703,14.875l1.62689,1.6192L281.41022,188.87701z
			 M504.5,165.97882h41c0.55267,0,1-0.44775,1-1.00031v-1.99902c0-0.55267-0.44733-0.99982-1-0.99982h-41
			c-0.55231,0-1,0.44714-1,0.99982v1.99902C503.5,165.53107,503.94769,165.97882,504.5,165.97882z M504.34381,171.97699h25.3125
			c0.46576,0,0.84369-0.4472,0.84369-0.99982v-1.99896c0-0.55273-0.37793-1.00031-0.84369-1.00031h-25.3125
			c-0.46594,0-0.84381,0.44757-0.84381,1.00031v1.99896C503.5,171.52979,503.87787,171.97699,504.34381,171.97699z M441.5,171.97699
			h30c0.55219,0,1-0.4472,1-0.99982v-1.99896c0-0.55273-0.44781-1.00031-1-1.00031h-30c-0.55219,0-1,0.44757-1,1.00031v1.99896
			C440.5,171.52979,440.94781,171.97699,441.5,171.97699z M441.38379,165.97882h36.23242c0.48828,0,0.88379-0.44775,0.88379-1.00031
			v-1.99902c0-0.55267-0.39551-0.99982-0.88379-0.99982h-36.23242c-0.48828,0-0.88379,0.44714-0.88379,0.99982v1.99902
			C440.5,165.53107,440.89551,165.97882,441.38379,165.97882z M568,171.97699h45c0.82806,0,1.5-0.4472,1.5-0.99982v-1.99896
			c0-0.55273-0.67194-1.00031-1.5-1.00031h-45c-0.82813,0-1.5,0.44757-1.5,1.00031v1.99896
			C566.5,171.52979,567.17188,171.97699,568,171.97699z M500.54791,119.98828h-58.0957c-0.52594,0-0.95221,0.44763-0.95221,1.00024
			v3.99866c0,0.55164,0.42627,0.99982,0.95221,0.99982h58.0957c0.52576,0,0.95209-0.44818,0.95209-0.99982v-3.99866
			C501.5,120.43591,501.07367,119.98828,500.54791,119.98828z M457.63129,216.72321l-12.46429,14.45581
			c0.65137,0.23047,1.20947,0.64435,1.6181,1.18536l12.2793-14.24109C458.54736,217.69958,458.07416,217.2251,457.63129,216.72321z
			 M508.5,106.99158h-66c-0.55219,0-1,0.44763-1,0.99921v4.99951c0,0.552,0.44781,0.99921,1,0.99921h66
			c0.55231,0,1-0.4472,1-0.99921v-4.99951C509.5,107.43921,509.05231,106.99158,508.5,106.99158z M567.36041,165.97882h35.27917
			c0.47559,0,0.86041-0.44775,0.86041-1.00031v-1.99902c0-0.55267-0.38483-0.99982-0.86041-0.99982h-35.27917
			c-0.47565,0-0.86041,0.44714-0.86041,0.99982v1.99902C566.5,165.53107,566.88477,165.97882,567.36041,165.97882z
			 M537.29791,218.60168l12.66687,14.77423c0.36139-0.578,0.91412-1.01544,1.57129-1.24011l-12.70697-14.82098
			C538.35736,217.7854,537.83978,218.20917,537.29791,218.60168z M600.29785,218.60168l12.66602,14.77423
			c0.94244,0,1.44244-0.4433,1.5722-1.24011l-12.70697-14.82098C601.35736,217.7854,600.83978,218.20917,600.29785,218.60168z
			 M585.61517,198.40289l-13.58002-15.84027c-0.86719-0.25385-1.57129,0.0351-1.57129,1.23999l13.63281,15.90076
			C584.56445,199.22687,585.07617,198.7973,585.61517,198.40289z M583.63086,216.72321l-12.46289,14.45581
			c0.23834,0.87878,0.61334,1.34747,1.61719,1.18536l12.2793-14.24109C584.54688,217.69958,584.07416,217.2251,583.63086,216.72321z
			 M505.5,237.96277h48c1.10449,0,2-0.8963,2-1.99957v-55.98792c0-1.10327-0.89551-1.99957-2-1.99957h-48
			c-1.10449,0-2,0.89618-2,1.99957v55.98792C503.5,237.06647,504.39551,237.96277,505.5,237.96277z M505.5,180.9751
			c0-0.55267,0.44769-0.99982,1-0.99982h46c0.55267,0,1,0.44714,1,0.99982v53.98828c0,0.55261-0.44733,0.99982-1,0.99982h-46
			c-0.55231,0-1-0.4472-1-0.99982V180.9751z M431.53607,263.90442l0.9278,1.77307c0.4223-0.2226,42.90723-21.88007,98.18262-0.95099
			c15.40332,5.83081,29.6142,7.95142,42.14063,7.95142c27.31348,0,46.59375-10.07794,52.71289-13.75092v0.03119l2-1.20679V72.9989
			c0-3.31281-2.68652-5.99921-6-5.99921h-184c-3.31403,0-6,2.6864-6,5.99921v188.95868
			C431.5,262.59216,431.55371,263.89471,431.53607,263.90442z M467.5,73.99817c0-1.1048,0.89551-1.99908,2-1.99908h149
			c1.10449,0,2,0.89429,2,1.99908v0.99982c0,1.10419-0.89551,2-2,2h-149c-1.10449,0-2-0.89581-2-2V73.99817z M459,71.99908
			c1.38086,0,2.5,1.11841,2.5,2.49951c0,1.38-1.11914,2.49939-2.5,2.49939c-1.38092,0-2.5-1.11938-2.5-2.49939
			C456.5,73.11749,457.61908,71.99908,459,71.99908z M450,71.99908c1.38086,0,2.5,1.11841,2.5,2.49951
			c0,1.38-1.11914,2.49939-2.5,2.49939c-1.38092,0-2.5-1.11938-2.5-2.49939C447.5,73.11749,448.61908,71.99908,450,71.99908z
			 M441,71.99908c1.38037,0,2.5,1.11841,2.5,2.49951c0,1.38-1.11963,2.49939-2.5,2.49939c-1.38092,0-2.5-1.11938-2.5-2.49939
			C438.5,73.11749,439.61908,71.99908,441,71.99908z M433.5,81.99652h192v65.98566h-28L571,96.99121l-18.35742,35.323L543,116.98792
			l-19.50049,30.99426H433.5V81.99652z M433.5,149.9823h192v106.6015c-6.22363,3.95612-43.58594,25.41632-94.14655,6.27197
			c-49.12109-18.5976-88.41309-3.99908-97.72205,0.07422c-0.08209-0.31042-0.13141-0.63458-0.13141-0.97241V149.9823z
			 M568.5,237.96277h48c1.10449,0,2-0.8963,2-1.99957v-55.98792c0-1.10327-0.89551-1.99957-2-1.99957h-48
			c-1.10449,0-2,0.89618-2,1.99957v55.98792C566.5,237.06647,567.39551,237.96277,568.5,237.96277z M568.5,180.9751
			c0-0.55267,0.44727-0.99982,1-0.99982h46c0.55267,0,1,0.44714,1,0.99982v53.98828c0,0.55261-0.44733,0.99982-1,0.99982h-46
			c-0.55273,0-1-0.4472-1-0.99982V180.9751z M459.61517,198.40289l-13.57959-15.84027
			c-0.36279,0.578-0.91553,1.01538-1.57172,1.23999l13.63232,15.90076C458.56451,199.22687,459.07617,198.7973,459.61517,198.40289z
			 M614.63275,183.83191c-0.11127-0.91974-0.9043-1.39813-1.62109-1.1814l-13.2226,15.33447
			c0.5625,0.36523,1.08984,0.77521,1.58392,1.22443L614.63275,183.83191z M442.5,237.96277h48c1.10449,0,2-0.8963,2-1.99957
			v-55.98792c0-1.10327-0.89551-1.99957-2-1.99957h-48c-1.10449,0-2,0.89618-2,1.99957v55.98792
			C440.5,237.06647,441.39551,237.96277,442.5,237.96277z M442.5,180.9751c0-0.55267,0.44781-0.99982,1-0.99982h46
			c0.55219,0,1,0.44714,1,0.99982v53.98828c0,0.55261-0.44781,0.99982-1,0.99982h-46c-0.55219,0-1-0.4472-1-0.99982V180.9751z
			 M488.63281,183.83191c-0.6665-0.20313-1.24072-0.61713-1.62164-1.1814l-13.2226,15.33447
			c0.56299,0.36523,1.08978,0.77521,1.5849,1.22443L488.63281,183.83191z M474.29791,218.60168l12.66644,14.77423
			c0.3623-0.578,0.91504-1.01544,1.57172-1.24011l-12.70697-14.82098C475.35687,217.7854,474.83978,218.20917,474.29791,218.60168z
			 M522.61517,198.40289l-13.57959-15.84027c-0.3623,0.578-0.91553,1.01538-1.57172,1.23999l13.63281,15.90076
			C521.56451,199.22687,522.07617,198.7973,522.61517,198.40289z M520.63129,216.72321l-12.46381,14.45581
			c0.65088,0.23047,1.20898,0.64435,1.61768,1.18536l12.27936-14.24109C521.54736,217.69958,521.07416,217.2251,520.63129,216.72321
			z M551.63281,183.83191c-0.66602-0.20313-1.24023-0.61713-1.62115-1.1814l-13.2226,15.33447
			c0.5625,0.36523,1.08984,0.77521,1.58392,1.22443L551.63281,183.83191z M77.5,409.00018c2.76172,0,5-2.23877,5-5V372
			c0-2.76123-2.23828-5-5-5h-38c-2.76172,0-5,2.23877-5,5v32.00018c0,2.76123,2.23828,5,5,5H77.5z M73.5,396.03149
			l-25.23779-21.03113H73.5V396.03149z M75.5,369.00049h1c2.20898,0,4,1.79102,4,4v29.99969c0,2.20898-1.79102,4-4,4h-1V369.00049z
			 M43.5,369.00049h30V373h-30V369.00049z M43.5,375.00037h1.63818L73.5,398.63458v2.36523h-2.8374L43.5,378.36511V375.00037z
			 M43.5,380.96771l24.03809,20.0321H43.5V380.96771z M43.5,403.00018h30v4h-30V403.00018z M36.5,403.00018v-29.99969
			c0-2.20898,1.79102-4,4-4h1v37.99969h-1C38.29102,407.00018,36.5,405.20917,36.5,403.00018z M145.5,489.99908H6.5
			c-3.31348,0-6,2.68652-6,6.00098v3C0.5,502.3125,3.18652,505,6.5,505h18v-1c0-2.20898,1.79102-4.00092,4-4.00092h26
			c2.20898,0,4,1.79193,4,4.00092v1h35v-1c0-2.20898,1.79102-4.00092,4-4.00092h26c2.20898,0,4,1.79193,4,4.00092v1h18
			c3.31348,0,6-2.6875,6-5.99994v-3C151.5,492.68561,148.81348,489.99908,145.5,489.99908z M149.5,499.00006
			c0,2.20892-1.79102,3.99994-4,3.99994h-16v1c0-3.31439-2.68652-6.00189-6-6.00189h-26c-3.31348,0-6,2.6875-6,6.00189v-1h-31v1
			c0-3.31439-2.68652-6.00189-6-6.00189h-26c-3.31348,0-6,2.6875-6,6.00189v-1h-16c-2.20898,0-4-1.79102-4-3.99994v-3
			c0-2.20898,1.79102-4,4-4h139c2.20898,0,4,1.79102,4,4V499.00006z M16.5,488.99908h70c2.76172,0,5-2.2392,5-5.00092v-68.99799
			c0-2.76221-2.23828-5.00049-5-5.00049h-70c-2.76172,0-5,2.23828-5,5.00049v68.99799
			C11.5,486.75989,13.73828,488.99908,16.5,488.99908z M89.5,477.99921h-7v-57.00012h7V477.99921z M13.5,416.00018
			c0-2.20947,1.79102-4.00049,4-4.00049h68c2.20898,0,4,1.79102,4,4.00049v2.9989h-76V416.00018z M22.5,426.58459v-5.58551h5.58539
			L80.5,473.33429v4.66492h-6.58588L22.5,426.58459z M70.5,477.41327v0.58594h-8v-8.58582L70.5,477.41327z M60.5,467.41431v10.5849
			h-8v-18.58484L60.5,467.41431z M50.5,457.41437v20.58484h-8v-28.58484L50.5,457.41437z M40.5,447.41437v30.58484h-8v-38.58472
			L40.5,447.41437z M30.5,437.41449v40.58472h-8v-48.58502L30.5,437.41449z M32.5,422.58496v-1.58588h8v9.58588L32.5,422.58496z
			 M42.5,432.5849v-11.58582h8v19.58539L42.5,432.5849z M52.5,442.58447v-21.58539h8v29.58533L52.5,442.58447z M62.5,452.58441
			v-31.58533h8v39.58521L62.5,452.58441z M72.5,462.58521v-41.58612h8v49.58612L72.5,462.58521z M13.5,420.99908h7v57.00012h-7
			V420.99908z M13.5,479.99921h76v3c0,2.20996-1.79102,4.00098-4,4.00098h-68c-2.20898,0-4-1.79102-4-4.00098V479.99921z
			 M135.5,488.99908c2.76172,0,5-2.2392,5-5.00092v-31.99878c0-2.76172-2.23828-4.99902-5-4.99902h-38
			c-2.76172,0-5,2.2373-5,4.99902v31.99878c0,2.76172,2.23828,5.00092,5,5.00092H135.5z M131.5,476.03137l-25.23828-21.03296H131.5
			V476.03137z M133.5,449.00037h1c2.20898,0,4,1.79102,4,4v29.99884c0,2.20996-1.79102,4.00098-4,4.00098h-1V449.00037z
			 M101.5,449.00037h30v4h-30V449.00037z M101.5,454.99841h1.6377L131.5,478.63397v2.36621h-2.83789L101.5,458.36456V454.99841z
			 M101.5,460.9671l24.03809,20.03308H101.5V460.9671z M101.5,482.99921h30v4.00098h-30V482.99921z M94.5,482.99921v-29.99884
			c0-2.20898,1.79102-4,4-4h1v37.99982h-1C96.29102,487.00018,94.5,485.20917,94.5,482.99921z M1050.5,0h-96
			c-3.31403,0-6.00049,2.68597-6.00049,5.99951v2.00098H946.5c-3.31403,0-6,2.68549-6,5.99951v1.99939h-2
			c-3.31403,0-6,2.68658-6,6.00049v134.99915c0,3.31348,2.68597,6.00098,6,6.00098h96c3.31348,0,6-2.6875,6-6.00098v-2h2
			c3.31348,0,6-2.68652,6-6v-1.99994h2c3.31348,0,6-2.68646,6-6V5.99951C1056.5,2.6861,1053.81348,0,1050.5,0z M1038.5,156.99902
			c0,2.20898-1.79102,4-4,4h-96c-2.20947,0-4.00049-1.79102-4.00049-4V21.99988c0-2.20947,1.79102-4.00049,4.00049-4.00049h96
			c2.20898,0,4,1.79102,4,4.00049V156.99902z M1046.5,148.99902c0,2.20996-1.79102,4-4,4h-2V21.99988
			c0-3.31396-2.68652-6.00049-6-6.00049h-92.00049V14c0-2.20947,1.79102-4.00049,4.00049-4.00049h96c2.20898,0,4,1.79102,4,4.00049
			V148.99902z M1054.5,140.99908c0,2.20898-1.79102,4-4,4h-2V14c0-3.31403-2.68652-5.99951-6-5.99951h-92.00049V5.99951
			c0-2.20898,1.79102-4.00049,4.00049-4.00049h96c2.20898,0,4,1.7915,4,4.00049V140.99908z M1026.5,65.99933h-84
			c-0.55267,0-1.00049,0.29889-1.00049,0.66644v0.66803c0,0.3667,0.44781,0.66553,1.00049,0.66553h84c0.55273,0,1-0.29883,1-0.66553
			v-0.66803C1027.5,66.29822,1027.05273,65.99933,1026.5,65.99933z M1026.5,55.99982h-84c-0.55267,0-1.00049,0.2984-1.00049,0.6665
			v0.6665c0,0.36768,0.44781,0.6665,1.00049,0.6665h84c0.55273,0,1-0.29883,1-0.6665v-0.6665
			C1027.5,56.29822,1027.05273,55.99982,1026.5,55.99982z M942.42969,62.99933h78.13959c0.51373,0,0.93073-0.29785,0.93073-0.66705
			v-0.66595c0-0.3681-0.41699-0.6665-0.93073-0.6665h-78.13959c-0.51367,0-0.93018,0.2984-0.93018,0.6665v0.66595
			C941.49951,62.70148,941.91602,62.99933,942.42969,62.99933z M942.26709,72.99982h64.46533
			c0.42389,0,0.76758-0.29834,0.76758-0.66754v-0.6665c0-0.36755-0.34369-0.66644-0.76758-0.66644h-64.46533
			c-0.42377,0-0.76758,0.29889-0.76758,0.66644v0.6665C941.49951,72.70148,941.84332,72.99982,942.26709,72.99982z
			 M942.45313,80.99878h80.09277c0.52643,0,0.9541-0.29877,0.9541-0.66547v-0.66803c0-0.36707-0.42767-0.66602-0.9541-0.66602
			h-80.09277c-0.52631,0-0.95361,0.29895-0.95361,0.66602v0.66803C941.49951,80.70001,941.92682,80.99878,942.45313,80.99878z
			 M942.39502,86.00018h75.20947c0.49512,0,0.89551-0.29877,0.89551-0.66797v-0.66699c0-0.3681-0.40039-0.66602-0.89551-0.66602
			h-75.20947c-0.49463,0-0.89551,0.29791-0.89551,0.66602v0.66699C941.49951,85.70142,941.90039,86.00018,942.39502,86.00018z
			 M942.42969,91.00018h78.13959c0.51373,0,0.93073-0.29877,0.93073-0.66699V89.6662c0-0.36908-0.41699-0.66699-0.93073-0.66699
			h-78.13959c-0.51367,0-0.93018,0.29791-0.93018,0.66699v0.66699C941.49951,90.70142,941.91602,91.00018,942.42969,91.00018z
			 M942.39502,52.99933h75.20947c0.49512,0,0.89551-0.29883,0.89551-0.6665v-0.6665c0-0.36865-0.40039-0.66602-0.89551-0.66602
			h-75.20947c-0.49463,0-0.89551,0.29736-0.89551,0.66602v0.6665C941.49951,52.7005,941.90039,52.99933,942.39502,52.99933z
			 M943.97559,32.99939h47.04779c1.36774,0,2.47614-0.56,2.47614-1.25v-2.5c0-0.68988-1.1084-1.25-2.47614-1.25h-47.04779
			c-1.36719,0-2.47607,0.56012-2.47607,1.25v2.5C941.49951,32.43939,942.6084,32.99939,943.97559,32.99939z M943.49951,151H1027.5
			v-2h-84.00049V151z M943.4043,41.99988h36.19092c1.05176,0,1.90479-0.56,1.90479-1.25098v-2.49951
			c0-0.68988-0.85303-1.25-1.90479-1.25H943.4043c-1.05182,0-1.90479,0.56012-1.90479,1.25v2.49951
			C941.49951,41.43988,942.35248,41.99988,943.4043,41.99988z M974.5,147.00012v-27h-10v27H974.5z M996.5,147.00012v-20.00104h-10
			v20.00104H996.5z M985.5,147.00012v-34.99994h-10v34.99994H985.5z M963.5,147.00012v-30.00104h-10v30.00104H963.5z
			 M1013.5,100.33221V99.6662c0-0.36719-0.375-0.66602-0.83789-0.66602h-70.3252c-0.4624,0-0.8374,0.29883-0.8374,0.66602v0.66602
			c0,0.3692,0.375,0.66797,0.8374,0.66797h70.3252C1013.125,101.00018,1013.5,100.70142,1013.5,100.33221z M1008.5,147.00012h10
			v-29.00104h-10V147.00012z M1007.5,147.00012v-6.00104h-10v6.00104H1007.5z M942.39502,96.00018h75.20947
			c0.49512,0,0.89551-0.29877,0.89551-0.66699V94.6662c0-0.36908-0.40039-0.66602-0.89551-0.66602h-75.20947
			c-0.49463,0-0.89551,0.29694-0.89551,0.66602v0.66699C941.49951,95.70142,941.90039,96.00018,942.39502,96.00018z
			 M624.55536,335.83478l1.88922,2.33038l243-196.99994l-1.88922-2.33044L624.55536,335.83478z M347.25342,298.47961l263.99994,44
			l0.49323-2.95923l-264-44L347.25342,298.47961z M332.6449,299.76758l-98,68l1.71021,2.46478l98-67.99994L332.6449,299.76758z
			 M16.03809,303.42706l207,67l0.92383-2.85419l-207-67L16.03809,303.42706z"/>
	</g>
</g>
<g id="XMLID_2_">
	<g id="XMLID_37_">
		<path id="XMLID_38_" class="st1" d="M618.5,329.47961c-5.52283,0-10,4.47717-10,10c0,5.52277,4.47717,10,10,10
			c5.52277,0,10-4.47723,10-10C628.5,333.95679,624.02277,329.47961,618.5,329.47961z M618.5,344.47961c-2.76141,0-5-2.23865-5-5
			c0-2.76141,2.23859-5,5-5c2.76135,0,5,2.23859,5,5C623.5,342.24097,621.26135,344.47961,618.5,344.47961z"/>
	</g>
</g>
<g id="XMLID_3_">
	<g id="XMLID_5_">
		<path id="XMLID_6_" class="st1" d="M341,287.76761c-5.52283,0-10,4.47717-10,10c0,5.52277,4.47717,10,10,10
			c5.52277,0,10-4.47723,10-10C351,292.24478,346.52277,287.76761,341,287.76761z M341,302.76761c-2.76141,0-5-2.23865-5-5
			c0-2.76141,2.23859-5,5-5c2.76135,0,5,2.23859,5,5C346,300.52896,343.76135,302.76761,341,302.76761z"/>
	</g>
</g>
<g id="XMLID_24_">
	<g id="XMLID_30_">
		<path id="XMLID_31_" class="st1" d="M229.50296,358.23242c-5.52283,0-10,4.47717-10,10c0,5.52277,4.47717,10,10,10
			c5.52277,0,10-4.47723,10-10C239.50296,362.70959,235.02573,358.23242,229.50296,358.23242z M229.50296,373.23242
			c-2.76141,0-5-2.23865-5-5c0-2.76141,2.23859-5,5-5c2.76135,0,5,2.23859,5,5
			C234.50296,370.99377,232.26431,373.23242,229.50296,373.23242z"/>
	</g>
</g>
<g id="XMLID_47_">
	<g id="XMLID_49_">
		<path id="XMLID_50_" class="st1" d="M11.50002,289.57291c-5.52283,0-10,4.47717-10,10c0,5.52277,4.47717,10,10,10
			c5.52277,0,10-4.47723,10-10C21.50002,294.05008,17.02278,289.57291,11.50002,289.57291z M11.50002,304.57291
			c-2.76141,0-5-2.23865-5-5c0-2.76141,2.23859-5,5-5c2.76135,0,5,2.23859,5,5
			C16.50002,302.33426,14.26137,304.57291,11.50002,304.57291z"/>
	</g>
</g>
<g id="XMLID_62_">
	<g id="XMLID_64_">
		<path id="XMLID_65_" class="st1" d="M874.75659,124.99962c-5.52283,0-10,4.47717-10,10c0,5.52277,4.47717,10,10,10
			c5.52277,0,10-4.47723,10-10C884.75659,129.47679,880.27936,124.99962,874.75659,124.99962z M874.75659,139.99962
			c-2.76141,0-5-2.23865-5-5c0-2.76141,2.23859-5,5-5c2.76135,0,5,2.23859,5,5
			C879.75659,137.76097,877.51794,139.99962,874.75659,139.99962z"/>
	</g>
</g>
</svg>
