<svg width="100" height="150" viewBox="0 0 160 160" version="1.1" id="Слой_1" xmlns="http://www.w3.org/2000/svg" xmlns:xlink="http://www.w3.org/1999/xlink" x="0px" y="0px"
	 enable-background="new 0 0 100 150" xml:space="preserve">
    <path fill="#FFD200"
          d="M79.59 3.96c41.91 0 76 34.09 76 76s-34.09 76-76 76 -76-34.09-76-76S37.69 3.96 79.59 3.96M79.59-0.04c-44.18 0-80 35.82-80 80s35.82 80 80 80 80-35.82 80-80S123.77-0.04 79.59-0.04L79.59-0.04z"/>
    <path fill="#FFFFFF"
          d="M84 75.51V50.99c5 0.79 9.99 3.18 14.86 7.15l4.2-5.96C97.2 47.71 91 45.03 84 44.24V38h-6v6.04c-13 0.6-21 8.14-21 18.37v0.1c0 10.43 6 15.79 21 19.26v24.92c-8-0.89-13.36-4.17-19.32-9.53l-4.31 5.96C61.33 109.08 69 112.55 78 113.35V123h6v-9.45c12-0.79 21.32-8.04 21.32-18.77C105.32 84.65 99 78.89 84 75.51zM78 74.12c-11-2.88-13.52-6.55-13.52-12.21C64.48 55.85 69 51.09 78 50.69V74.12zM98 95.37c0 6.45-6 11.12-14 11.62V83.06c11 2.88 14 6.36 14 12.21V95.37z"/>
</svg>