<svg width="21" height="21" viewBox="0 0 21 21" fill="none" xmlns="http://www.w3.org/2000/svg">
<path d="M1.7308 11.376C2.2628 11.124 3.7468 10.872 5.0908 10.872C7.4428 10.872 8.7028 12.076 8.7028 13.672C8.7028 15.128 7.6668 16.136 6.1548 16.136C4.8388 16.136 3.3548 15.38 2.5988 14.484L0.246797 17.704C1.4228 19.384 3.9708 20.336 6.0428 20.336C10.0468 20.336 13.1828 17.872 13.1828 13.476C13.1828 9.472 10.4388 7.092 7.0508 7.092H6.3788L6.7708 4.6H12.7628V0.399999H3.0748L1.7308 11.376ZM15.4149 17.312C15.4149 18.796 16.4789 20.168 18.2709 20.168C19.8389 20.168 20.9029 18.796 20.9029 17.312C20.9029 16.052 19.8389 14.68 18.2709 14.68C16.4789 14.68 15.4149 16.052 15.4149 17.312Z" fill="#2B90E8"/>
</svg>
