<svg width="100" height="150" viewBox="0 0 175 143.83" version="1.1" id="Слой_1" xmlns="http://www.w3.org/2000/svg" xmlns:xlink="http://www.w3.org/1999/xlink" x="0px" y="0px"
	 enable-background="new 0 0 100 150" xml:space="preserve">
    <g>
        <path fill="none" stroke="#FF2D56" stroke-width="4" stroke-linecap="round"
              stroke-miterlimit="10"
              d="M150.58 89c-12.38 16.89-32.96 34.73-64.57 51.97 -31.61-17.24-52.19-35.08-64.57-51.97"/>
        <path fill="none" stroke="#FF2D56" stroke-width="4" stroke-linecap="round"
              stroke-miterlimit="10"
              d="M10.25 69C-11 14.31 51.69-21.77 83.54 23.59c1.24 1.76 3.7 1.76 4.94 0 31.85-45.34 94.5-9.31 73.33 45.33"/>
        <path fill-rule="evenodd" clip-rule="evenodd" fill="#FFFFFF"
              d="M173.5 78h-60.72c-0.81 0-1.18-0.54-1.34-0.79 -0.02-0.04-4.65-8.3-4.65-8.3 -0.22-0.55-0.76-1-1.39-1 -0.76 0-1.39 0.54-1.48 1.28l0-0.03 -8.92 32.99L81.66 51.61c0.01 0.02 0.02 0.03-0.01-0.04 -0.06-0.77-0.7-1.39-1.49-1.39 -0.77 0-1.4 0.59-1.48 1.34 -0.01 0.02-0.01 0.02-0.02 0.05l-9.1 32.8c0 0-3.09-5.2-3.32-5.52C65.94 78.42 65.55 78 64.52 78H1.5C0.67 78 0 78.67 0 79.5 0 80.33 0.67 81 1.5 81h61.83c0.81 0 1.18 0.1 1.34 0.35 0.13 0.22 3.81 6.48 3.86 6.55 0.23 0.54 0.76 0.86 1.38 0.86 0.71 0 1.29-0.52 1.45-1.17 0.01 0 8.76-31.63 8.76-31.63l13.36 50.66c0.01 0.03 0 0 0.01 0.02 0.1 0.73 0.72 1.3 1.48 1.3 0.77 0 1.39-0.58 1.48-1.32l9.3-34.32c0 0 4.07 7.37 4.11 7.42C110.17 80.14 110.56 81 111.59 81H173.5c0.83 0 1.5-0.67 1.5-1.5C175 78.67 174.33 78 173.5 78z"/>
    </g>
</svg>

