<svg xmlns="http://www.w3.org/2000/svg" width="31" height="30" viewBox="0 0 31 30">
    <path fill="#100a1c" d="M25.7 28.69v-.05l-1.47-9.03 6.43-6.43a1.17 1.17 0 0 0-.64-1.98l-8.95-1.38-4.05-8.18a1.15 1.15 0 0 0-2.06 0L10.9 9.82 1.95 11.2c-.62.1-1.05.7-.96 1.33.04.25.16.47.33.65l6.43 6.43-1.47 9.03c-.1.63.32 1.23.95 1.34.24.04.5 0 .72-.12L14 26.69c.1-1.05.22-2.38.21-2.8-2.34.51-2.83-1.13-2.83-1.13-.39-.97-.94-1.23-.94-1.23-.76-.53.06-.51.06-.51.84.05 1.29.86 1.29.86.75 1.3 1.97.92 2.45.7.07-.54.29-.91.53-1.12-1.87-.22-3.83-.94-3.83-4.17 0-.92.33-1.67.86-2.26a3.08 3.08 0 0 1 .09-2.23s.7-.23 2.31.86a8.03 8.03 0 0 1 4.22 0c1.61-1.1 2.31-.86 2.31-.86a3 3 0 0 1 .08 2.23c.54.59.87 1.34.87 2.26 0 3.24-1.97 3.95-3.84 4.16.3.26.57.78.57 1.56 0 .79.17 2.8.28 4.06l5.33 2.79a1.16 1.16 0 0 0 1.68-1.17z"/>
</svg>