<?xml version="1.0" encoding="utf-8"?>
<!-- Generator: Adobe Illustrator 16.2.0, SVG Export Plug-In . SVG Version: 6.00 Build 0)  -->
<!DOCTYPE svg PUBLIC "-//W3C//DTD SVG 1.1//EN" "http://www.w3.org/Graphics/SVG/1.1/DTD/svg11.dtd">
<svg version="1.1" id="Слой_1" xmlns="http://www.w3.org/2000/svg" xmlns:xlink="http://www.w3.org/1999/xlink" x="0px" y="0px"
	 width="884px" height="255px" viewBox="0 0 884 255" enable-background="new 0 0 884 255" xml:space="preserve">
<path fill-rule="evenodd" clip-rule="evenodd" fill="#020202" d="M346.67334,173.14453l0.5376-2.95215l263.00098,44
	l-0.53906,2.95117L346.67334,173.14453z"/>
<path fill-rule="evenodd" clip-rule="evenodd" fill="#020202" d="M15.94238,175.0166l206.69092,67.32031l-1.38232,2.66211
	L15.94238,178.39648V175.0166z"/>
<path fill-rule="evenodd" clip-rule="evenodd" fill="#020202" d="M238.69434,242.96582l-1.50439-2.59473l94-65.00098l1.50439,2.5957
	L238.69434,242.96582z"/>
<path fill-rule="evenodd" clip-rule="evenodd" fill="#020202" d="M625.51953,214.05371l-1.15527-2.76953l244-198.00049
	l1.15527,2.76904L625.51953,214.05371z"/>
<path fill="#00B0FF" d="M231,234.99902c-5.52295,0-10,4.47754-10,10.00098c0,5.52246,4.47705,10,10,10c5.52246,0,10-4.47754,10-10
	C241,239.47656,236.52246,234.99902,231,234.99902z M231,250.3916c-2.97852,0-5.39258-2.41406-5.39258-5.3916
	c0-2.97852,2.41406-5.39355,5.39258-5.39355s5.39258,2.41504,5.39258,5.39355C236.39258,247.97754,233.97852,250.3916,231,250.3916z
	"/>
<path fill="#00B0FF" d="M339,161c-5.52295,0-10,4.47656-10,10c0,5.52148,4.47705,10,10,10c5.52246,0,10-4.47852,10-10
	C349,165.47656,344.52246,161,339,161z M339,176.3916c-2.97852,0-5.39258-2.41406-5.39258-5.3916
	c0-2.97852,2.41406-5.39355,5.39258-5.39355s5.39258,2.41504,5.39258,5.39355C344.39258,173.97754,341.97852,176.3916,339,176.3916z
	"/>
<path fill="#00B0FF" d="M619,205c-5.52344,0-10,4.47656-10,9.99902s4.47656,10,10,10c5.52246,0,10-4.47754,10-10
	S624.52246,205,619,205z M619,220.39063c-2.97852,0-5.39258-2.41406-5.39258-5.3916c0-2.97852,2.41406-5.39355,5.39258-5.39355
	s5.39258,2.41504,5.39258,5.39355C624.39258,217.97656,621.97852,220.39063,619,220.39063z"/>
<path fill="#00B0FF" d="M874-0.00098c-5.52344,0-10,4.47705-10,10s4.47656,9.99951,10,9.99951c5.52246,0,10-4.47656,10-9.99951
	S879.52246-0.00098,874-0.00098z M874,15.3916c-2.97852,0-5.39258-2.41455-5.39258-5.39258
	c0-2.97754,2.41406-5.39258,5.39258-5.39258s5.39258,2.41504,5.39258,5.39258C879.39258,12.97705,876.97852,15.3916,874,15.3916z"/>
<path fill="#00B0FF" d="M10,165c-5.52295,0-10,4.47656-10,10c0,5.52148,4.47705,9.99902,10,9.99902c5.52246,0,10-4.47754,10-9.99902
	C20,169.47656,15.52246,165,10,165z M10,180.39258c-2.97852,0-5.39258-2.41504-5.39258-5.39258
	c0-2.97852,2.41406-5.39258,5.39258-5.39258c2.97803,0,5.39258,2.41406,5.39258,5.39258
	C15.39258,177.97754,12.97803,180.39258,10,180.39258z"/>
</svg>
