<svg version="1.1" xmlns="http://www.w3.org/2000/svg" xmlns:xlink="http://www.w3.org/1999/xlink" x="0px" y="0px" viewBox="0 0 1000 1000" enable-background="new 0 0 1000 1000" xml:space="preserve">
    <path d="M355.6,419.8c-5.7,0.4-9.1,3.7-9,9.4c0.1,6.2,4,9.1,9.8,9.5c6.2-0.6,9.9-4.1,9.6-10C365.7,422.8,361.8,419.4,355.6,419.8z"/><path d="M541.7,504.6c7.1-36.2-24.8-65.7-59.3-55.9c-24,6.9-37.5,29.8-34.2,58.3c4.1,36,39,55.4,71.7,39.6c12-5.8,18.8-15.6,21.3-30.2l-16.8,0.3l-1.5,4.3c-6.5,13.1-19.2,18.3-35.1,14.1c-13.5-3.6-21.8-15.2-21.1-30.6C491.7,504.6,516.8,504.6,541.7,504.6z M491.7,462.2c17.6-1.3,29.4,8.2,32.3,27c-19.4,0-38.2,0-57.1,0C467.2,474.6,477.7,463.2,491.7,462.2z"/><path d="M414.9,420.1c-6.3,0-11.6,0-17.8,0c0,9.8,0,19.1,0,29.2c-6.2,0-11.5,0-17.1,0c0,5.2,0,9.7,0,14.9c5.7,0,11,0,17.2,0c0,3.7,0,6.6,0,9.5c0.1,19.2-0.1,38.5,0.3,57.7c0.2,10.1,4,15.4,12.3,16.6c8.1,1.2,16.5,0.9,24.9,1.3c0-5.8,0-10.3,0-15.3c-3.4,0-6.4-0.2-9.3,0c-7.6,0.7-11-2.3-10.6-10.2c0.4-8.7,0.1-17.3,0.1-26c0-11,0-22,0-33.7c7.3,0,13.4,0,19.9,0c0-5,0-9.3,0-14.8c-6.7,0-12.8,0-19.9,0C414.9,439.1,414.9,429.7,414.9,420.1z"/><path d="M348.3,548.3c5.6,0,10.7,0,16.1,0c0-33.1,0-65.6,0-98.7c-5.5,0-10.5,0-16.1,0C348.3,483,348.3,515.6,348.3,548.3z"/><path d="M96.8,515.8c-11.2-10.2-22.2-20.7-33.4-30.9c-5.5-5-6.4-9.4-0.3-14.8c7.7-6.9,15-14.1,22.2-21.5c10.1-10.4,20-21.1,28.4-30c-6.9-8.1-14.2-16.7-22-25.9c-26.7,25.9-52.5,50.6-77.8,75.7c-5.5,5.5-4.8,13.4,1,19c21.2,20.5,42.7,40.7,64.6,61.4c6.3-6,12.3-11.5,18-17.1C104.2,524.9,103.9,522.4,96.8,515.8z"/><path d="M154,486.8c-12-11.2-24-22.4-36.3-33.8c-6.6,6.3-12.3,12-18.3,17.4c-5.5,5-5.2,9.3,0.4,14.2c11.7,10.5,23.1,21.3,34.7,31.9c5.2,4.8,5.7,9.3,0.3,14.4c-11.8,11.2-23.5,22.6-35.1,34c-6.1,6-12,12.3-17.5,18c7.9,8.2,15.5,16.2,23.3,24.4c1.5-0.8,2.1-1,2.5-1.3c24.6-23.7,49.3-47.4,73.8-71.2c7.1-6.9,6.4-15.6-1.2-22.9C171.7,503.5,162.9,495.1,154,486.8z"/><path d="M328.5,518.2c-0.5-10.7-6.5-17.9-16-21.5c-7.8-3-16.1-4.5-24.2-6.9c-7.2-2.2-14.8-3.8-21.4-7.3c-7.8-4.1-7.3-13.6,0.8-17.3c12.2-5.6,34.1-6,39.8,13.1c5.4,0,10.7,0,16.3,0c-0.3-10.5-3.9-18.9-12.4-24.7c-14.2-9.8-44.2-8.9-58.1,1.5c-14.8,11.1-13.8,32.5,2.4,41.3c5.8,3.2,12.6,4.8,19,6.7c8.6,2.5,17.4,4.2,25.8,7c5.6,1.9,10,5.6,9.4,12.6c-0.6,7.2-5.4,10.6-11.5,11.8c-11.5,2.2-13.8,1.9-25.7-0.3c-6.7-1.2-11.4-5.6-13.7-12.5l-1.1-4.4l-16.7-0.1c0.2,12.3,4.4,22,14.6,27.1c18.7,9.4,41.5,9.2,60-0.8C325.5,538.4,329,529,328.5,518.2z"/><path d="M990,463.7c0-5.2,0-9.4,0-14.5c-6.7,0-13.1,0-20.3,0c0-10.2,0-19.6,0-29.1c-6.2,0-11.5,0-17.8,0c0,9.8,0,19.2,0,29.2c-6.1,0-11.1,0-16.3,0c0,5.2,0,9.6,0,14.8c5.5,0,10.5,0,16.5,0c0,3.9,0,7.1,0,10.2c0.2,19.5,0.3,39,0.7,58.5c0.1,7.9,4,13.9,12.1,15c8.2,1.2,16.5,0.9,25,1.3c0-5.8,0-10.3,0-15.4c-4.3,0-8,0-11.8,0c-5.3,0.1-8.2-2.4-8.2-7.7c0-20.3,0-40.6,0-62.4C977.2,463.7,983.5,463.7,990,463.7z"/><path d="M724.7,447c-29.1-2.1-50.3,16.9-52.7,47.4c-2.5,32.3,15.7,54.5,46.5,56.8c29.5,2.3,51.3-16.7,53.5-46.6C774.6,471.3,756.6,449.4,724.7,447z M716.4,535.7c-17.6-2.9-27.5-19.4-25.5-42.8c1.5-17.9,14.2-30.6,30.8-30.7c19.4-0.1,31.9,14.5,31.9,37.2C753.4,523.9,737.7,539.3,716.4,535.7z"/><path d="M802,419.8c-6-0.3-9.9,2.6-10.4,8.8c-0.5,6.3,3.3,9.3,9.4,10.2c5.6-0.5,9.8-3.5,9.9-9.4C811,424,807.8,420.1,802,419.8z"/><path d="M634.6,452.6c-16.9-9.7-40.2-7.2-57.5,6.4l0-9.2c-5.8,0-11,0-16.3,0c0,45.8,0,91,0,136.8c5.6,0,10.8,0,16.9,0c0-16.1,0-31.7,0-48.9c16.6,14.5,33.8,16.7,51.8,10.3c18.1-6.4,25.6-21.4,28.3-39.4C661.1,485.2,651.7,462.4,634.6,452.6z M639.8,500.1c-0.4,5.3-1.3,10.8-2.9,15.9c-4,12.9-13.2,19.7-26.3,20.2c-13.6,0.5-24.2-5.6-29.3-17.5c-5.6-13-5.7-26.4,0-39.4c5-11.5,14.2-17.3,26.8-17.2C627.7,462.2,641.4,478.4,639.8,500.1z"/><path d="M920.2,474.6c-0.6-16-11.3-25.4-27.2-27.3c-15.7-1.8-30.2,1.3-41.3,15.7l-0.1-13.2c-5.6,0-10.8,0-15.7,0c0,33.3,0,66,0,98.6c5.8,0,11.1,0,17.1,0c0-3.8,0-7,0-10.2c0.1-16.8-0.5-33.7,0.5-50.5c1.2-19.5,17.7-29,36.9-24.6c6.8,1.5,11.3,6.6,12.3,13.7c0.7,5.3,0.9,10.8,1,16.2c0.1,18.4,0,36.7,0,55.6c5.9,0,10.9,0,16.6,0C920.5,523.4,921.2,499,920.2,474.6z"/><path d="M793,548.5c5.6,0,10.7,0,16.3,0c0-33.5,0-66.1,0-98.7c-5.7,0-11,0-16.3,0C793,483,793,515.6,793,548.5z"/>
</svg>