<?xml version="1.0" encoding="utf-8"?>
<!-- Generator: Adobe Illustrator 16.0.0, SVG Export Plug-In . SVG Version: 6.00 Build 0)  -->
<!DOCTYPE svg PUBLIC "-//W3C//DTD SVG 1.1//EN" "http://www.w3.org/Graphics/SVG/1.1/DTD/svg11.dtd">
<svg version="1.1" id="Isolation_Mode" xmlns="http://www.w3.org/2000/svg" xmlns:xlink="http://www.w3.org/1999/xlink" x="0px"
	 y="0px" width="819.001px" height="150px" viewBox="-172.62 -31.615 819.001 150"
	 enable-background="new -172.62 -31.615 819.001 150" xml:space="preserve">
<g>
	<polygon fill="#dfdfdf" points="503.556,-25.754 388.114,-25.754 388.114,15.108 423.478,15.108 423.478,112.524 468.196,112.524 468.196,15.108
		503.556,15.108 	"/>
	<polygon fill="#dfdfdf" points="-127.902,71.662 -127.902,-25.754 -172.62,-25.754 -172.62,112.524 -92.542,112.524 -92.542,71.662 	"/>
	<g>
		<path fill="#dfdfdf" d="M-50.985,44.411c0-0.352,0.021-0.675,0.028-1.026c-0.007-0.351-0.028-0.675-0.028-1.03V44.411z"/>
		<path fill="#dfdfdf" d="M14.227-29.479c-44.993,0-64.887,26.489-65.185,72.863c0.297,46.375,20.192,72.863,65.185,72.863
			c44.99,0,64.885-26.488,65.182-72.863C79.112-2.988,59.217-29.479,14.227-29.479z M14.227,77.507
			c-15.855,0-20.947-11.456-20.947-34.122S-1.628,9.263,14.227,9.263c15.853,0,20.94,11.456,20.94,34.122
			S30.08,77.507,14.227,77.507z"/>
		<path fill="#dfdfdf" d="M79.409,43.385c0.003,0.351,0.031,0.675,0.031,1.026v-2.055C79.44,42.71,79.412,43.034,79.409,43.385z"/>
	</g>
	<polygon fill="#dfdfdf" points="193.663,-25.754 174.374,18.641 155.086,-25.754 111.421,-25.754 174.374,118.385 237.327,-25.754 	"/>
	<polygon fill="#dfdfdf" points="370.122,112.524 307.165,-31.615 285.333,18.376 300.726,53.615 269.926,53.615 251.97,94.73 318.724,94.73
		326.454,112.524 	"/>
	<polygon fill="#dfdfdf" points="646.381,112.524 583.425,-31.615 561.593,18.376 576.99,53.615 546.19,53.615 528.231,94.73 594.986,94.73
		602.714,112.524 	"/>
	<g>
		<g>
			<g>
				<path fill="#dfdfdf" d="M637.265-8.46l-2.356-4.816h-1.712v4.816h-2.34v-12.077h4.73c2.451,0,3.923,1.674,3.923,3.694
					c0,1.7-1.033,2.751-2.225,3.177l2.711,5.207H637.265z M635.421-18.437h-2.225v3.19h2.225c1.047,0,1.719-0.66,1.719-1.597
					C637.14-17.772,636.465-18.437,635.421-18.437z"/>
			</g>
			<path fill="#dfdfdf" d="M634.679-3.24c-6.209,0-11.261-5.051-11.261-11.259c0-6.209,5.052-11.257,11.261-11.257
				c6.212,0,11.264,5.047,11.264,11.257C645.943-8.291,640.891-3.24,634.679-3.24z M634.679-24.275
				c-5.393,0-9.778,4.386-9.778,9.776c0,5.389,4.386,9.776,9.778,9.776c5.392,0,9.781-4.388,9.781-9.776
				C644.46-19.889,640.071-24.275,634.679-24.275z"/>
		</g>
	</g>
</g>
</svg>
