<?xml version="1.0" encoding="utf-8"?>
<!-- Generator: Adobe Illustrator 17.1.0, SVG Export Plug-In . SVG Version: 6.00 Build 0)  -->
<!DOCTYPE svg PUBLIC "-//W3C//DTD SVG 1.1//EN" "http://www.w3.org/Graphics/SVG/1.1/DTD/svg11.dtd">
<svg version="1.1" id="Layer_1" xmlns="http://www.w3.org/2000/svg" xmlns:xlink="http://www.w3.org/1999/xlink" x="0px" y="0px"
	 viewBox="0 0 224.87598 194.99982" enable-background="new 0 0 224.87598 194.99982" xml:space="preserve">
<g>
	<g>
		<path fill="#A3CD3A" d="M87.43805,189h-27l-13.99969-24.00012c-2.49939-4.00037-8.0744-1.62457-5.68597,2.56561l15.68561,27.43433
			l31.61841-0.00189C91.3974,194.99792,91.4823,189,87.43805,189z M178.43835,164.99988L164.43799,189h-27
			c-4.04419,0-3.95874,5.99792-0.61774,5.99792l31.6178,0.00189l15.68561-27.43433
			C186.51208,163.37531,180.93707,160.99951,178.43835,164.99988z M88.0564,0.00189L56.43799,0L40.75238,27.4342
			c-2.38843,4.19031,3.18658,6.56598,5.68597,2.56561L60.43805,6.00012h27C91.4823,6.00012,91.3974,0.00189,88.0564,0.00189z
			 M168.43805,0l-31.6178,0.00189c-3.341,0-3.42645,5.99823,0.61774,5.99823h27l14.00037,23.99969
			c2.49872,4.00037,8.07373,1.62469,5.6853-2.56561L168.43805,0z M209.06549,70.33392
			c-1.67053-2.89319-6.90729,0.03186-4.88519,3.5343l13.49969,23.38287l-13.78442,24.12402
			c-2.21472,4.16486,2.6297,7.80469,5.06488,3.6413l15.91553-27.30151L209.06549,70.33392z M7.19611,97.2511l13.50024-23.38287
			c2.02216-3.50244-3.21527-6.42749-4.8858-3.5343L0,97.7149l15.91547,27.30151c2.4353,4.16339,7.28033,0.52356,5.065-3.6413
			L7.19611,97.2511z"/>
	</g>
</g>
<path fill="#FFFFFF" d="M159.9987,102.3307l-21.99991-12.591V64.7571c0-0.7995-0.40039-1.3991-1-1.7984l-22.99989-13.191
	c-0.5996-0.3997-1.3998-0.3997-2.0001,0l-22.9992,13.191c-0.6003,0.3993-1,0.9989-1,1.7984v25.1824l-21.9999,12.3912
	c-0.6003,0.3997-1,0.9993-1,1.7988v26.1813c0,0.7995,0.3997,1.39909,1,1.7988l22.9999,13.1906
	c0.3997,0.19991,0.59959,0.19991,0.9994,0.19991c0.4004,0,0.6002,0,1-0.19991l21.9999-12.591l21.99989,12.591
	c0.3997,0.19991,0.6002,0.19991,1,0.19991c0.3997,0,0.59961,0,1-0.19991l22.99991-13.1906c0.59959-0.3997,1-0.9993,1-1.7988
	v-26.1813C160.9987,103.33,160.5983,102.7304,159.9987,102.3307z M135.99879,93.3368l18.9998,10.7927l-18.9998,10.7922
	L116.999,104.1295L135.99879,93.3368z M112.9989,53.9648l18.9998,10.7923L112.9989,75.5497L93.9991,64.7571L112.9989,53.9648z
	 M91.999,68.1548l19.9998,11.3918c0.6003,0.3997,1.4005,0.3997,2.0001,0l19.9998-11.3918v21.5849l-20.9998,11.9914L91.999,89.7397
	V68.1548z M89.999,93.3368l18.9998,10.7927L89.999,114.9217l-18.9992-10.7922L89.999,93.3368z M89.999,141.1031l-20.9992-11.9915
	v-21.5849l19.9998,11.3923c0.59959,0.3997,1.3998,0.3997,1.9994,0l19.9998-11.3923v21.5849L89.999,141.1031z M156.9986,129.1116
	l-20.9998,11.9915l-20.99989-11.9915v-21.5849l19.99989,11.3923c0.6002,0.3997,1.3997,0.3997,2,0l19.9998-11.3923V129.1116z"/>
</svg>
