<svg width="60" height="60" viewBox="0 0 60 60" fill="none" xmlns="http://www.w3.org/2000/svg">
<g clip-path="url(#clip0_12_983)">
<rect width="60" height="60" rx="30" fill="#2B90E8"/>
<path d="M19.6 34.08C19.6 39.8 23.68 44.48 29.92 44.48C34.52 44.48 39.36 41.32 39.36 35.08C39.36 29.96 35.64 26.56 31.64 26.56C29.36 26.56 27.92 26.96 26.72 28.08C28.36 24.24 31.84 21.44 35.96 20.04L33.52 15.52C27.48 17.12 19.6 23.8 19.6 34.08ZM26 34.12C26.72 33.08 27.84 32.16 29.56 32.16C31.8 32.16 32.96 33.6 32.96 35.52C32.96 36.96 32.08 38.48 29.96 38.48C27.44 38.48 26 36.76 26 34.12Z" fill="white"/>
</g>
<defs>
<clipPath id="clip0_12_983">
<rect width="60" height="60" rx="30" fill="white"/>
</clipPath>
</defs>
</svg>
