<svg width="60" height="60" viewBox="0 0 60 60" fill="none" xmlns="http://www.w3.org/2000/svg">
<g clip-path="url(#clip0_12_965)">
<rect width="60" height="60" rx="30" fill="#2B90E8"/>
<path d="M28.64 44.48C34 44.48 38.16 41.28 38.16 36C38.16 32.64 36.36 30.04 32.92 29.36V29.24C35.72 27.96 37.08 26 37.08 22.68C37.08 18.28 33.6 15.52 28.68 15.52C24.72 15.52 21.72 16.96 20 19.72L23.28 24.04C24.84 22.12 26.4 21.52 28.12 21.52C30 21.52 30.68 22.68 30.68 23.88C30.68 25.8 28.96 26.68 26.84 26.68H25.24V32.68H27C30.12 32.68 31.76 33.64 31.76 35.76C31.76 37.2 30.68 38.48 28.24 38.48C25.88 38.48 24.12 37 22.72 35.4L19.4 39.84C20.88 42.36 23.96 44.48 28.64 44.48Z" fill="white"/>
</g>
<defs>
<clipPath id="clip0_12_965">
<rect width="60" height="60" rx="30" fill="white"/>
</clipPath>
</defs>
</svg>
