<svg width="60" height="60" viewBox="0 0 60 60" fill="none" xmlns="http://www.w3.org/2000/svg">
<g clip-path="url(#clip0_12_977)">
<rect width="60" height="60" rx="30" fill="#2B90E8"/>
<path d="M20.52 31.68C21.28 31.32 23.4 30.96 25.32 30.96C28.68 30.96 30.48 32.68 30.48 34.96C30.48 37.04 29 38.48 26.84 38.48C24.96 38.48 22.84 37.4 21.76 36.12L18.4 40.72C20.08 43.12 23.72 44.48 26.68 44.48C32.4 44.48 36.88 40.96 36.88 34.68C36.88 28.96 32.96 25.56 28.12 25.56H27.16L27.72 22H36.28V16H22.44L20.52 31.68Z" fill="white"/>
</g>
<defs>
<clipPath id="clip0_12_977">
<rect width="60" height="60" rx="30" fill="white"/>
</clipPath>
</defs>
</svg>
