<svg width="22" height="21" viewBox="0 0 22 21" fill="none" xmlns="http://www.w3.org/2000/svg">
<path d="M0.656406 20H13.3124V16.08H6.08841C7.54441 14.96 12.6404 10.984 12.6404 5.468C12.6404 2.696 10.6804 0.176 6.87241 0.176C3.42841 0.176 1.32841 2.108 0.712406 4.88L4.21241 6.476C4.63241 5.3 5.16441 4.376 6.36841 4.376C7.48841 4.376 8.16041 4.908 8.16041 6.308C8.16041 9.752 3.84841 13.504 0.656406 16.64V20ZM15.5653 17.312C15.5653 18.796 16.6293 20.168 18.4213 20.168C19.9893 20.168 21.0533 18.796 21.0533 17.312C21.0533 16.052 19.9893 14.68 18.4213 14.68C16.6293 14.68 15.5653 16.052 15.5653 17.312Z" fill="#2B90E8"/>
</svg>
