<svg width="22" height="21" viewBox="0 0 22 21" fill="none" xmlns="http://www.w3.org/2000/svg">
<path d="M0.348516 13.056C0.348516 17.06 3.20452 20.336 7.57252 20.336C10.7925 20.336 14.1805 18.124 14.1805 13.756C14.1805 10.172 11.5765 7.792 8.77652 7.792C7.18052 7.792 6.17252 8.072 5.33252 8.856C6.48052 6.168 8.91652 4.208 11.8005 3.228L10.0925 0.0639997C5.86452 1.184 0.348516 5.86 0.348516 13.056ZM4.82852 13.084C5.33252 12.356 6.11652 11.712 7.32052 11.712C8.88852 11.712 9.70052 12.72 9.70052 14.064C9.70052 15.072 9.08452 16.136 7.60052 16.136C5.83652 16.136 4.82852 14.932 4.82852 13.084ZM16.1532 17.312C16.1532 18.796 17.2172 20.168 19.0092 20.168C20.5772 20.168 21.6412 18.796 21.6412 17.312C21.6412 16.052 20.5772 14.68 19.0092 14.68C17.2172 14.68 16.1532 16.052 16.1532 17.312Z" fill="#2B90E8"/>
</svg>
