<svg xmlns="http://www.w3.org/2000/svg" xmlns:xlink="http://www.w3.org/1999/xlink" preserveAspectRatio="xMidYMid" width="441" height="582" viewBox="0 0 441 582">
    <defs>
        <style>

            .cls-2 {
            fill: #000000;
            opacity: 0.06;
            }
        </style>
    </defs>
    <path d="M396.900,582.000 C396.900,582.000 44.100,582.000 44.100,582.000 C19.792,582.000 -0.000,562.229 -0.000,537.909 C-0.000,537.909 -0.000,44.091 -0.000,44.091 C-0.000,19.788 19.792,-0.000 44.100,-0.000 C44.100,-0.000 396.900,-0.000 396.900,-0.000 C421.225,-0.000 441.000,19.788 441.000,44.091 C441.000,44.091 441.000,537.909 441.000,537.909 C441.000,562.229 421.225,582.000 396.900,582.000 ZM423.360,44.091 C423.360,29.506 411.488,17.636 396.900,17.636 C396.900,17.636 44.100,17.636 44.100,17.636 C29.512,17.636 17.640,29.506 17.640,44.091 C17.640,44.091 17.640,537.909 17.640,537.909 C17.640,552.494 29.512,564.363 44.100,564.363 C44.100,564.363 396.900,564.363 396.900,564.363 C411.488,564.363 423.360,552.494 423.360,537.909 C423.360,537.909 423.360,44.091 423.360,44.091 ZM388.080,529.091 C388.080,529.091 299.880,529.091 299.880,529.091 C295.011,529.091 291.060,525.140 291.060,520.273 C291.060,515.405 295.011,511.454 299.880,511.454 C299.880,511.454 388.080,511.454 388.080,511.454 C392.949,511.454 396.900,515.405 396.900,520.273 C396.900,525.140 392.949,529.091 388.080,529.091 ZM388.080,476.182 C388.080,476.182 370.440,476.182 370.440,476.182 C365.571,476.182 361.620,472.231 361.620,467.363 C361.620,462.496 365.571,458.545 370.440,458.545 C370.440,458.545 388.080,458.545 388.080,458.545 C392.949,458.545 396.900,462.496 396.900,467.363 C396.900,472.231 392.949,476.182 388.080,476.182 ZM388.080,123.454 C388.080,123.454 370.440,123.454 370.440,123.454 C365.571,123.454 361.620,119.504 361.620,114.636 C361.620,109.769 365.571,105.818 370.440,105.818 C370.440,105.818 388.080,105.818 388.080,105.818 C392.949,105.818 396.900,109.769 396.900,114.636 C396.900,119.504 392.949,123.454 388.080,123.454 ZM388.080,70.545 C388.080,70.545 299.880,70.545 299.880,70.545 C295.011,70.545 291.060,66.595 291.060,61.727 C291.060,56.859 295.011,52.909 299.880,52.909 C299.880,52.909 388.080,52.909 388.080,52.909 C392.949,52.909 396.900,56.859 396.900,61.727 C396.900,66.595 392.949,70.545 388.080,70.545 ZM264.600,70.545 C264.600,70.545 229.320,70.545 229.320,70.545 C224.451,70.545 220.500,66.595 220.500,61.727 C220.500,56.859 224.451,52.909 229.320,52.909 C229.320,52.909 264.600,52.909 264.600,52.909 C269.469,52.909 273.420,56.859 273.420,61.727 C273.420,66.595 269.469,70.545 264.600,70.545 ZM194.040,70.545 C194.040,70.545 52.920,70.545 52.920,70.545 C48.051,70.545 44.100,66.595 44.100,61.727 C44.100,56.859 48.051,52.909 52.920,52.909 C52.920,52.909 194.040,52.909 194.040,52.909 C198.909,52.909 202.860,56.859 202.860,61.727 C202.860,66.595 198.909,70.545 194.040,70.545 ZM52.920,105.818 C52.920,105.818 123.480,105.818 123.480,105.818 C128.349,105.818 132.300,109.769 132.300,114.636 C132.300,119.504 128.349,123.454 123.480,123.454 C123.480,123.454 52.920,123.454 52.920,123.454 C48.051,123.454 44.100,119.504 44.100,114.636 C44.100,109.769 48.051,105.818 52.920,105.818 ZM52.920,458.545 C52.920,458.545 123.480,458.545 123.480,458.545 C128.349,458.545 132.300,462.496 132.300,467.363 C132.300,472.231 128.349,476.182 123.480,476.182 C123.480,476.182 52.920,476.182 52.920,476.182 C48.051,476.182 44.100,472.231 44.100,467.363 C44.100,462.496 48.051,458.545 52.920,458.545 ZM335.160,476.182 C335.160,476.182 158.760,476.182 158.760,476.182 C153.891,476.182 149.940,472.231 149.940,467.363 C149.940,462.496 153.891,458.545 158.760,458.545 C158.760,458.545 335.160,458.545 335.160,458.545 C340.029,458.545 343.980,462.496 343.980,467.363 C343.980,472.231 340.029,476.182 335.160,476.182 ZM388.080,291.000 C388.080,293.680 386.863,296.203 384.764,297.895 C384.764,297.895 296.564,368.441 296.564,368.441 C294.941,369.728 292.983,370.363 291.060,370.363 C288.484,370.363 285.909,369.235 284.163,367.048 C281.129,363.238 281.728,357.701 285.539,354.650 C285.539,354.650 365.130,291.000 365.130,291.000 C365.130,291.000 285.539,227.350 285.539,227.350 C281.728,224.299 281.129,218.761 284.163,214.952 C287.214,211.160 292.771,210.560 296.564,213.576 C296.564,213.576 384.764,284.122 384.764,284.122 C386.863,285.797 388.080,288.319 388.080,291.000 ZM250.453,171.478 C255.163,172.731 257.950,177.580 256.697,182.272 C256.697,182.272 201.907,386.712 201.907,386.712 C200.867,390.645 197.303,393.255 193.405,393.255 C192.646,393.255 191.888,393.150 191.112,392.956 C186.402,391.686 183.615,386.854 184.867,382.144 C184.867,382.144 239.639,177.722 239.639,177.722 C240.909,173.012 245.708,170.261 250.453,171.478 ZM158.760,105.818 C158.760,105.818 335.160,105.818 335.160,105.818 C340.029,105.818 343.980,109.769 343.980,114.636 C343.980,119.504 340.029,123.454 335.160,123.454 C335.160,123.454 158.760,123.454 158.760,123.454 C153.891,123.454 149.940,119.504 149.940,114.636 C149.940,109.769 153.891,105.818 158.760,105.818 ZM156.819,367.048 C155.091,369.235 152.515,370.363 149.940,370.363 C148.017,370.363 146.059,369.728 144.436,368.441 C144.436,368.441 56.236,297.895 56.236,297.895 C54.137,296.203 52.920,293.680 52.920,291.000 C52.920,288.319 54.137,285.797 56.236,284.104 C56.236,284.104 144.436,213.559 144.436,213.559 C148.264,210.525 153.785,211.142 156.837,214.934 C159.871,218.744 159.254,224.282 155.461,227.332 C155.461,227.332 75.852,291.000 75.852,291.000 C75.852,291.000 155.444,354.650 155.444,354.650 C159.236,357.701 159.854,363.238 156.819,367.048 ZM52.920,511.454 C52.920,511.454 264.600,511.454 264.600,511.454 C269.469,511.454 273.420,515.405 273.420,520.273 C273.420,525.140 269.469,529.091 264.600,529.091 C264.600,529.091 52.920,529.091 52.920,529.091 C48.051,529.091 44.100,525.140 44.100,520.273 C44.100,515.405 48.051,511.454 52.920,511.454 Z" id="path-1" class="cls-2" fill-rule="evenodd"/>
</svg>