<svg width="22" height="21" viewBox="0 0 22 21" fill="none" xmlns="http://www.w3.org/2000/svg">
<path d="M6.4687 20.336C10.2207 20.336 13.1327 18.096 13.1327 14.4C13.1327 12.048 11.8727 10.228 9.4647 9.752V9.668C11.4247 8.772 12.3767 7.4 12.3767 5.076C12.3767 1.996 9.9407 0.0639997 6.4967 0.0639997C3.7247 0.0639997 1.6247 1.072 0.420703 3.004L2.7167 6.028C3.8087 4.684 4.9007 4.264 6.1047 4.264C7.4207 4.264 7.8967 5.076 7.8967 5.916C7.8967 7.26 6.6927 7.876 5.2087 7.876H4.0887V12.076H5.3207C7.5047 12.076 8.6527 12.748 8.6527 14.232C8.6527 15.24 7.8967 16.136 6.1887 16.136C4.5367 16.136 3.3047 15.1 2.3247 13.98L0.000703145 17.088C1.0367 18.852 3.1927 20.336 6.4687 20.336ZM15.661 17.312C15.661 18.796 16.725 20.168 18.517 20.168C20.085 20.168 21.149 18.796 21.149 17.312C21.149 16.052 20.085 14.68 18.517 14.68C16.725 14.68 15.661 16.052 15.661 17.312Z" fill="#2B90E8"/>
</svg>
