<svg xmlns="http://www.w3.org/2000/svg" width="819.001" height="150" viewBox="-172.62 -31.615 819.001 150"><path fill="#fff" d="M503.556-25.754H388.114v40.862h35.364v97.416h44.718V15.108h35.36zM-127.902 71.662v-97.416h-44.718v138.278h80.078V71.662z"/><g fill="#fff"><path d="M-50.985 44.411c0-.352.021-.675.028-1.026-.007-.351-.028-.675-.028-1.03v2.056z"/><path d="M14.227-29.479c-44.993 0-64.887 26.489-65.185 72.863.297 46.375 20.192 72.863 65.185 72.863 44.99 0 64.885-26.488 65.182-72.863-.297-46.372-20.192-72.863-65.182-72.863zm0 106.986c-15.855 0-20.947-11.456-20.947-34.122S-1.628 9.263 14.227 9.263c15.853 0 20.94 11.456 20.94 34.122s-5.087 34.122-20.94 34.122zM79.409 43.385c.003.351.031.675.031 1.026v-2.055c0 .354-.028.678-.031 1.029z"/></g><path fill="#fff" d="M193.663-25.754l-19.289 44.395-19.288-44.395h-43.665l62.953 144.139 62.953-144.139zM370.122 112.524L307.165-31.615l-21.832 49.991 15.393 35.239h-30.8L251.97 94.73h66.754l7.73 17.794zM646.381 112.524L583.425-31.615l-21.832 49.991 15.397 35.239h-30.8L528.231 94.73h66.755l7.728 17.794zM637.265-8.46l-2.356-4.816h-1.712v4.816h-2.34v-12.077h4.73c2.451 0 3.923 1.674 3.923 3.694 0 1.7-1.033 2.751-2.225 3.177l2.711 5.207h-2.731zm-1.844-9.977h-2.225v3.19h2.225c1.047 0 1.719-.66 1.719-1.597 0-.928-.675-1.593-1.719-1.593z"/><path fill="#fff" d="M634.679-3.24c-6.209 0-11.261-5.051-11.261-11.259 0-6.209 5.052-11.257 11.261-11.257 6.212 0 11.264 5.047 11.264 11.257 0 6.208-5.052 11.259-11.264 11.259zm0-21.035c-5.393 0-9.778 4.386-9.778 9.776 0 5.389 4.386 9.776 9.778 9.776s9.781-4.388 9.781-9.776c0-5.39-4.389-9.776-9.781-9.776z"/></svg>