<svg xmlns="http://www.w3.org/2000/svg" width="83" height="89" viewBox="0 0 83 89"><path fill="#465edb" d="M31.63 7.37v-.42l4.3-4h3.04L34.2 7.37zm0-4.42h1.4l-1.4 1.31zm13.26 0l-4.76 4.42H37.1l4.76-4.42zm5.93 0l-4.76 4.42h-3.03l4.75-4.42zm5.93 0l-4.77 4.43h-3.03l4.76-4.43zm5.93 0L57.9 7.38h-3.03l4.76-4.43zm5.93 0l-4.77 4.43H60.8l4.76-4.43zm5.92 0l-4.77 4.43h-3.03l4.76-4.43zm5.01 0V4l-5.09 4.73c-.22-.84-.74-1.2-1.84-1.3l4.81-4.48zm0 66.38h-3.92l3.92-3.64zm-4.94-4.95l4.94-4.59V63l-4.94 4.6zm0-5.9l4.94-4.59v3.21L74.6 61.7zm0-5.9L79.54 48v3.21L74.6 55.8zm0-5.9l4.94-4.59v3.21L74.6 49.9zm0-5.9l4.94-4.59v3.21L74.6 44zm0-5.9l4.94-4.59v3.21L74.6 38.1zm0-5.9l4.94-4.59v3.21L74.6 32.2zm0-5.9l4.94-4.59v3.21L74.6 26.3zm0-5.9l4.94-4.6v3.22L74.6 20.4zm0-5.9l4.94-4.6V9.9L74.6 14.5zM21.62 7.37h-.18c-.96.09-1.7.9-1.7 1.86v22.75a12.95 12.95 0 0 0-5.62 10.64c0 4.72 1.33 9.58 3.54 13.45.07.11.15.21.21.32v5.56l-12.3 7.04-.06.03A8.57 8.57 0 0 0 1 76.47v10.67c0 1.02.84 1.85 1.87 1.85h48.74c1.04 0 1.75-.93 1.75-1.96v-7.37h19.35c1.05 0 1.89-.83 1.89-1.86v-5.52h6.42c1.1 0 1.98-.88 1.98-1.97V1.97C83 .88 82.12 0 81.02 0H30.14c-1.09 0-1.97.88-1.97 1.97v5.4zm50.02 69.34H53.36c-.08-1.3-1.31-4.26-1.97-5.4l.17-.01H65a1.48 1.48 0 0 0 1.7-1.48c.01-.31-.07-.57-.23-.78a1.46 1.46 0 0 0-1.46-.68V68H51v.35h-3.07l-11.31-6.4v-5.56l.2-.32a27.53 27.53 0 0 0 3.14-8.84 14.06 14.06 0 0 0 13.53 10.23c7.74 0 14.06-6.25 14.06-13.92 0-7.66-6.32-13.91-14.06-13.91A14.06 14.06 0 0 0 40 39.66a13.13 13.13 0 0 0-12.77-10.03c-1.3 0-3.31.5-4.5.86V10.33h48.9zM27.18 32.45c5.76 0 10.38 4.47 10.38 10.01a26 26 0 0 1-3.37 12.55c-2.06 3.48-4.68 4.98-7 4.98-2.34 0-4.96-1.5-7.01-4.98a26 26 0 0 1-3.38-12.55c0-5.54 4.62-10.01 10.38-10.01zm25.69 0v22.13C47.45 54.58 42 49.05 42 43.51c0-5.53 5.45-11.06 10.87-11.06zm2.47 0c5.41.96 9.88 5.53 9.88 11.06 0 1.33-.56 3.5-1 4.68l-8.88-4.92zm0 13.77l7.4 3.93c-1.68 1.93-4.72 3.95-7.4 4.43zM20.76 60.48c1.63 1.31 4.38 2.54 6.48 2.54 2.1 0 4.73-1.23 6.36-2.54v2.46c0 .66 1.4 1.64 1.98 1.97l10.69 5.76c-.39-.22-.08-.1.51.28l.65.35-.56-.3c1.24.8 3.53 2.52 3.53 4.23v10.82H3.96v-9.34c0-2.6 1.58-3.92 3.46-5.41l11.86-6.39a4.3 4.3 0 0 0 1.48-2.46zm6.43-37.86a1.47 1.47 0 0 0 2 1.38h12.78A1.5 1.5 0 0 0 43 24a1.46 1.46 0 0 0 0-2.75V21H29v.2a1.47 1.47 0 0 0-1.81 1.42zM49.9 64.91c0 .81.66 1.46 1.48 1.46.38 0 .73-.14.99-.37h11.86a1.47 1.47 0 0 0 2.45-1.09A1.46 1.46 0 0 0 65 63.46V63H51v.5c-.63.16-1.1.73-1.1 1.41zM27.19 17.22A1.48 1.48 0 0 0 29 18.65V19h17v-.38a1.48 1.48 0 0 0 1.94-1.4A1.48 1.48 0 0 0 45.63 16H29.5a1.49 1.49 0 0 0-2.31 1.22z"/></svg>