<svg xmlns="http://www.w3.org/2000/svg" width="182" height="182" viewBox="0 0 182 182"><path fill="#3f4c91" d="M91 7.17c46.23 0 83.83 37.6 83.83 83.83s-37.6 83.83-83.83 83.83S7.17 137.23 7.17 91 44.78 7.17 91 7.17zM0 91a91 91 0 1 0 182.01-.01A91 91 0 0 0 0 91zm96.02-5.06V58.05c5.68.89 11.36 3.61 16.9 8.13l4.78-6.78c-6.67-5.09-13.72-8.13-21.68-9.03v-7.1h-6.83v6.87c-14.79.68-23.89 9.26-23.89 20.9v.11c0 11.86 6.83 17.96 23.89 21.91v28.34c-9.1-1.01-15.2-4.74-21.97-10.84l-4.9 6.78c7.9 6.78 16.63 10.73 26.87 11.64v10.98h6.83v-10.75c13.65-.9 24.25-9.15 24.25-21.35 0-11.53-7.19-18.08-24.25-21.92zm-6.83-1.58c-12.51-3.28-15.38-7.45-15.38-13.89 0-6.9 5.14-12.31 15.38-12.77zm22.75 24.17c0 7.34-6.82 12.65-15.92 13.22V94.53c12.51 3.27 15.92 7.23 15.92 13.88z"/></svg>