<svg xmlns="http://www.w3.org/2000/svg" width="350" height="352" viewBox="0 0 350 352"><path fill="#f7e438" d="M1 273.94l66.53 6.94L78.92 352l63.47-63.59-5.26-10.29-28.88 16.78-6.39-33.07-32.33 7.87 3.07-33.56-32.22-1.66zM272.07 352l11.38-71.12 66.54-6.94-39.4-39.46-32.2 1.66 3.08 33.56-32.35-7.87-6.4 33.07-28.85-16.78-5.28 10.29zm14.7-257.78l11.04-28.13-29.87-1.52 2.76-30.13-29.08 7.06-5.74-29.7-25.94 15.06L196.18 0l-20.69 21.85L154.8 0l-13.77 26.86L115.1 11.8l-5.74 29.7-29.08-7.06 2.77 30.13-29.87 1.52 11.04 28.13-28.23 9.97 18.42 23.84-24.31 17.62 24.31 17.62L36 187.09l28.23 9.99-11.04 28.12 29.87 1.54-2.77 30.11 29.08-7.07 5.74 29.72 25.93-15.06 13.77 26.86 20.7-21.85 20.68 21.85 13.77-26.86 25.94 15.06 5.74-29.72 29.08 7.07-2.76-30.11 29.86-1.54-11.04-28.12 28.23-9.99-18.43-23.82 24.31-17.62-24.3-17.62L315 104.19zM175.5 254.92c-60.25 0-109.09-48.93-109.09-109.27 0-60.35 48.84-109.27 109.09-109.27 60.24 0 109.08 48.92 109.08 109.27 0 60.34-48.84 109.27-109.08 109.27zm89.4-109.27c0-49.46-40.04-89.55-89.4-89.55-49.38 0-89.4 40.09-89.4 89.55 0 49.46 40.02 89.54 89.4 89.54 49.36 0 89.4-40.08 89.4-89.54z"/></svg>