<svg xmlns="http://www.w3.org/2000/svg" width="79" height="79" viewBox="0 0 79 79"><path fill="#465edb" d="M32.39 7.69h3.33l3.88-4.37h-3.33zm6 0h3.33l3.88-4.37h-3.33zm6 0h3.33l3.88-4.37h-3.33zm6 0h3.33l3.88-4.37h-3.33zm6 0h3.33l3.88-4.37h-3.33zm6 0h3.33l3.88-4.37h-3.33zm6 0h1.17c.58 0 1.1.28 1.4.72l4.53-5.09h-3.22zm2.92 3.34v2.99l4.37-4.92V6.11zm0 6v2.99l4.37-4.92V12.1zm0 6v2.99l4.37-4.92v-2.99zm0 6v2.98l4.37-4.91V24.1zm0 6v3l4.37-4.92v-3zm0 6v2.99l4.37-4.92V36.1zm0 6v1.66h.58l3.79-3.79v-2.79zm0 10.53c0 .97-.78 1.75-1.75 1.75H45.9l-.19-.02-.19.02c-.97 0-1.75-.78-1.75-1.75V51a1.36 1.36 0 0 1-.03-.29 4.71 4.71 0 0 1 3.18-4.25c1.57-.57 3.15-.2 4.12.96l.07.1a3.42 3.42 0 1 0 0-3.98l-.07.1c-.98 1.18-2.57 1.55-4.15.98a4.7 4.7 0 0 1-3.15-4.26l.03-.3v-4.75h-5.12c-.28 0-.56.22-.72.43-.22.28-.27.54-.27.64a6.88 6.88 0 1 1-8.28.01 1.41 1.41 0 0 0-.3-.66c-.21-.26-.47-.42-.67-.42l-.07-.01-.07.01h-6.72c-.8 0-1.46-.54-1.67-1.27a1.78 1.78 0 0 1-.15-.69V9.45c0-.97.79-1.76 1.76-1.76h5.5V1.11c0-.62.5-1.11 1.11-1.11h49.79C78.5 0 79 .49 79 1.11V50.9c0 .61-.5 1.11-1.11 1.11h-6.58zm-3.5-1.75v-20.5h-4.89l-.07-.01-.06.01a4.74 4.74 0 0 1-4.28-3.22c-.58-1.59-.21-3.18.96-4.15l.1-.08a3.5 3.5 0 1 0-4.06 0l.09.08c1.19.98 1.56 2.59.98 4.18a4.72 4.72 0 0 1-4.29 3.19h-5.02v4.75l-.03.3c0 .29.24.58.46.75.29.22.54.26.66.26a6.94 6.94 0 0 1 5.52-2.77 6.94 6.94 0 0 1 0 13.86 6.97 6.97 0 0 1-5.52-2.75c-.12 0-.4.08-.67.3-.21.16-.36.36-.42.54v5.26zm0-44.61H47.27v4.7c0 .12-.01.24-.03.35l.01.08a4.7 4.7 0 0 1-3.17 4.23c-1.57.57-3.14.2-4.11-.96l-.07-.1a3.36 3.36 0 0 0-2.75-1.42 3.4 3.4 0 0 0 0 6.79 3.4 3.4 0 0 0 2.75-1.42l.07-.1c.98-1.17 2.56-1.54 4.14-.97a4.67 4.67 0 0 1 3.14 4.24l-.01.03c.02.1.03.19.03.3v4.85h5.02c.32 0 .62-.26.79-.5.23-.3.27-.57.27-.67a7.01 7.01 0 1 1 8.37.01c.02.03.06.34.32.68.23.29.52.48.75.48h5.02zm-24.04 0H23.24v20.6h5.03l.07.01.07-.01c1.8 0 3.54 1.3 4.21 3.17.57 1.56.2 3.13-.95 4.09l-.1.08a3.37 3.37 0 1 0 3.92 0l-.1-.08c-1.17-.97-1.54-2.55-.97-4.12a4.65 4.65 0 0 1 4.23-3.14h5.12v-4.85-.03l-.03-.3c0-.28-.23-.56-.44-.73a1.15 1.15 0 0 0-.65-.27 6.91 6.91 0 0 1-5.5 2.76 6.9 6.9 0 1 1 5.49-11.06c.13-.01.4-.09.67-.31.26-.21.43-.48.43-.68 0-.12.01-.24.04-.35l-.01-.08zM1.05 69.58L7.2 45.56l.05-.16.02-.14a1.77 1.77 0 0 1 2.14-1.27l7.22 1.85h.02l.02.01.09.02a4.67 4.67 0 0 1 3.14 4.02c.16 1.64-.58 3.05-1.92 3.69l-.11.05a3.23 3.23 0 0 0-1.97 2.22 3.2 3.2 0 0 0 .35 2.47 3.2 3.2 0 0 0 1.99 1.49 3.24 3.24 0 0 0 3.29-5.24l-.07-.1c-.88-1.21-.85-2.82.08-4.19a4.64 4.64 0 0 1 4.79-1.97l7.39 1.92.19.07.13.05.17.1.13.08.13.12.12.11.1.14.09.13.08.17.07.14.04.19.04.14.01.2.01.14-.03.2-.03.15v.01l-1.8 7.08v.02c-.05.2.03.47.21.72.18.24.4.37.51.41a6.74 6.74 0 1 1 2.51 11.8 6.75 6.75 0 0 1-4.52-3.89c-.13-.02-.39 0-.67.13-.27.13-.47.32-.51.49-.03.12-.07.22-.12.33l-1.83 7.22a1.75 1.75 0 0 1-2.13 1.27l-.09-.03-.08-.01-24.14-6.19a1.77 1.77 0 0 1-1.26-2.14zm3.83-.82l20.9 5.35 1.51-5.95c.05-.2.14-.39.25-.55a4.7 4.7 0 0 1 3.81-2.6c1.63-.15 3.03.58 3.67 1.92l.05.12c.38.98 1.18 1.7 2.2 1.96a3.24 3.24 0 0 0 1.6-6.26 3.19 3.19 0 0 0-2.87.66l-.1.07c-1.21.88-2.81.85-4.17-.08a4.65 4.65 0 0 1-2.02-4.56l1.44-5.65-5.58-1.45-.1-.02c-.2-.05-.48.04-.73.22-.24.18-.37.4-.41.52a6.8 6.8 0 0 1-1.84 10.02 6.73 6.73 0 0 1-9.99-7.5 6.79 6.79 0 0 1 3.91-4.54c.02-.13 0-.4-.13-.68-.13-.27-.32-.47-.49-.52l-5.55-1.41zm70.8-20.07v-.95l-.95.95zM30.31 3.32v3.7l3.3-3.7z"/></svg>