<svg xmlns="http://www.w3.org/2000/svg" width="76" height="78" viewBox="0 0 76 78"><path fill="#465edb" d="M6.1 28.31a1.7 1.7 0 1 1 .01 3.4 1.7 1.7 0 0 1 0-3.4zm4.54 4.53a1.7 1.7 0 1 1-1.7 1.71c0-.94.76-1.71 1.7-1.71zm-4.53 4.53c.94 0 1.7.76 1.7 1.69a1.7 1.7 0 0 1-1.7 1.69 1.7 1.7 0 0 1-1.7-1.69c0-.93.76-1.69 1.7-1.69zm9.06 0c.94 0 1.7.76 1.7 1.69a1.7 1.7 0 0 1-1.7 1.69 1.7 1.7 0 0 1-1.7-1.69c0-.93.76-1.69 1.7-1.69zm-4.53 4.54c.94 0 1.7.75 1.7 1.68a1.7 1.7 0 0 1-1.7 1.69 1.7 1.7 0 0 1-1.7-1.69c0-.93.76-1.68 1.7-1.68zm-4.53 4.53c.94 0 1.7.75 1.7 1.68a1.7 1.7 0 0 1-1.7 1.69 1.7 1.7 0 0 1-1.7-1.69c0-.93.76-1.68 1.7-1.68zm9.06 0c.94 0 1.7.75 1.7 1.68a1.7 1.7 0 0 1-1.7 1.69 1.7 1.7 0 0 1-1.7-1.69c0-.93.76-1.68 1.7-1.68zm-4.53 4.53c.94 0 1.7.75 1.7 1.69a1.7 1.7 0 0 1-1.7 1.68 1.7 1.7 0 0 1-1.7-1.68c0-.94.76-1.69 1.7-1.69zm9.06 0c.94 0 1.7.75 1.7 1.69 0 .93-.76 1.68-1.7 1.68s-1.7-.75-1.7-1.68c0-.94.76-1.69 1.7-1.69zm-4.53 4.53c.94 0 1.7.76 1.7 1.69a1.7 1.7 0 0 1-1.7 1.68c-.94 0-1.7-.75-1.7-1.68 0-.93.76-1.69 1.7-1.69zm9.1 0c.94 0 1.7.76 1.7 1.69a1.7 1.7 0 0 1-1.7 1.68 1.7 1.7 0 0 1-1.7-1.68c0-.93.76-1.69 1.7-1.69zM10.64 60a1.7 1.7 0 1 1 0 3.4 1.7 1.7 0 0 1 0-3.4zm9.06 0a1.7 1.7 0 0 1 0 3.41 1.7 1.7 0 0 1 0-3.41zm9.1 0a1.7 1.7 0 1 1 0 3.4 1.7 1.7 0 0 1 0-3.4zm9.06 0a1.7 1.7 0 0 1 0 3.41 1.7 1.7 0 1 1 0-3.41zm-22.69 4.53a1.7 1.7 0 1 1 0 3.4 1.7 1.7 0 0 1 0-3.4zm9.1 0a1.7 1.7 0 1 1 0 3.4 1.7 1.7 0 0 1 0-3.4zm9.06 0a1.7 1.7 0 0 1 0 3.41 1.7 1.7 0 0 1 0-3.41zm9.06 0a1.7 1.7 0 1 1 0 3.4 1.7 1.7 0 0 1 0-3.4zm9.09 0a1.7 1.7 0 1 1 0 3.41 1.7 1.7 0 0 1 0-3.41zm-40.84 4.53a1.7 1.7 0 1 1 0 3.4 1.7 1.7 0 0 1 0-3.4zm9.06 0a1.7 1.7 0 1 1 0 3.4 1.7 1.7 0 0 1 0-3.4zm9.1 0a1.7 1.7 0 1 1 0 3.4 1.7 1.7 0 0 1 0-3.4zm9.06 0a1.7 1.7 0 1 1 0 3.4 1.7 1.7 0 0 1 0-3.4zm9.09 0a1.7 1.7 0 1 1 0 3.42 1.7 1.7 0 0 1 0-3.42z"/><path fill="#465edb" d="M4.55 38.71c0 4.37.83 8.53 2.37 12.48 1.34 3.54 1.95 5.78 4.42 8.69.72.94 1.55 2.36 1.14 3.4L7.94 73.47s-.6 1.23 0 1.13c3.61-.57 17.23-3.85 17.23-3.85h.51c.42 0 .72.1 1.03.21 3.82 1.46 7.84 2.51 11.86 2.51 6.24 0 12.1-1.74 17.12-4.76l-4.05-.83a8.58 8.58 0 0 1-4.59-2.52L12.28 30.6c-.67.29-1.33.51-2.07.51a5 5 0 0 1-3.4-1.4l-.83-.83a34.5 34.5 0 0 0-1.43 9.83zm34.02 38.03a35.9 35.9 0 0 1-12.29-2.14L6.98 78h-.47c-.87 0-1.73-.39-2.2-1.07a2.9 2.9 0 0 1-.4-2.91l5.1-12.04a40.86 40.86 0 0 1-5.28-9.32 38.09 38.09 0 0 1-.4-26.54 4.74 4.74 0 0 1-.37-4.84L2 20.31a5.99 5.99 0 0 1-2-4.58c0-1.78.67-3.4 1.92-4.66l8.14-8.14a6.65 6.65 0 0 1 9.4 0l.96.97c.66-.3 1.33-.52 2.07-.52.68 0 1.33.15 1.94.43C28.8 2 33.57 1 38.57 1 59.2 1 76 17.99 76 38.87c0 8.33-2.68 16.04-7.2 22.3l1.48 7.22c.15.82-.07 1.63-.66 2.15-.45.44-1.04.66-1.71.66-.14 0-.29 0-.44-.07l-7.14-1.47a36.95 36.95 0 0 1-21.76 7.08zm34.01-37.93c0-18.93-15.25-34.43-34.01-34.43-3.92 0-7.67.67-11.18 1.9l1.46 1.46a4.74 4.74 0 0 1 .89 5.47l34.77 34.77a9.37 9.37 0 0 1 2.52 4.58l.79 3.85a34.87 34.87 0 0 0 4.76-17.6zM14.8 4.41c-.82 0-1.63.3-2.22.96l-8.14 8.14c-.6.59-.96 1.41-.96 2.22 0 .81.3 1.63.96 2.22l.74.74L17.83 6.04l-.74-.74a3.45 3.45 0 0 0-2.3-.89zm12.65 11.32l-2.6 2.59 34.93 34.91 2.59-2.59c-.08-.15-.23-.22-.3-.37zm38.1 46.89l-1.7-8.43-10.58 10.58 8.43 1.7zm-8.14-6.88L22.49 20.83l-2.59 2.59 34.92 34.91zm-7.99 7.25c.15.15.22.23.37.3l2.59-2.59-34.92-34.91-2.59 2.59zM6.29 24.38l2.96 2.96c.22.22.59.37.96.37s.66-.15.96-.37l15.31-15.31a1.3 1.3 0 0 0 0-1.85l-2.95-2.96c-.23-.22-.6-.37-.97-.37s-.66.15-.96.37L6.3 22.53a1.3 1.3 0 0 0 0 1.85z"/><path fill="#465edb" d="M27.85 13.14a27.5 27.5 0 0 1 35.7 36.74c-4.34 9.51-45.6-32.58-35.7-36.74zm33.61 33.94a24.5 24.5 0 0 0-31.62-31.51c-9.26 3.5 28.14 40.81 31.62 31.51zM47.62 61.86a26 26 0 0 1-32.3-33.08c3.45-10.33 42.94 29.83 32.3 33.08zM17.55 31.97a23 23 0 0 0 27.8 27.41c10.12-2.41-25.5-37.69-27.8-27.41zM29.7 11.71l-1.4-1.42 8-8 1.4 1.42z"/><path fill="#465edb" d="M34.7 12.71l-1.4-1.42 8-8 1.4 1.42zM45.7 13.71l-1.4-1.42 7.99-8 1.42 1.42zM49.71 15.71l-1.42-1.42 8-8 1.42 1.42zM53.71 17.71l-1.42-1.42 8-8 1.42 1.42zM56.71 20.71l-1.42-1.42 8-8 1.42 1.42zM59.71 23.71l-1.42-1.42 8-8 1.42 1.42zM61.71 27.71l-1.42-1.42 8-8 1.42 1.42zM63.71 31.71l-1.42-1.42 8-8 1.42 1.42zM64.71 36.71l-1.42-1.42 8-8 1.42 1.42zM65.71 41.71l-1.42-1.42 8-8 1.42 1.42zM63.36 49.99l-1.35-1.35 10.28-10.35 1.42 1.42zM65.39 53.99l-1.38-1.38 8.28-8.32 1.42 1.42zM39.7 13.71l-1.4-1.42 7.99-8 1.42 1.42z"/></svg>