<svg xmlns="http://www.w3.org/2000/svg" width="80" height="80" viewBox="0 0 80 80"><path fill="#465edb" d="M40 0a40 40 0 1 1 0 80 40 40 0 0 1 0-80zM4.41 50.17l5.88-5.88.02.02c-.14-.96-.23-1.94-.28-2.92L3.8 47.63c.18.86.39 1.7.62 2.54zm.7 2.15c.26.77.56 1.53.88 2.27l5.3-5.3.26.26c-.31-.94-.58-1.9-.8-2.88zm1.78 4.21c.35.7.72 1.38 1.1 2.05l5.17-5.16c-.35-.71-.68-1.44-.98-2.18zm2.2 3.8c.41.64.85 1.25 1.3 1.86l4.9-4.9.7.7a30.05 30.05 0 0 1-1.83-2.73zm2.56 3.44c.48.57.98 1.13 1.49 1.67l4.95-4.95c-.51-.54-1-1.1-1.47-1.69zm2.9 3.1h.02a21.42 21.42 0 0 1 5.79-4.2c-.3-.24-.57-.5-.85-.76zM73.33 56.1l-9.66 9.66c.41.35.8.73 1.17 1.12.1.11.16.24.18.38a37.13 37.13 0 0 0 8.31-11.16zm1.9-4.74c.45-1.39.82-2.8 1.1-4.26L60.14 63.28a24 24 0 0 1 1.93 1.23zm1.59-7.59c.11-1.1.18-2.22.19-3.35l-8.28 8.28a29.81 29.81 0 0 1-2.22 5.38zm.12-6.12c-.06-.96-.16-1.92-.3-2.87l-6.66 6.67a30.1 30.1 0 0 1-.38 3.54zm-.72-5.28c-.18-.86-.39-1.7-.62-2.54l-5.88 5.88-.02-.02c.14.96.23 1.94.28 2.92zm-1.31-4.69c-.27-.77-.57-1.53-.89-2.27l-5.43 5.43c.26.82.48 1.64.67 2.49zm-1.79-4.21c-.35-.7-.72-1.38-1.1-2.05l-5.17 5.16c.35.71.68 1.44.98 2.18zm-2.2-3.8a37.1 37.1 0 0 0-1.3-1.86l-5.01 5.01c.43.62.85 1.27 1.24 1.92zm-2.56-3.44c-.48-.57-.98-1.13-1.49-1.67l-4.95 4.95c.51.54 1 1.1 1.47 1.69zm-2.9-3.1c-.55-.5-1.1-1-1.68-1.48l-4.97 4.97c.58.47 1.15.96 1.7 1.47zm-3.26-2.74c-.6-.45-1.22-.89-1.86-1.3l-5.07 5.07c.65.4 1.3.8 1.92 1.24zM58.59 8c-.68-.38-1.36-.75-2.06-1.1l-5.29 5.29c.74.3 1.47.63 2.18.98zm-4-2c-.74-.32-1.5-.62-2.27-.89l-5.65 5.65c.85.19 1.67.41 2.49.67zM50.17 4.4c-.84-.23-1.68-.44-2.54-.62l-6.24 6.24c.97.05 1.94.14 2.89.27zm-4.95-1.05c-.95-.13-1.9-.23-2.87-.29L35 10.41a30.1 30.1 0 0 1 3.54-.38zM39.58 3c-1.13.01-2.25.08-3.35.19L25.92 13.5c1.7-.9 3.5-1.65 5.38-2.22zM3.19 36.23c-.11 1.1-.18 2.22-.19 3.35l8.28-8.28a29.81 29.81 0 0 1 2.22-5.38zm-.12 6.12c.06.96.16 1.92.3 2.87l6.66-6.67c.06-1.2.19-2.39.38-3.54zM28.64 4.78L4.78 28.64c-.45 1.39-.82 2.8-1.1 4.26L32.9 3.68c-1.45.28-2.87.65-4.26 1.1zm-4.74 1.9A37.17 37.17 0 0 0 6.68 23.9zM13 40c0 8.65 4.07 16.35 10.4 21.3 2.21-.88 4.3-1.47 5.81-1.84.07-.01.11-.08.11-.15v-2.16a16.84 16.84 0 0 1-2.76-5.6c-1.41-1.43-2.04-3.69-2.38-4.91-.55-1.98-1.1-4.85.42-6.9l.07-.09c-.11-.59-.18-1.18-.22-1.77-.68-4.65-.16-8.12 1.57-10.29a5.78 5.78 0 0 1 3.76-2.17c.88-3.1 5.19-6.13 9.11-5.3 3.82.81 11.75-.11 11.83-.11.1-.01.2.02.28.09.08.07.13.16.13.27a4.03 4.03 0 0 1-1.11 2.9c6.34 4.32 5.42 12.83 4.69 16.43l.07.08c1.52 2.06 1 4.93.42 6.91-.34 1.22-.97 3.48-2.39 4.91-.57 2.02-1.5 3.9-2.75 5.57v2.18c0 .07.04.13.11.15 1.6.38 3.85 1 6.2 1.97A27 27 0 1 0 13 40zm27 27c1 0 1.99-.05 2.96-.16a10.44 10.44 0 0 0 5.26-3.82 4.1 4.1 0 0 1-1.87-2.28c-.89.6-1.84 1.09-2.84 1.46a11.3 11.3 0 0 1-7.65 0c-1-.37-1.96-.85-2.84-1.45A4.1 4.1 0 0 1 31.16 63a10.41 10.41 0 0 0 4.92 3.72c1.28.18 2.59.28 3.92.28zm-2.22-14.35a1.9 1.9 0 0 1 1.52-.76h.73c1.08 0 1.95.88 1.95 1.98 0 1.09-.87 1.98-1.95 1.98h-.73a1.9 1.9 0 0 1-1.58-.84 20.91 20.91 0 0 1-6.96-2.26 11.42 11.42 0 0 0 6.29 6.04c1.71.62 3.57.62 5.28 0 4.11-1.51 6.79-5.78 7.31-9.21.03-.18.17-.32.34-.33.21 0 .93-.31 1.83-3.53.7-2.52.4-3.43.17-3.75a.89.89 0 0 0-.85-.3c-.05 0-.1 0-.15-.02a.38.38 0 0 1-.23-.49v-.07c.17-.61.9-3.67-1.65-5.59-2.23.51-5.91.66-10.82-1.48-2.41-1.05-4.43-1.09-6-.11-3.15 1.95-3.59 7.37-3.59 7.42-.02.21-.19.37-.39.36h-.17a.8.8 0 0 0-.7.3c-.23.32-.53 1.23.17 3.75.24 1.04.63 2.03 1.16 2.95a19.62 19.62 0 0 0 9.02 3.96zM32 43.05A3.08 3.08 0 0 1 35.11 40a3.08 3.08 0 0 1 3.11 3.05c0 1.68-1.78.72-1.78 0s-.59-1.31-1.33-1.31c-.74 0-1.33.59-1.33 1.31 0 .72-1.78 1.68-1.78 0zm9.78 0A3.08 3.08 0 0 1 44.89 40 3.08 3.08 0 0 1 48 43.05c0 1.68-1.78.72-1.78 0s-.59-1.31-1.33-1.31c-.74 0-1.33.59-1.33 1.31 0 .72-1.78 1.68-1.78 0z"/></svg>