<svg xmlns="http://www.w3.org/2000/svg" width="67" height="89" viewBox="0 0 67 89"><path fill="#465edb" d="M64.76 0H20.98a2.2 2.2 0 0 0-2.21 2.19v5.16h-6.7a2.2 2.2 0 0 0-2.22 2.19v5.15H3.2C2 14.69 1 15.68 1 16.89V86.8c0 1.22.99 2.2 2.21 2.2H47a2.2 2.2 0 0 0 2.21-2.2v-5.15h6.7a2.2 2.2 0 0 0 2.22-2.19v-5.17h6.67A2.2 2.2 0 0 0 67 72.1V2.19A2.2 2.2 0 0 0 64.79 0h-.03zm-.74 8.65l-5.98 5.93v-2.96l5.98-5.94zm0 6.03l-5.98 5.94v-2.97l5.98-5.93zm0 6.04l-5.98 5.93v-2.97l5.98-5.93zm0 6.03l-5.98 5.93v-2.96l5.98-5.94zm0 6.03l-5.98 5.93v-2.96l5.98-5.94zm0 6.03l-5.98 5.94v-2.97l5.98-5.93zm0 6.04l-5.98 5.93v-2.97l5.98-5.93zm0 6.03l-5.98 5.93v-2.97l5.98-5.93zm0 6.03l-5.98 5.93v-2.96l5.98-5.94zm0 6.03l-5.98 5.93v-2.96l5.98-5.93zm0 6.03l-2.38 2.37h-3l5.34-5.29zm-8.88 9.74h-5.98V16.9a2.24 2.24 0 0 0-2.21-2.2H12.83v-4.43h42.31zm-8.89 7.32H3.95V29.61h42.3zm0-68.4v9.07H3.95v-9.07zM21.72 5.46l2.54-2.49h2.99l-4.5 4.38h-1zM57.9 8.68a2.2 2.2 0 0 0-1.64-1.29l4.5-4.42h3zm-4.73-1.33h-3l4.5-4.38h3zm-6.08 0h-3l4.5-4.38h3zm-6.08 0h-2.99l4.48-4.38h3zm-6.08 0H32l4.44-4.38h2.99zm-6.08 0h-2.99l4.49-4.38h2.99zM15.14 23.62h19.93c.81 0 1.48-.65 1.48-1.46a1.52 1.52 0 0 0-1.48-1.46H15.14c-.83 0-1.5.66-1.5 1.48s.67 1.48 1.5 1.48zm25.67 11.17a2.17 2.17 0 0 0-1.13-.32H10.53c-.22.01-.44.04-.65.11a2.2 2.2 0 0 0-1.57 2.09v18.1c0 .96.64 1.81 1.57 2.09.2.07.43.11.65.11h29.15a2.2 2.2 0 0 0 2.2-2.2v-18.1c0-.77-.4-1.49-1.07-1.88zm-1.87 7.91v11.34H11.26V37.4h27.7v5.28zM10.53 72.84c-.22 0-.44.04-.65.11a2.2 2.2 0 0 0-1.57 2.09v4.64c0 1.22 1 2.2 2.22 2.2h29.14c.35 0 .7-.08 1-.24a2.2 2.2 0 0 0 1.23-1.96v-4.64a2.24 2.24 0 0 0-2.22-2.2zm28.44 6.12h-27.7v-3.19h27.7zM9.79 62.78h16.94c.81.02 1.49-.62 1.5-1.43v-.04c0-.52-.28-.99-.73-1.25a1.47 1.47 0 0 0-.74-.21H9.82c-.83 0-1.5.66-1.5 1.48s.67 1.48 1.5 1.48zm30.62 2.69H9.8a1.49 1.49 0 0 0 0 2.97H40.4c.82 0 1.48-.65 1.48-1.46v-.09a1.47 1.47 0 0 0-1.48-1.42z"/></svg>