<svg xmlns="http://www.w3.org/2000/svg" width="201" height="218" viewBox="0 0 201 218"><path fill="#6e6d86" d="M100.5 1L0 55.25v108.5L100.5 218 201 163.75V55.25zm99.46 54.77v107.46l-99.46 53.73-99.46-53.73V55.77L100.5 2.04zM100.5 9.3L7.29 59.84v99.5l93.21 50.35 93.21-50.35v-99.5zm86.96 54.39v20.63H13.54V63.7l86.96-47.13zm0 91.62l-86.96 47.1-86.96-47.1v-22.19h173.92zM78 122V95h4v27zm19.6-18.65h4.45v18.36H97.6v-1.47c-1.12.98-3.21 1.43-4.69 1.43-2.08 0-4-.68-5.29-1.92-1.45-1.41-2.28-3.53-2.28-6.09v-10.3h4.46v10.33c0 1.45.48 3.87 3.15 3.87 1.06 0 4.65-.33 4.65-4.46zm13.37 0h3.34v4.32h-3.34v14.04h-4.46v-14.04h-3.34v-4.32h3.34v-6.48h4.46zm18.05 12.29l3.05 2.9-.72.66a9.91 9.91 0 0 1-6.66 2.44c-5.48 0-9.62-4.03-9.62-9.36 0-5.35 4.05-9.25 9.62-9.25 2.49 0 4.84.87 6.61 2.42l.75.65-3 2.91-.68-.56c-1-.84-2.3-1.3-3.68-1.3-3.17 0-5.38 2.12-5.38 5.15 0 3.03 2.28 5.24 5.38 5.24 1.4 0 2.68-.47 3.66-1.32zm18.94-10.69c1.45 1.41 2 3.53 2 6.08v10.68h-4.45v-10.7c0-1.45.07-3.87-2.59-3.87-1.07 0-4.1.33-4.1 4.46v10.11h-4.45v-27h4.45v9.75a6.64 6.64 0 0 1 4.27-1.43c2.08 0 3.59.68 4.87 1.92 0 0-1.45-1.4 0 0zM72 114.25l2.96 2.93-.66.66a13.21 13.21 0 0 1-9.42 3.83c-7.29 0-12.81-5.61-12.81-13.08 0-7.48 5.5-13.12 12.81-13.12 3.59 0 6.93 1.34 9.4 3.8l.65.66-2.98 2.89-.67-.66a9.15 9.15 0 0 0-6.4-2.58c-4.96 0-8.57 3.78-8.57 8.99 0 5.19 3.61 8.97 8.57 8.97 2.42 0 4.73-.92 6.42-2.6zm-43.88-33.3v1.03h145.8v-1.04zm0 56.07v1.03h145.8v-1.03zm60.22-96.07h2.79v7.2h1.52v-7.2h2.79v-1.42h-7.1zm7.38 2.89c0 2.68 1.92 4.44 4.48 4.44a4.34 4.34 0 0 0 4.49-4.44c0-2.68-1.93-4.44-4.49-4.44a4.33 4.33 0 0 0-4.48 4.44zm1.6 0c0-1.79 1.23-3.03 2.88-3.03 1.63 0 2.89 1.24 2.89 3.03 0 1.7-1.08 3.02-2.89 3.02-1.61 0-2.88-1.3-2.88-3.02zm10.64 4.3v-3.1c.37.03.86.03 1.12.03 2.05 0 3.15-1.33 3.15-2.8 0-1.4-.8-2.76-3.34-2.76l-2.45.02v8.61zm1.08-7.22c1.03 0 1.59.45 1.59 1.34 0 .96-.7 1.4-1.6 1.4-.35 0-.72-.03-1.07-.07v-2.64l1.08-.03zM63.03 67.63h.17c.79 0 1.75.03 2.27.03 3.28 0 4.93-2 4.93-4.41 0-2.28-1.39-4.26-4.84-4.26-.62 0-1.85.04-2.37.04h-.16zm2.51-7.23c2.06 0 3.26 1.11 3.26 2.85 0 1.81-1.2 3-3.28 3-.21 0-.56 0-.98-.03v-5.78c.35-.02.64-.04 1-.04zm6.61 7.23h5.11v-1.4h-3.6V64h3.1v-1.42h-3.1v-2.14h3.47v-1.41h-4.98zm13.98-8.6h-1.51l-2.45 6.38-2.56-6.38H78l3.54 8.63h1.14zm1.17 8.6h5.11v-1.4h-3.6V64h3.1v-1.42h-3.1v-2.14h3.47v-1.41H87.3zm7.08 0h5.39v-1.4h-3.88v-7.2h-1.51zm5.74-4.3c0 2.68 1.92 4.44 4.48 4.44a4.34 4.34 0 0 0 4.49-4.44c0-2.68-1.93-4.44-4.49-4.44a4.33 4.33 0 0 0-4.48 4.44zm1.6 0c0-1.78 1.23-3.02 2.88-3.02 1.63 0 2.89 1.24 2.89 3.02 0 1.7-1.08 3.03-2.89 3.03-1.61 0-2.88-1.3-2.88-3.03zm10.64 4.3v-3.1c.37.03.86.03 1.12.03 2.05 0 3.15-1.33 3.15-2.8 0-1.4-.8-2.76-3.34-2.76l-2.45.03v8.6zm1.08-7.21c1.03 0 1.59.44 1.59 1.34 0 .95-.7 1.39-1.6 1.39-.35 0-.72-.03-1.07-.07v-2.64l1.08-.02zm4.94 7.21h5.1v-1.4h-3.59V64h3.1v-1.42h-3.1v-2.14h3.47v-1.41h-4.98zm8.59 0v-3.22h1.05l2.38 3.22h1.83l-2.69-3.51a2.49 2.49 0 0 0 1.66-2.46c0-1.49-.78-2.66-3.13-2.66l-2.62.03v8.6zm1.03-7.21c1.23 0 1.6.57 1.6 1.25 0 .89-.78 1.33-1.65 1.33h-.98v-2.56l1.03-.02zm9.01 4.93c0 .65-.54 1-1.26 1a2.6 2.6 0 0 1-1.98-.97l-.86 1.04c.42.87 1.71 1.35 2.82 1.35 1.61 0 2.88-.98 2.88-2.43 0-2.87-3.9-2.3-3.9-4.09 0-.56.45-.94 1.2-.94a2 2 0 0 1 1.53.63l.81-1.13a3.31 3.31 0 0 0-2.46-.92c-1.67 0-2.68 1.08-2.68 2.37 0 2.8 3.9 2.39 3.9 4.09zm-62.49 95.08c.5.04 1.61.06 2.4.06 1.82 0 3.2-.81 3.2-2.58 0-1.15-.67-1.8-1.52-2v-.03a2.02 2.02 0 0 0 1.23-1.96c0-1.19-.77-2.12-2.83-2.12-.86 0-2 .03-2.48.06zm2.46-7.22c.81 0 1.35.37 1.35 1.07 0 .79-.57 1.14-1.28 1.14h-1.02v-2.17c.27-.03.61-.04.95-.04zm.12 3.53c.95 0 1.5.37 1.5 1.1 0 .8-.55 1.24-1.57 1.24-.43 0-.79-.04-1-.07v-2.27zm5.01 3.7h5.11v-1.41h-3.59v-2.23h3.1v-1.41h-3.1v-2.14h3.47v-1.42h-4.99zm7.08 0h5.39v-1.41H90.7v-7.2h-1.51zm5.62 0h1.53l.9-2.2h3.68l.89 2.2h1.62l-3.64-8.63h-1.33zm4.27-6.68l1.26 3.07h-2.52zm7.15 6.68v-3.22h1.06l2.38 3.22h1.83l-2.69-3.52a2.5 2.5 0 0 0 1.66-2.46c0-1.48-.78-2.65-3.13-2.65l-2.62.02v8.61zm1.04-7.22c1.23 0 1.6.58 1.6 1.26 0 .88-.78 1.32-1.65 1.32h-.99v-2.55l1.04-.03zm12.51-1.39h-1.5v4.74c0 1.67-.61 2.6-1.92 2.6-1.49 0-2.15-1.1-2.15-2.7v-4.64h-1.51v4.96c0 2.52 1.52 3.79 3.66 3.79 1.81 0 3.42-1.07 3.42-3.7zm5.74 6.32c0 .66-.54 1.01-1.26 1.01a2.6 2.6 0 0 1-1.98-.97l-.86 1.03c.42.88 1.71 1.36 2.82 1.36 1.61 0 2.88-.99 2.88-2.44 0-2.86-3.9-2.3-3.9-4.08 0-.57.45-.95 1.2-.95a2 2 0 0 1 1.53.64l.81-1.13a3.31 3.31 0 0 0-2.46-.92c-1.67 0-2.68 1.08-2.68 2.37 0 2.8 3.9 2.39 3.9 4.08zm-36.65 21.78h5.41v-1.31H90.7c.68-.56 3.25-2.73 3.25-5.14 0-1.15-.8-2.25-2.43-2.25-1.37 0-2.36.78-2.59 2.04l1.18.53c.19-.73.63-1.16 1.25-1.16.71 0 1.09.43 1.09 1.12 0 1.67-2.18 3.67-3.58 5.04zm6.51-4.3c0 2.63.94 4.4 2.92 4.4 1.96 0 2.85-1.77 2.85-4.4 0-2.63-.91-4.4-2.88-4.4-1.98 0-2.89 1.77-2.89 4.4zm1.51 0c0-2.08.41-3.08 1.38-3.08.99 0 1.38.95 1.38 3.08s-.37 3.09-1.35 3.09c-.93 0-1.41-.99-1.41-3.1zm5.06-2.68l.75 1.17 1.06-.8v6.61h1.42v-8.63h-1.03zm4.83-.21h3.71l-2.9 7.2h1.55l3.05-7.67v-.94h-5.41z"/></svg>