<svg xmlns="http://www.w3.org/2000/svg" width="176" height="102" viewBox="0 0 176 102"><path fill="#3f4c91" d="M2.37 32.75A3.8 3.8 0 0 0 0 36.19c0 1.47.98 2.9 2.37 3.44l10.71 3.99v19.96a5.5 5.5 0 0 0 3.74 9.66 5.58 5.58 0 0 0 5.62-5.55 5.5 5.5 0 0 0-1.87-4.11V46.4l11.24 4.22v28.17c0 3.78 2.41 6.58 5.5 9.03 3.08 2.45 7.24 4.61 12.23 6.54 9.99 3.85 23.46 6.65 38.46 6.65 14.99 0 28.46-2.8 38.45-6.65 5-1.93 9.15-4.09 12.24-6.54 3.08-2.45 5.5-5.25 5.5-9.03V50.62l29.44-10.99a3.8 3.8 0 0 0 2.37-3.44 3.8 3.8 0 0 0-2.37-3.44L89.35 1.28a3.39 3.39 0 0 0-2.7 0zM88 8.68l73.75 27.54L88 63.7 14.25 36.22zM39.3 53.4l47.35 17.7a3.8 3.8 0 0 0 2.7 0l47.35-17.7v25.39c0 .1-.49 1.49-2.69 3.24-2.21 1.76-5.76 3.71-10.25 5.44-8.97 3.46-21.7 6.13-35.76 6.13-14.06 0-26.8-2.67-35.76-6.13-4.49-1.73-8.04-3.68-10.25-5.44-2.21-1.75-2.69-3.14-2.69-3.24z"/></svg>