<svg xmlns="http://www.w3.org/2000/svg" width="197" height="170" viewBox="0 0 197 170"><path fill="#3f4c91" d="M77.75 170H50.19l-13.67-23.92c-2.08-3.65 2.78-5.72 4.95-2.23l12.2 20.92h23.54c3.52 0 3.45 5.23.54 5.23zm43.04-5.23h23.53l12.2-20.92c2.18-3.49 7.04-1.42 4.96 2.23L147.81 170h-27.56c-2.91 0-2.99-5.23.54-5.23zM77.21 5.23H53.68l-12.2 20.92c-2.18 3.49-7.04 1.42-4.96-2.23L50.19 0h27.56c2.91 0 2.98 5.23-.54 5.23zM120.25 0h27.56l13.67 23.92c2.08 3.65-2.78 5.72-4.96 2.23l-12.2-20.92h-23.53c-3.53 0-3.45-5.23-.54-5.23zm62.97 61.32L197 85.19l-13.87 23.8c-2.12 3.63-6.35.45-4.42-3.18l12.02-21.03-11.77-20.38c-1.76-3.06 2.8-5.61 4.26-3.08zM19.04 64.4L7.27 84.78l12.01 21.03c1.94 3.63-2.29 6.81-4.4 3.18L1 85.19l13.78-23.87c1.46-2.53 6.02.02 4.26 3.08zm121.8 26.81v22.83c0 .7-.35 1.22-.88 1.57l-20.04 11.5c-.35.17-.53.17-.87.17-.35 0-.53 0-.88-.17L99 116.13l-19.18 10.98c-.34.17-.52.17-.87.17s-.52 0-.87-.17l-20.05-11.5a1.83 1.83 0 0 1-.87-1.57V91.21c0-.69.35-1.22.87-1.56l19.18-10.81V56.89c0-.7.35-1.22.87-1.57l20.05-11.5a1.57 1.57 0 0 1 1.74 0l20.05 11.5c.52.35.87.87.87 1.57v21.78l19.17 10.98c.53.34.88.87.88 1.56zm-38.35 0l16.56 9.41 16.56-9.41-16.56-9.4zM82.44 56.89L99 66.3l16.56-9.41L99 47.48zM80.7 78.67L99 89.12l18.3-10.45V59.85l-17.43 9.93c-.52.35-1.22.35-1.74 0L80.7 59.85zM62.4 91.21l16.55 9.41 16.56-9.41-16.56-9.4zm34.86 21.78V94.18l-17.44 9.93c-.52.35-1.22.35-1.74 0l-17.43-9.93v18.81l18.3 10.46zm40.09-18.81l-17.43 9.93c-.53.35-1.22.35-1.75 0l-17.43-9.93v18.81l18.31 10.46 18.3-10.46z"/></svg>