<svg xmlns="http://www.w3.org/2000/svg" width="154" height="160" viewBox="0 0 154 160"><path fill="#fff" d="M75.66 158.61c.4.39.78.39 1.18.39.39 0 .78 0 1.17-.39 18.84-9.78 34.54-23.07 46.7-39.5a141.48 141.48 0 0 0 19.63-38.33c9.81-28.56 8.63-52.02 8.63-53.2a2.67 2.67 0 0 0-2.74-2.73c-28.65.78-48.28-7.44-60.05-14.48-7.06-4.69-10.99-8.6-10.99-8.6a3.01 3.01 0 0 0-1.96-.78 3 3 0 0 0-1.96.78c-.4.39-23.55 24.25-71.43 23.08a2.67 2.67 0 0 0-2.75 2.73c-.4.79-3.53 90.75 74.57 131.03zM76.84 7.64c1.96 1.95 5.49 4.69 10.6 7.43 11.77 7.04 31.39 15.64 60.04 15.64 0 7.04-1.18 26.21-8.64 48.11a141.44 141.44 0 0 1-18.83 36.77c-11.38 15.64-25.9 27.77-43.17 37.16C11.3 117.94 6.59 45.58 6.59 30.71c40.81 0 63.57-17.21 70.25-23.07zm-1.57 116.55c.39.39 1.17.39 1.57.39.78 0 1.17 0 1.57-.39 8.63-6.25 16.48-13.69 22.76-22.68 6.67-9 11.77-19.17 15.7-30.51 1.96-5.48 3.14-10.95 4.31-16.43 0-.78 0-1.56-.39-2.35a2.16 2.16 0 0 0-1.96-1.17A136.59 136.59 0 0 1 78 36.58a3.37 3.37 0 0 0-2.74 0c-12.17 7.04-25.9 11.73-40.82 14.47-.78 0-1.57.39-1.96 1.17-.4.79-.79 1.57-.4 2.35 4.71 20.73 15.31 49.68 43.18 69.62zm1.96-81.74a136.35 136.35 0 0 0 38.46 13.69 61823 61823 0 0 0-3.53 12.9 101.08 101.08 0 0 1-14.92 28.95c-5.5 7.43-12.16 14.47-19.62 19.95-23.94-18-34.14-43.03-38.46-61.8a120.03 120.03 0 0 0 38.07-13.69z"/></svg>