<svg xmlns="http://www.w3.org/2000/svg" width="58" height="58" viewBox="0 0 58 58"><path fill="#0cf" d="M29 0a29 29 0 1 1 0 58 29 29 0 0 1 0-58zM1.47 29a27.54 27.54 0 1 0 55.08-.02A27.54 27.54 0 0 0 1.47 29zM29 3.41a25.59 25.59 0 1 1 .01 51.18A25.59 25.59 0 0 1 29 3.4zm8.97 36.9l-.01-.05-1.36-8.28 5.94-5.91c.41-.41.42-1.09 0-1.51a1.1 1.1 0 0 0-.59-.3l-8.26-1.27-3.74-7.51a1.06 1.06 0 0 0-1.9 0l-3.74 7.51-8.25 1.27a1.07 1.07 0 0 0-.59 1.81l5.93 5.91-1.35 8.28c-.1.58.29 1.13.87 1.23.23.04.47 0 .67-.11L29 37.52l7.42 3.86c.19.1.4.14.62.12.58-.07 1-.61.93-1.19z"/></svg>