<svg width="58" height="58" viewBox="0 0 58 58" fill="none" xmlns="http://www.w3.org/2000/svg">
<g clip-path="url(#clip0)">
<path d="M29 2.7305e-05C32.853 -0.0721914 36.6817 0.62424 40.2625 2.04863C43.8432 3.47301 47.1041 5.59678 49.8547 8.29583C52.6053 10.9949 54.7904 14.2151 56.2822 17.7682C57.7741 21.3214 58.5428 25.1363 58.5435 28.9899C58.5441 32.8436 57.7767 36.6587 56.2861 40.2124C54.7955 43.7661 52.6115 46.987 49.8619 49.687C47.1122 52.387 43.852 54.5119 40.2717 55.9375C36.6915 57.3632 32.863 58.0609 29.01 57.99C21.4133 57.8503 14.1748 54.7347 8.85138 49.3133C3.52794 43.892 0.544783 36.598 0.543473 28.9999C0.542162 21.4019 3.52281 14.1069 8.84437 8.68368C14.1659 3.2605 21.4033 0.142417 29 2.7305e-05V2.7305e-05ZM1.47 29C1.47265 36.3041 4.37672 43.3079 9.54335 48.4708C14.71 53.6337 21.7159 56.5327 29.02 56.53C36.3241 56.5274 43.3279 53.6233 48.4908 48.4567C53.6537 43.29 56.5527 36.2841 56.55 28.98C56.5474 21.676 53.6433 14.6721 48.4767 9.50924C43.31 4.34636 36.3041 1.44738 29 1.45003C21.6959 1.45268 14.6921 4.35675 9.52921 9.52338C4.36633 14.69 1.46735 21.696 1.47 29V29ZM29 3.41003C32.4024 3.34276 35.7841 3.95481 38.9471 5.21036C42.1101 6.46591 44.991 8.33975 47.421 10.7222C49.851 13.1046 51.7814 15.9479 53.0992 19.0854C54.4171 22.223 55.0958 25.5919 55.0958 28.995C55.0958 32.3981 54.4171 35.767 53.0992 38.9046C51.7814 42.0422 49.851 44.8854 47.421 47.2679C44.991 49.6503 42.1101 51.5241 38.9471 52.7797C35.7841 54.0352 32.4024 54.6473 29 54.58C22.302 54.4476 15.9231 51.6939 11.233 46.9102C6.54296 42.1265 3.91584 35.6943 3.91584 28.995C3.91584 22.2957 6.54296 15.8636 11.233 11.0799C15.9231 6.2962 22.302 3.54245 29 3.41003V3.41003ZM37.96 40.31V40.26L36.6 31.98L42.53 26.07C42.95 25.66 42.95 24.98 42.54 24.56C42.3796 24.4007 42.1732 24.2958 41.95 24.26L33.69 22.99L29.95 15.48C29.69 14.96 29.05 14.74 28.53 15.01C28.32 15.11 28.16 15.28 28.05 15.48L24.31 22.99L16.06 24.26C15.8657 24.2912 15.6838 24.3754 15.5343 24.5033C15.3847 24.6312 15.2733 24.7978 15.2123 24.9849C15.1514 25.172 15.1431 25.3722 15.1886 25.5637C15.2341 25.7551 15.3314 25.9303 15.47 26.07L21.4 31.98L20.05 40.26C20.0196 40.4545 20.0435 40.6536 20.119 40.8354C20.1945 41.0173 20.3186 41.1747 20.4778 41.2905C20.637 41.4063 20.8251 41.4759 21.0213 41.4917C21.2175 41.5075 21.4143 41.4689 21.59 41.38L29 37.52L36.42 41.38C36.61 41.48 36.83 41.52 37.04 41.5C37.62 41.43 38.04 40.89 37.96 40.31Z" fill="#2AD41C"/>
</g>
<defs>
<clipPath id="clip0">
<rect width="58" height="58" fill="white"/>
</clipPath>
</defs>
</svg>
