<svg xmlns="http://www.w3.org/2000/svg" width="58" height="58" viewBox="0 0 58 58"><path fill="#ff2d56" d="M29 0a29 29 0 1 1 .01 57.99A29 29 0 0 1 29 0zM1.47 29a27.54 27.54 0 1 0 55.08-.02A27.54 27.54 0 0 0 1.47 29zM29 3.41a25.59 25.59 0 1 1 0 51.17 25.59 25.59 0 0 1 0-51.17zm8.97 36.9l-.01-.05-1.36-8.28 5.93-5.91c.42-.41.42-1.09.01-1.51a1.08 1.08 0 0 0-.59-.3l-8.26-1.27-3.74-7.51c-.26-.52-.9-.74-1.42-.47-.21.1-.37.27-.48.47l-3.74 7.51-8.25 1.27a1.07 1.07 0 0 0-.59 1.81l5.93 5.91-1.35 8.28a1.07 1.07 0 0 0 1.54 1.12L29 37.52l7.42 3.86c.19.1.41.14.62.12.58-.07 1-.61.93-1.19z"/></svg>